<svg width="24" height="24" viewBox="0 0 24 24" fill="none" xmlns="http://www.w3.org/2000/svg">
<path d="M12 9V2L10 4" stroke="#F5F5F0" stroke-width="1.5" stroke-linecap="round" stroke-linejoin="round"/>
<path d="M12 2L14 4" stroke="#F5F5F0" stroke-width="1.5" stroke-linecap="round" stroke-linejoin="round"/>
<path d="M1.97998 13H6.38998C6.76998 13 7.10998 13.21 7.27998 13.55L8.44998 15.89C8.78998 16.57 9.47998 17 10.24 17H13.77C14.53 17 15.22 16.57 15.56 15.89L16.73 13.55C16.9 13.21 17.25 13 17.62 13H21.98" stroke="#F5F5F0" stroke-width="1.5" stroke-linecap="round" stroke-linejoin="round"/>
<path d="M7 5.13086C3.46 5.65086 2 7.73086 2 12.0009V15.0009C2 20.0009 4 22.0009 9 22.0009H15C20 22.0009 22 20.0009 22 15.0009V12.0009C22 7.73086 20.54 5.65086 17 5.13086" stroke="#F5F5F0" stroke-width="1.5" stroke-linecap="round" stroke-linejoin="round"/>
</svg>
