<svg width="128" height="128" viewBox="0 0 128 128" fill="none" xmlns="http://www.w3.org/2000/svg">
<path d="M16.9067 39.6807L64 66.9339L110.773 39.8405" stroke="#292D32" stroke-width="1.5" stroke-linecap="round" stroke-linejoin="round"/>
<path d="M64 115.254V66.8809" stroke="#292D32" stroke-width="1.5" stroke-linecap="round" stroke-linejoin="round"/>
<path d="M115.253 48.907V79.0939C115.253 79.3605 115.253 79.5736 115.2 79.8403C111.467 76.5869 106.667 74.6671 101.333 74.6671C96.32 74.6671 91.68 76.4271 88 79.3605C83.0933 83.2538 80 89.2804 80 96.0004C80 100 81.1199 103.787 83.0932 106.987C83.5732 107.84 84.1599 108.64 84.7999 109.387L75.04 114.774C68.96 118.187 59.0399 118.187 52.9599 114.774L24.4799 98.9871C18.0266 95.4137 12.7467 86.4539 12.7467 79.0939V48.907C12.7467 41.547 18.0266 32.5871 24.4799 29.0138L52.9599 13.227C59.0399 9.81366 68.96 9.81366 75.04 13.227L103.52 29.0138C109.973 32.5871 115.253 41.547 115.253 48.907Z" stroke="#292D32" stroke-width="1.5" stroke-linecap="round" stroke-linejoin="round"/>
<path d="M122.667 96.0003C122.667 100 121.547 103.787 119.573 106.987C118.453 108.907 117.013 110.614 115.36 112C111.627 115.36 106.72 117.334 101.333 117.334C93.5467 117.334 86.7733 113.174 83.0933 106.987C81.1199 103.787 80 100 80 96.0003C80 89.2803 83.0933 83.2537 88 79.3604C91.68 76.427 96.32 74.667 101.333 74.667C113.12 74.667 122.667 84.2137 122.667 96.0003Z" stroke="#292D32" stroke-width="1.5" stroke-miterlimit="10" stroke-linecap="round" stroke-linejoin="round"/>
<path d="M107.04 101.547L95.7334 90.2939" stroke="#292D32" stroke-width="1.5" stroke-miterlimit="10" stroke-linecap="round" stroke-linejoin="round"/>
<path d="M106.933 90.4541L95.6266 101.707" stroke="#292D32" stroke-width="1.5" stroke-miterlimit="10" stroke-linecap="round" stroke-linejoin="round"/>
</svg>
