<svg width="198" height="151" viewBox="0 0 198 151" fill="none" xmlns="http://www.w3.org/2000/svg">
<path d="M180.5 20.1452C183.013 20.1452 185.05 18.0498 185.05 15.4652C185.05 12.8805 183.013 10.7852 180.5 10.7852C177.987 10.7852 175.95 12.8805 175.95 15.4652C175.95 18.0498 177.987 20.1452 180.5 20.1452Z" stroke="#1F2F37" stroke-width="1.5"/>
<path d="M168.279 12.735C171.152 -0.254997 189.862 -0.239996 192.721 12.75C194.398 20.37 189.789 26.82 185.75 30.81C182.819 33.72 178.181 33.72 175.235 30.81C171.21 26.82 166.602 20.355 168.279 12.735Z" stroke="#1F2F37" stroke-width="1.5"/>
<path d="M18 144.25C24.2132 144.25 29.25 139.213 29.25 133C29.25 126.787 24.2132 121.75 18 121.75C11.7868 121.75 6.75 126.787 6.75 133C6.75 139.213 11.7868 144.25 18 144.25Z" stroke="#1F2F37" stroke-width="1.5" stroke-linecap="round" stroke-linejoin="round"/>
<path d="M18 137.5C20.4853 137.5 22.5 135.485 22.5 133C22.5 130.515 20.4853 128.5 18 128.5C15.5147 128.5 13.5 130.515 13.5 133C13.5 135.485 15.5147 137.5 18 137.5Z" stroke="#1F2F37" stroke-width="1.5" stroke-linecap="round" stroke-linejoin="round"/>
<path d="M18 121V118" stroke="#1F2F37" stroke-width="1.5" stroke-linecap="round" stroke-linejoin="round"/>
<path d="M6 133H3" stroke="#1F2F37" stroke-width="1.5" stroke-linecap="round" stroke-linejoin="round"/>
<path d="M18 145V148" stroke="#1F2F37" stroke-width="1.5" stroke-linecap="round" stroke-linejoin="round"/>
<path d="M30 133H33" stroke="#1F2F37" stroke-width="1.5" stroke-linecap="round" stroke-linejoin="round"/>
<path d="M55 132L90.2454 127.027C111.859 123.977 121.918 98.5463 108.238 81.5372V81.5372C96.0084 66.3306 102.597 43.5953 121.062 37.2837L157 25" stroke="#1F2F37"/>
</svg>
