<svg width="24" height="24" viewBox="0 0 24 24" fill="none" xmlns="http://www.w3.org/2000/svg">
<path d="M2.07006 4.60086C2.87006 1.14086 8.08006 1.14086 8.87006 4.60086C9.34006 6.63086 8.05006 8.35086 6.93006 9.42086C6.11006 10.2009 4.82006 10.1909 4.00006 9.42086C2.89006 8.35086 1.60006 6.63086 2.07006 4.60086Z" stroke="#F5F5F0" stroke-width="1.5"/>
<path d="M15.07 16.6009C15.87 13.1409 21.11 13.1409 21.91 16.6009C22.38 18.6309 21.09 20.3509 19.96 21.4209C19.14 22.2009 17.84 22.1909 17.02 21.4209C15.89 20.3509 14.6 18.6309 15.07 16.6009Z" stroke="#F5F5F0" stroke-width="1.5"/>
<path d="M11.9999 5H14.6799C16.5299 5 17.3899 7.29 15.9999 8.51L8.00995 15.5C6.61995 16.71 7.47994 19 9.31994 19H11.9999" stroke="#F5F5F0" stroke-width="1.5" stroke-linecap="round" stroke-linejoin="round"/>
<path d="M5.48622 5.5H5.49777" stroke="#F5F5F0" stroke-width="2" stroke-linecap="round" stroke-linejoin="round"/>
<path d="M18.4862 17.5H18.4978" stroke="#F5F5F0" stroke-width="2" stroke-linecap="round" stroke-linejoin="round"/>
</svg>
