<svg width="64" height="64" viewBox="0 0 64 64" fill="none" xmlns="http://www.w3.org/2000/svg">
<path d="M31.9998 31.9997C39.3636 31.9997 45.3332 26.0301 45.3332 18.6663C45.3332 11.3025 39.3636 5.33301 31.9998 5.33301C24.636 5.33301 18.6665 11.3025 18.6665 18.6663C18.6665 26.0301 24.636 31.9997 31.9998 31.9997Z" stroke="#1F2F37" stroke-width="1.5" stroke-linecap="round" stroke-linejoin="round"/>
<path d="M9.09326 58.6667C9.09326 48.3467 19.3599 40 31.9999 40C34.5599 40 37.0399 40.3467 39.3599 40.9867" stroke="#1F2F37" stroke-width="1.5" stroke-linecap="round" stroke-linejoin="round"/>
<path d="M58.6668 47.9997C58.6668 48.853 58.5602 49.6797 58.3468 50.4797C58.1068 51.5463 57.6802 52.5863 57.1202 53.493C55.2802 56.5863 51.8935 58.6663 48.0002 58.6663C45.2535 58.6663 42.7735 57.6263 40.9068 55.9196C40.1068 55.2263 39.4135 54.3997 38.8801 53.493C37.8935 51.893 37.3335 49.9997 37.3335 47.9997C37.3335 45.1197 38.4802 42.4797 40.3468 40.5597C42.2935 38.5597 45.0135 37.333 48.0002 37.333C51.1468 37.333 54.0002 38.6931 55.9202 40.8797C57.6268 42.7731 58.6668 45.2797 58.6668 47.9997Z" stroke="#1F2F37" stroke-width="1.5" stroke-miterlimit="10" stroke-linecap="round" stroke-linejoin="round"/>
<path d="M50.7467 45.1738L45.1201 50.8005" stroke="#1F2F37" stroke-width="1.5" stroke-miterlimit="10" stroke-linecap="round" stroke-linejoin="round"/>
<path d="M45.1733 45.2275L50.8267 50.8542" stroke="#1F2F37" stroke-width="1.5" stroke-miterlimit="10" stroke-linecap="round" stroke-linejoin="round"/>
</svg>
