<svg width="128" height="128" viewBox="0 0 128 128" fill="none" xmlns="http://www.w3.org/2000/svg">
<path d="M117.333 39.6276V71.6276C117.333 79.6276 114.667 86.2943 109.973 90.9876C105.333 95.6276 98.6668 98.2943 90.6668 98.2943V109.654C90.6668 113.921 85.9201 116.481 82.4001 114.134L58.6667 98.2943H47.3601C47.7868 96.6943 48.0001 95.041 48.0001 93.3343C48.0001 87.8943 45.9201 82.8811 42.5068 79.0944C38.6668 74.7211 32.9601 72.001 26.6667 72.001C20.6934 72.001 15.2534 74.4544 11.3601 78.4544C10.8801 76.3211 10.6667 74.0276 10.6667 71.6276V39.6276C10.6667 23.6276 21.3334 12.9609 37.3334 12.9609H90.6668C106.667 12.9609 117.333 23.6276 117.333 39.6276Z" stroke="#1F2F37" stroke-width="1.5" stroke-miterlimit="10" stroke-linecap="round" stroke-linejoin="round"/>
<path d="M47.9999 93.3333C47.9999 95.04 47.7866 96.6933 47.3599 98.2933C46.8799 100.427 46.0267 102.507 44.9067 104.32C41.2267 110.507 34.4533 114.667 26.6666 114.667C21.1733 114.667 16.2132 112.587 12.4799 109.173C10.8799 107.787 9.49318 106.133 8.42651 104.32C6.45318 101.12 5.33325 97.3333 5.33325 93.3333C5.33325 87.5733 7.62661 82.2935 11.3599 78.4535C15.2533 74.4535 20.6933 72 26.6666 72C32.9599 72 38.6666 74.7201 42.5066 79.0934C45.9199 82.8801 47.9999 87.8933 47.9999 93.3333Z" stroke="#1F2F37" stroke-width="1.5" stroke-miterlimit="10" stroke-linecap="round" stroke-linejoin="round"/>
<path d="M32.3733 98.8802L21.0667 87.627" stroke="#1F2F37" stroke-width="1.5" stroke-miterlimit="10" stroke-linecap="round" stroke-linejoin="round"/>
<path d="M32.2666 87.7871L20.96 99.0404" stroke="#1F2F37" stroke-width="1.5" stroke-miterlimit="10" stroke-linecap="round" stroke-linejoin="round"/>
<path d="M45.3333 56H82.6666" stroke="#1F2F37" stroke-width="1.5" stroke-miterlimit="10" stroke-linecap="round" stroke-linejoin="round"/>
</svg>
