<svg width="278" height="261" viewBox="0 0 278 261" fill="none" xmlns="http://www.w3.org/2000/svg">
<path d="M18.5 0L15.6132 5L21.3868 5L18.5 0ZM18 4.5L18 210L19 210L19 4.5L18 4.5Z" fill="#1F2F37"/>
<path d="M278 210L273 207.113V212.887L278 210ZM273.5 209.5L18 209.5V210.5L273.5 210.5V209.5Z" fill="#1F2F37"/>
<path d="M25.9468 232.33L24.9536 231.953L25.0054 231.089L29.3353 233.258C29.5884 233.327 29.8333 233.27 30.0701 233.087C30.3035 232.901 30.5217 232.633 30.7249 232.281L30.7278 232.276L31.3925 232.659L31.3896 232.664C31.1005 233.165 30.8055 233.489 30.5044 233.635C30.202 233.776 29.8462 233.799 29.4372 233.702C29.3718 234.355 29.1956 234.93 28.9085 235.427C28.6253 235.917 28.3007 236.237 27.9347 236.387C27.5673 236.531 27.2042 236.5 26.8457 236.293C26.575 236.136 26.3431 235.89 26.1498 235.553C25.9585 235.212 25.8386 234.775 25.7901 234.242C25.7382 233.707 25.7904 233.07 25.9468 232.33ZM26.4982 232.547C26.3826 233.044 26.3015 233.52 26.2549 233.976C26.2069 234.426 26.2303 234.823 26.3252 235.167C26.4167 235.508 26.6147 235.767 26.9192 235.943C27.1018 236.048 27.2817 236.069 27.4589 236.004C27.6326 235.937 27.7972 235.82 27.9525 235.653C28.1097 235.482 28.247 235.295 28.3641 235.092C28.5243 234.815 28.6583 234.536 28.7661 234.255C28.8726 233.969 28.9546 233.726 29.0121 233.525C28.6364 233.371 28.262 233.222 27.8891 233.079C27.5128 232.934 27.0492 232.757 26.4982 232.547ZM33.1063 232.972C33.2055 232.894 33.3272 232.82 33.4714 232.75C33.621 232.679 33.8035 232.612 34.0188 232.552C34.087 232.7 34.1542 232.849 34.2204 233C34.2919 233.149 34.3615 233.302 34.4291 233.459C34.2704 233.507 34.1137 233.567 33.9588 233.64C33.8092 233.712 33.6672 233.79 33.5326 233.875C33.463 233.722 33.3932 233.573 33.3231 233.429C33.2549 233.281 33.1827 233.129 33.1063 232.972ZM31.3955 232.654C31.3369 232.756 31.201 232.745 30.9879 232.622L30.9625 232.607C30.7494 232.484 30.6721 232.372 30.7307 232.271C30.9163 231.949 31.0399 231.669 31.1015 231.429C31.1617 231.184 31.1494 230.952 31.0646 230.731C30.9784 230.506 30.8109 230.265 30.562 230.008C30.3151 229.748 29.9746 229.443 29.5406 229.094L29.8462 228.681C30.0361 228.814 30.2143 228.935 30.381 229.044C30.5462 229.149 30.6965 229.24 30.8318 229.318C31.2039 229.533 31.5647 229.588 31.914 229.483C32.2599 229.376 32.5637 229.096 32.8255 228.642L32.8284 228.637L33.4931 229.021L33.4902 229.026C33.2168 229.5 32.8808 229.804 32.4825 229.94C32.0826 230.07 31.6072 230.045 31.0561 229.867C31.4486 230.297 31.6785 230.738 31.7457 231.192C31.815 231.643 31.6982 232.13 31.3955 232.654ZM28.4871 224.954C28.5862 224.876 28.7096 224.802 28.8572 224.734C29.0034 224.661 29.1842 224.594 29.3996 224.533C29.4677 224.681 29.5366 224.831 29.6061 224.984C29.6743 225.132 29.7422 225.284 29.8098 225.44C29.6511 225.488 29.4961 225.55 29.3446 225.625C29.1916 225.694 29.0479 225.771 28.9133 225.856C28.8437 225.703 28.7739 225.554 28.7038 225.41C28.6356 225.263 28.5634 225.11 28.4871 224.954ZM33.4931 229.021C33.4345 229.123 33.2987 229.112 33.0855 228.989L33.0602 228.974C32.8471 228.851 32.7698 228.739 32.8284 228.637C33.1057 228.157 33.2236 227.754 33.1819 227.427C33.1368 227.099 32.9181 226.822 32.5257 226.595C32.3904 226.517 32.211 226.429 31.9876 226.332C31.7628 226.229 31.5756 226.155 31.4261 226.109L31.5736 225.619C32.2203 225.866 32.7399 226.029 33.1325 226.107C33.5218 226.182 33.8304 226.171 34.0586 226.073C34.2853 225.969 34.4798 225.777 34.6419 225.496L34.6448 225.491L35.3095 225.875L35.3066 225.88C35.0683 226.293 34.7818 226.547 34.4471 226.642C34.1123 226.738 33.6653 226.692 33.1061 226.504C33.5458 226.875 33.7968 227.257 33.859 227.649C33.9178 228.039 33.7959 228.497 33.4931 229.021ZM38.6759 220.173C38.1818 221.029 37.4182 221.184 36.3852 220.637C36.7949 221.013 37.056 221.417 37.1684 221.847C37.2828 222.274 37.2345 222.67 37.0236 223.035C36.5997 223.769 35.8353 223.851 34.7302 223.281C35.1568 223.784 35.4161 224.245 35.5082 224.664C35.6023 225.079 35.5361 225.483 35.3095 225.875C35.2509 225.976 35.1151 225.966 34.902 225.843L34.8766 225.828C34.6635 225.705 34.5862 225.593 34.6448 225.491C34.9163 225.021 34.9643 224.571 34.7889 224.14C34.6154 223.706 34.1783 223.19 33.4774 222.591L33.7801 222.184C33.9516 222.301 34.1485 222.433 34.3707 222.579C34.5929 222.726 34.7632 222.833 34.8816 222.901C35.2436 223.11 35.5478 223.189 35.7941 223.137C36.0371 223.084 36.2533 222.893 36.4428 222.564C36.5854 222.318 36.6491 222.086 36.6341 221.87C36.6191 221.654 36.5085 221.412 36.3023 221.144C36.0961 220.876 35.7766 220.543 35.3438 220.144L35.628 219.652C35.6965 219.705 35.7946 219.777 35.9221 219.869C36.0481 219.955 36.1793 220.044 36.3155 220.137C36.4503 220.223 36.5651 220.294 36.6598 220.349C36.9811 220.534 37.2357 220.593 37.4235 220.526C37.608 220.456 37.8125 220.227 38.0371 219.838C38.2051 219.547 38.3042 219.309 38.3346 219.124C38.365 218.938 38.3407 218.746 38.2616 218.547C37.8994 218.401 37.5423 218.285 37.1904 218.199C36.8352 218.111 36.4844 218.051 36.1382 218.018L35.8326 217.118C36.5738 217.248 37.3114 217.525 38.0455 217.949C38.147 218.007 38.2294 218.064 38.2926 218.118C38.3578 218.17 38.4298 218.252 38.5088 218.365C38.5897 218.475 38.7062 218.648 38.8582 218.885C38.9515 219.372 38.8907 219.801 38.6759 220.173ZM33.2325 218.668C33.2095 218.614 33.0813 218.344 32.848 217.857C33.0139 217.718 33.2875 217.592 33.6688 217.479C33.7293 217.608 33.7895 217.742 33.8494 217.881C33.9113 218.015 33.9739 218.153 34.0373 218.293C33.7413 218.384 33.4731 218.509 33.2325 218.668ZM33.1584 219.816C32.8891 219.899 32.6208 220.024 32.3536 220.19C32.2216 219.911 32.0935 219.641 31.9691 219.379C32.1495 219.231 32.4231 219.105 32.7899 219.001C32.8768 219.186 32.9996 219.458 33.1584 219.816ZM31.5077 218.714C31.4799 218.653 31.3517 218.383 31.1232 217.903C31.3235 217.744 31.5971 217.618 31.944 217.525C32.0059 217.66 32.0654 217.791 32.1224 217.919C32.1815 218.043 32.2448 218.183 32.3124 218.34C32.0432 218.423 31.7749 218.548 31.5077 218.714Z" fill="#1F2F37"/>
<path d="M58.4412 241.261L57.448 240.883L57.4998 240.02L61.8297 242.189C62.0828 242.258 62.3277 242.201 62.5645 242.017C62.7979 241.832 63.0161 241.563 63.2193 241.211L63.2222 241.206L63.8869 241.59L63.884 241.595C63.5949 242.096 63.2999 242.42 62.9988 242.566C62.6963 242.707 62.3406 242.729 61.9316 242.633C61.8662 243.285 61.69 243.86 61.4028 244.358C61.1196 244.848 60.795 245.168 60.4291 245.318C60.0616 245.462 59.6986 245.43 59.34 245.223C59.0694 245.067 58.8375 244.821 58.6442 244.483C58.4529 244.143 58.3329 243.706 58.2844 243.173C58.2326 242.638 58.2848 242 58.4412 241.261ZM58.9926 241.478C58.877 241.975 58.7959 242.451 58.7493 242.907C58.7013 243.357 58.7247 243.754 58.8196 244.098C58.9111 244.439 59.1091 244.698 59.4136 244.873C59.5962 244.979 59.7761 244.999 59.9533 244.935C60.127 244.868 60.2916 244.751 60.4469 244.584C60.6041 244.413 60.7413 244.226 60.8585 244.023C61.0187 243.746 61.1527 243.467 61.2605 243.186C61.3669 242.9 61.4489 242.657 61.5065 242.455C61.1307 242.302 60.7564 242.153 60.3835 242.01C60.0072 241.865 59.5435 241.687 58.9926 241.478ZM65.6007 241.903C65.6999 241.825 65.8216 241.751 65.9658 241.681C66.1154 241.609 66.2978 241.543 66.5132 241.483C66.5814 241.63 66.6485 241.78 66.7147 241.931C66.7863 242.08 66.8558 242.233 66.9235 242.389C66.7648 242.438 66.608 242.498 66.4532 242.571C66.3036 242.643 66.1615 242.721 66.0269 242.805C65.9574 242.653 65.8875 242.504 65.8174 242.36C65.7493 242.212 65.6771 242.06 65.6007 241.903ZM63.8899 241.585C63.8313 241.687 63.6954 241.676 63.4823 241.553L63.4569 241.538C63.2438 241.415 63.1665 241.303 63.2251 241.201C63.4107 240.88 63.5342 240.599 63.5959 240.36C63.6561 240.115 63.6438 239.882 63.559 239.662C63.4728 239.436 63.3053 239.195 63.0564 238.939C62.8095 238.679 62.469 238.374 62.035 238.024L62.3406 237.612C62.5304 237.744 62.7087 237.865 62.8754 237.975C63.0406 238.08 63.1909 238.171 63.3262 238.249C63.6983 238.464 64.059 238.519 64.4084 238.414C64.7543 238.307 65.0581 238.026 65.3198 237.573L65.3228 237.568L65.9875 237.952L65.9846 237.957C65.7111 238.431 65.3752 238.735 64.9768 238.87C64.577 239 64.1016 238.976 63.5505 238.798C63.943 239.227 64.1729 239.669 64.2401 240.123C64.3093 240.573 64.1926 241.061 63.8899 241.585ZM60.9814 233.884C61.0806 233.806 61.204 233.733 61.3516 233.665C61.4978 233.592 61.6786 233.525 61.894 233.464C61.9621 233.612 62.031 233.762 62.1005 233.915C62.1687 234.062 62.2366 234.214 62.3042 234.371C62.1455 234.419 61.9905 234.48 61.8389 234.555C61.686 234.625 61.5423 234.702 61.4077 234.787C61.3381 234.634 61.2683 234.485 61.1982 234.341C61.13 234.193 61.0578 234.041 60.9814 233.884ZM65.9875 237.952C65.9289 238.053 65.7931 238.043 65.5799 237.92L65.5546 237.905C65.3414 237.782 65.2642 237.67 65.3228 237.568C65.6001 237.088 65.7179 236.684 65.6763 236.358C65.6312 236.03 65.4125 235.753 65.0201 235.526C64.8848 235.448 64.7054 235.36 64.482 235.263C64.2571 235.16 64.07 235.086 63.9205 235.04L64.068 234.55C64.7147 234.797 65.2343 234.96 65.6269 235.037C66.0161 235.113 66.3248 235.102 66.553 235.004C66.7797 234.9 66.9741 234.708 67.1362 234.427L67.1392 234.422L67.8039 234.806L67.801 234.811C67.5627 235.224 67.2762 235.478 66.9415 235.573C66.6067 235.668 66.1597 235.622 65.6004 235.435C66.0402 235.806 66.2912 236.188 66.3534 236.58C66.4122 236.97 66.2902 237.428 65.9875 237.952ZM71.1293 229.175C70.6625 229.984 69.9126 230.114 68.8796 229.568C69.2893 229.944 69.5503 230.347 69.6628 230.778C69.7772 231.204 69.7289 231.601 69.5179 231.966C69.0941 232.7 68.3297 232.782 67.2246 232.212C67.6512 232.715 67.9105 233.176 68.0026 233.594C68.0967 234.01 68.0305 234.413 67.8039 234.806C67.7453 234.907 67.6095 234.896 67.3963 234.773L67.371 234.759C67.1578 234.636 67.0806 234.523 67.1392 234.422C67.4107 233.952 67.4587 233.501 67.2833 233.071C67.1098 232.637 66.6727 232.121 65.9718 231.522L66.2745 231.115C66.446 231.232 66.6428 231.364 66.8651 231.51C67.0873 231.656 67.2576 231.764 67.376 231.832C67.7346 232.039 68.0371 232.117 68.2834 232.065C68.5298 232.013 68.7477 231.823 68.9372 231.495C69.0797 231.248 69.1435 231.017 69.1285 230.801C69.1135 230.584 69.0029 230.342 68.7967 230.075C68.5905 229.807 68.271 229.473 67.8382 229.075L68.1223 228.582C68.1909 228.636 68.2889 228.708 68.4164 228.8C68.5425 228.886 68.6737 228.975 68.8099 229.067C68.9447 229.154 69.0594 229.225 69.1542 229.28C69.4755 229.465 69.7311 229.522 69.9209 229.452C70.1072 229.379 70.3127 229.148 70.5373 228.759C70.7288 228.427 70.8026 228.174 70.7588 228C70.7116 227.824 70.5882 227.679 70.3886 227.563C70.2668 227.493 70.0386 227.388 69.7039 227.249C69.3712 227.107 68.9922 226.978 68.5668 226.863L68.6656 226.224C69.5533 226.538 70.2648 226.696 70.8002 226.698C71.3341 226.695 71.7398 226.454 72.0171 225.973L72.0376 225.938L72.7024 226.321L72.6936 226.337C72.4631 226.736 72.134 226.986 71.7062 227.086C71.2803 227.183 70.7705 227.164 70.1766 227.028C70.7381 227.352 71.0842 227.71 71.2147 228.101C71.3472 228.489 71.3187 228.847 71.1293 229.175ZM65.639 227.751C65.616 227.697 65.4878 227.427 65.2545 226.94C65.4204 226.801 65.694 226.675 66.0753 226.562C66.1358 226.691 66.196 226.825 66.2559 226.964C66.3178 227.099 66.3804 227.236 66.4438 227.376C66.1478 227.467 65.8796 227.592 65.639 227.751ZM65.5649 228.899C65.2956 228.982 65.0273 229.107 64.7601 229.273C64.6281 228.994 64.5 228.724 64.3756 228.462C64.556 228.314 64.8296 228.188 65.1964 228.084C65.2833 228.269 65.4061 228.541 65.5649 228.899ZM63.9142 227.797C63.8864 227.736 63.7582 227.466 63.5297 226.986C63.73 226.827 64.0036 226.701 64.3505 226.608C64.4124 226.743 64.4719 226.874 64.5289 227.002C64.588 227.126 64.6513 227.266 64.7189 227.423C64.4497 227.506 64.1814 227.631 63.9142 227.797ZM67.6782 222.731C68.5131 222.378 69.2418 222.12 69.8641 221.956C70.4865 221.792 71.0998 221.691 71.7042 221.652L71.915 221.638C72.5722 221.594 73.113 221.536 73.5372 221.465C73.9635 221.391 74.3004 221.288 74.5481 221.156C74.7944 221.018 74.9819 220.838 75.1109 220.615L75.1138 220.61L75.7785 220.993L75.7756 220.998C75.6096 221.286 75.3106 221.515 74.8786 221.685C74.4486 221.852 73.9142 221.949 73.2755 221.977C73.4649 222.087 73.6313 222.216 73.7745 222.367C73.9144 222.515 74.0146 222.697 74.0751 222.912C74.0081 223.505 73.8439 224.082 73.5827 224.644C73.3181 225.204 73.0315 225.751 72.7229 226.286L72.7024 226.321C72.6438 226.423 72.5079 226.412 72.2948 226.289L72.2694 226.274C72.0563 226.151 71.979 226.039 72.0376 225.938L72.064 225.892C72.1792 225.692 72.3086 225.46 72.4523 225.196C72.5978 224.928 72.7386 224.653 72.8746 224.371C73.0091 224.083 73.1261 223.81 73.2256 223.552C73.3237 223.288 73.3882 223.059 73.4191 222.865C73.4466 222.669 73.4218 222.528 73.3446 222.443C72.7309 222.202 72.08 222.142 71.3919 222.263C70.7024 222.379 69.9026 222.628 68.9924 223.009L68.9298 223.528L67.8679 223.375L67.7963 223.299C67.5821 223.077 67.4285 222.882 67.3352 222.715C67.2439 222.545 67.2019 222.356 67.2091 222.149C67.2129 221.939 67.2565 221.664 67.3399 221.324C67.4219 220.979 67.5285 220.587 67.6599 220.149C67.7931 219.707 67.947 219.257 68.1216 218.799C68.2927 218.338 68.4785 217.911 68.6789 217.517L69.1482 218.052C69.0232 218.268 68.8872 218.566 68.7401 218.946C68.595 219.322 68.4512 219.735 68.3087 220.185C68.1682 220.632 68.0416 221.078 67.9292 221.522C67.8167 221.967 67.7331 222.37 67.6782 222.731ZM78.3475 222.673C78.0782 222.756 77.8099 222.881 77.5427 223.047C77.416 222.766 77.2879 222.496 77.1582 222.236C77.3386 222.088 77.6122 221.962 77.979 221.858C78.0908 222.094 78.2136 222.365 78.3475 222.673ZM78.4216 221.525C78.3055 221.273 78.1773 221.003 78.0371 220.714C78.2375 220.555 78.511 220.428 78.8579 220.336C78.9198 220.47 78.9817 220.605 79.0436 220.74C79.1055 220.875 79.1664 221.012 79.2264 221.15C78.9571 221.234 78.6888 221.359 78.4216 221.525ZM75.7785 220.993C75.7199 221.095 75.5841 221.084 75.3709 220.961L75.3456 220.946C75.1325 220.823 75.0552 220.711 75.1138 220.61L75.1987 220.462C75.4019 220.111 75.5766 219.765 75.723 219.425C75.8713 219.083 75.9474 218.806 75.9513 218.596C75.5877 218.414 75.1582 218.251 74.6627 218.11C74.1638 217.966 73.5794 217.861 72.9097 217.794L72.7204 216.88C73.0027 216.93 73.3267 217.014 73.6924 217.13C74.0568 217.241 74.4073 217.365 74.7439 217.5C75.0805 217.636 75.3486 217.761 75.5482 217.877C75.8459 218.049 76.0595 218.221 76.1891 218.396C76.3187 218.57 76.4382 218.823 76.5476 219.157C76.4877 219.456 76.4046 219.733 76.2983 219.988C76.194 220.239 76.0442 220.533 75.8488 220.872L75.7785 220.993Z" fill="#1F2F37"/>
<path d="M95.6465 242.032L94.6533 241.655L94.7051 240.792L99.035 242.96C99.2881 243.03 99.533 242.973 99.7698 242.789C100.003 242.603 100.221 242.335 100.425 241.983L100.428 241.978L101.092 242.362L101.089 242.367C100.8 242.867 100.505 243.191 100.204 243.337C99.9017 243.479 99.5459 243.501 99.1369 243.405C99.0715 244.057 98.8953 244.632 98.6082 245.129C98.325 245.62 98.0004 245.94 97.6344 246.089C97.267 246.233 96.904 246.202 96.5454 245.995C96.2747 245.839 96.0428 245.592 95.8495 245.255C95.6582 244.914 95.5383 244.478 95.4898 243.944C95.4379 243.409 95.4901 242.772 95.6465 242.032ZM96.1979 242.249C96.0823 242.746 96.0012 243.223 95.9546 243.678C95.9066 244.129 95.93 244.526 96.0249 244.869C96.1164 245.211 96.3144 245.469 96.6189 245.645C96.8016 245.75 96.9815 245.771 97.1586 245.706C97.3323 245.64 97.4969 245.523 97.6522 245.355C97.8094 245.184 97.9467 244.998 98.0639 244.795C98.224 244.517 98.358 244.238 98.4658 243.958C98.5723 243.672 98.6543 243.428 98.7118 243.227C98.3361 243.073 97.9617 242.925 97.5888 242.781C97.2125 242.636 96.7489 242.459 96.1979 242.249ZM102.806 242.675C102.905 242.597 103.027 242.522 103.171 242.452C103.321 242.381 103.503 242.315 103.719 242.254C103.787 242.402 103.854 242.551 103.92 242.702C103.992 242.852 104.061 243.005 104.129 243.161C103.97 243.209 103.813 243.27 103.658 243.343C103.509 243.414 103.367 243.492 103.232 243.577C103.163 243.424 103.093 243.275 103.023 243.131C102.955 242.984 102.882 242.831 102.806 242.675ZM101.095 242.357C101.037 242.458 100.901 242.447 100.688 242.324L100.662 242.31C100.449 242.187 100.372 242.074 100.43 241.973C100.616 241.651 100.74 241.371 100.801 241.131C100.861 240.887 100.849 240.654 100.764 240.434C100.678 240.208 100.511 239.967 100.262 239.71C100.015 239.451 99.6743 239.146 99.2403 238.796L99.5459 238.384C99.7358 238.516 99.914 238.637 100.081 238.747C100.246 238.851 100.396 238.942 100.532 239.02C100.904 239.235 101.264 239.29 101.614 239.185C101.96 239.078 102.263 238.798 102.525 238.345L102.528 238.34L103.193 238.723L103.19 238.728C102.916 239.202 102.581 239.507 102.182 239.642C101.782 239.772 101.307 239.748 100.756 239.569C101.148 239.999 101.378 240.441 101.445 240.894C101.515 241.345 101.398 241.832 101.095 242.357ZM98.1868 234.656C98.2859 234.578 98.4093 234.505 98.5569 234.437C98.7031 234.363 98.8839 234.296 99.0993 234.235C99.1674 234.383 99.2363 234.533 99.3059 234.686C99.374 234.834 99.4419 234.986 99.5095 235.142C99.3509 235.19 99.1958 235.252 99.0443 235.327C98.8913 235.396 98.7476 235.474 98.613 235.558C98.5434 235.405 98.4736 235.257 98.4035 235.113C98.3353 234.965 98.2631 234.813 98.1868 234.656ZM103.193 238.723C103.134 238.825 102.998 238.814 102.785 238.691L102.76 238.676C102.547 238.553 102.469 238.441 102.528 238.34C102.805 237.859 102.923 237.456 102.882 237.13C102.837 236.801 102.618 236.524 102.225 236.297C102.09 236.219 101.911 236.132 101.687 236.034C101.462 235.931 101.275 235.857 101.126 235.811L101.273 235.322C101.92 235.569 102.44 235.731 102.832 235.809C103.221 235.885 103.53 235.874 103.758 235.775C103.985 235.672 104.179 235.479 104.342 235.199L104.344 235.193L105.009 235.577L105.006 235.582C104.768 235.995 104.482 236.249 104.147 236.345C103.812 236.44 103.365 236.394 102.806 236.206C103.246 236.577 103.496 236.959 103.559 237.351C103.618 237.742 103.496 238.199 103.193 238.723ZM108.376 229.875C107.881 230.731 107.118 230.886 106.085 230.339C106.495 230.715 106.756 231.119 106.868 231.549C106.982 231.976 106.934 232.372 106.723 232.737C106.299 233.471 105.535 233.553 104.43 232.983C104.856 233.486 105.116 233.947 105.208 234.366C105.302 234.781 105.236 235.185 105.009 235.577C104.951 235.679 104.815 235.668 104.602 235.545L104.576 235.53C104.363 235.407 104.286 235.295 104.344 235.193C104.616 234.723 104.664 234.273 104.489 233.842C104.315 233.408 103.878 232.892 103.177 232.294L103.48 231.886C103.651 232.003 103.848 232.135 104.07 232.282C104.293 232.428 104.463 232.535 104.581 232.604C104.943 232.813 105.247 232.891 105.494 232.839C105.737 232.786 105.953 232.595 106.142 232.267C106.285 232.02 106.349 231.788 106.334 231.572C106.319 231.356 106.208 231.114 106.002 230.846C105.796 230.578 105.476 230.245 105.043 229.846L105.328 229.354C105.396 229.407 105.494 229.479 105.622 229.571C105.748 229.657 105.879 229.747 106.015 229.839C106.15 229.926 106.265 229.996 106.359 230.051C106.681 230.237 106.935 230.296 107.123 230.228C107.308 230.159 107.512 229.93 107.737 229.54C107.905 229.25 108.004 229.011 108.034 228.826C108.065 228.64 108.04 228.448 107.961 228.249C107.599 228.103 107.242 227.987 106.89 227.901C106.535 227.814 106.184 227.753 105.838 227.72L105.532 226.82C106.273 226.95 107.011 227.227 107.745 227.651C107.847 227.709 107.929 227.766 107.992 227.821C108.057 227.872 108.13 227.954 108.209 228.067C108.289 228.177 108.406 228.35 108.558 228.587C108.651 229.074 108.59 229.503 108.376 229.875ZM102.932 228.37C102.909 228.316 102.781 228.046 102.548 227.559C102.714 227.421 102.987 227.294 103.369 227.181C103.429 227.31 103.489 227.444 103.549 227.583C103.611 227.718 103.674 227.855 103.737 227.996C103.441 228.086 103.173 228.211 102.932 228.37ZM102.858 229.518C102.589 229.602 102.321 229.726 102.053 229.892C101.921 229.613 101.793 229.343 101.669 229.082C101.849 228.933 102.123 228.807 102.49 228.703C102.576 228.889 102.699 229.16 102.858 229.518ZM101.207 228.416C101.18 228.355 101.051 228.085 100.823 227.606C101.023 227.446 101.297 227.32 101.644 227.227C101.706 227.362 101.765 227.493 101.822 227.621C101.881 227.745 101.945 227.886 102.012 228.042C101.743 228.125 101.475 228.25 101.207 228.416ZM113.005 228.232C112.904 228.408 112.779 228.584 112.632 228.761C112.487 228.934 112.35 229.094 112.22 229.24L111.838 228.823C112.462 227.767 112.816 226.88 112.901 226.162C112.989 225.446 112.807 224.825 112.354 224.297C112.224 224.226 112.102 224.167 111.989 224.12C111.88 224.075 111.757 224.027 111.62 223.975C111.502 224.272 111.369 224.574 111.219 224.88C111.072 225.183 110.917 225.474 110.755 225.755C110.454 226.276 110.158 226.601 109.866 226.731C109.575 226.86 109.208 226.797 108.765 226.541C108.251 226.244 107.836 225.908 107.521 225.532C107.207 225.153 107.005 224.781 106.913 224.417C106.82 224.047 106.85 223.729 107.004 223.461C107.2 223.123 107.539 222.899 108.021 222.79C108.502 222.675 109.075 222.688 109.738 222.827C110.399 222.965 111.092 223.244 111.82 223.664C112.405 224.002 112.839 224.422 113.122 224.923C113.408 225.422 113.54 225.958 113.519 226.533C113.499 227.107 113.327 227.674 113.005 228.232ZM110.932 223.76C110.093 223.416 109.369 223.28 108.759 223.351C108.151 223.42 107.737 223.645 107.516 224.028C107.407 224.217 107.383 224.435 107.443 224.682C107.505 224.926 107.638 225.169 107.84 225.412C108.043 225.655 108.301 225.868 108.616 226.049C108.927 226.229 109.191 226.264 109.407 226.155C109.626 226.042 109.869 225.754 110.137 225.29C110.268 225.063 110.406 224.816 110.551 224.548C110.693 224.279 110.82 224.016 110.932 223.76ZM113.003 217.771C113.615 218.124 113.96 218.562 114.037 219.085C114.111 219.606 113.934 220.236 113.506 220.977C113.143 221.606 112.739 222.106 112.295 222.477L111.679 222.033C112.162 221.586 112.559 221.095 112.867 220.561C113.045 220.253 113.185 219.951 113.289 219.654C113.393 219.358 113.454 219.095 113.473 218.867C113.49 218.634 113.456 218.463 113.37 218.354C112.651 218.084 111.959 217.946 111.294 217.941C110.63 217.936 109.913 218.064 109.145 218.324L108.742 217.557C109.731 217.329 110.557 217.234 111.222 217.27C111.885 217.301 112.479 217.468 113.003 217.771Z" fill="#1F2F37"/>
<path d="M131.141 245.767L130.148 245.389L130.199 244.526L134.529 246.695C134.782 246.764 135.027 246.707 135.264 246.523C135.498 246.338 135.716 246.069 135.919 245.717L135.922 245.712L136.587 246.096L136.584 246.101C136.295 246.602 136 246.925 135.699 247.072C135.396 247.213 135.04 247.235 134.631 247.139C134.566 247.791 134.39 248.366 134.103 248.864C133.819 249.354 133.495 249.674 133.129 249.824C132.761 249.968 132.398 249.936 132.04 249.729C131.769 249.573 131.537 249.327 131.344 248.989C131.153 248.649 131.033 248.212 130.984 247.679C130.932 247.144 130.985 246.506 131.141 245.767ZM131.692 245.984C131.577 246.481 131.496 246.957 131.449 247.413C131.401 247.863 131.424 248.26 131.519 248.604C131.611 248.945 131.809 249.204 132.113 249.379C132.296 249.485 132.476 249.505 132.653 249.441C132.827 249.374 132.991 249.257 133.147 249.09C133.304 248.919 133.441 248.732 133.558 248.529C133.718 248.252 133.852 247.973 133.96 247.692C134.067 247.406 134.149 247.163 134.206 246.961C133.83 246.808 133.456 246.659 133.083 246.516C132.707 246.371 132.243 246.193 131.692 245.984ZM138.3 246.409C138.4 246.331 138.521 246.257 138.666 246.187C138.815 246.115 138.998 246.049 139.213 245.989C139.281 246.136 139.348 246.286 139.414 246.437C139.486 246.586 139.556 246.739 139.623 246.895C139.465 246.944 139.308 247.004 139.153 247.077C139.003 247.149 138.861 247.227 138.727 247.311C138.657 247.159 138.587 247.01 138.517 246.866C138.449 246.718 138.377 246.566 138.3 246.409ZM136.59 246.091C136.531 246.193 136.395 246.182 136.182 246.059L136.157 246.044C135.943 245.921 135.866 245.809 135.925 245.707C136.11 245.386 136.234 245.105 136.296 244.866C136.356 244.621 136.343 244.388 136.259 244.168C136.173 243.942 136.005 243.701 135.756 243.445C135.509 243.185 135.169 242.88 134.735 242.53L135.04 242.118C135.23 242.25 135.408 242.371 135.575 242.481C135.74 242.586 135.891 242.677 136.026 242.755C136.398 242.97 136.759 243.025 137.108 242.92C137.454 242.813 137.758 242.532 138.02 242.079L138.022 242.074L138.687 242.458L138.684 242.463C138.411 242.937 138.075 243.241 137.677 243.376C137.277 243.506 136.801 243.482 136.25 243.304C136.643 243.733 136.873 244.175 136.94 244.629C137.009 245.079 136.892 245.567 136.59 246.091ZM133.681 238.39C133.78 238.312 133.904 238.239 134.051 238.171C134.197 238.098 134.378 238.031 134.594 237.97C134.662 238.118 134.731 238.268 134.8 238.421C134.868 238.568 134.936 238.72 135.004 238.877C134.845 238.925 134.69 238.986 134.539 239.061C134.386 239.131 134.242 239.208 134.107 239.293C134.038 239.14 133.968 238.991 133.898 238.847C133.83 238.699 133.757 238.547 133.681 238.39ZM138.687 242.458C138.629 242.559 138.493 242.549 138.28 242.426L138.254 242.411C138.041 242.288 137.964 242.176 138.022 242.074C138.3 241.594 138.418 241.19 138.376 240.864C138.331 240.536 138.112 240.259 137.72 240.032C137.584 239.954 137.405 239.866 137.182 239.769C136.957 239.666 136.77 239.592 136.62 239.546L136.768 239.056C137.414 239.303 137.934 239.466 138.327 239.543C138.716 239.619 139.025 239.608 139.253 239.51C139.479 239.406 139.674 239.214 139.836 238.933L139.839 238.928L140.504 239.312L140.501 239.317C140.262 239.73 139.976 239.984 139.641 240.079C139.306 240.174 138.859 240.128 138.3 239.941C138.74 240.312 138.991 240.694 139.053 241.086C139.112 241.476 138.99 241.934 138.687 242.458ZM143.87 233.61C143.376 234.466 142.612 234.62 141.579 234.074C141.989 234.45 142.25 234.853 142.362 235.284C142.477 235.71 142.429 236.107 142.218 236.472C141.794 237.206 141.029 237.288 139.924 236.718C140.351 237.221 140.61 237.682 140.702 238.1C140.796 238.516 140.73 238.919 140.504 239.312C140.445 239.413 140.309 239.402 140.096 239.279L140.071 239.265C139.858 239.142 139.78 239.029 139.839 238.928C140.11 238.458 140.158 238.007 139.983 237.577C139.81 237.143 139.372 236.627 138.672 236.028L138.974 235.621C139.146 235.738 139.343 235.87 139.565 236.016C139.787 236.162 139.957 236.27 140.076 236.338C140.438 236.547 140.742 236.626 140.988 236.574C141.231 236.52 141.447 236.329 141.637 236.001C141.779 235.754 141.843 235.523 141.828 235.307C141.813 235.09 141.703 234.848 141.496 234.581C141.29 234.313 140.971 233.979 140.538 233.581L140.822 233.088C140.891 233.141 140.989 233.214 141.116 233.306C141.242 233.392 141.373 233.481 141.51 233.573C141.644 233.66 141.759 233.731 141.854 233.786C142.175 233.971 142.43 234.03 142.618 233.963C142.802 233.893 143.007 233.664 143.231 233.275C143.399 232.984 143.498 232.746 143.529 232.56C143.559 232.375 143.535 232.183 143.456 231.984C143.093 231.838 142.736 231.722 142.385 231.636C142.029 231.548 141.679 231.488 141.332 231.455L141.027 230.554C141.768 230.685 142.506 230.962 143.24 231.385C143.341 231.444 143.423 231.501 143.487 231.555C143.552 231.606 143.624 231.688 143.703 231.802C143.784 231.912 143.9 232.085 144.052 232.321C144.146 232.808 144.085 233.238 143.87 233.61ZM138.427 232.105C138.404 232.051 138.275 231.78 138.042 231.294C138.208 231.155 138.482 231.029 138.863 230.915C138.923 231.045 138.984 231.179 139.044 231.317C139.105 231.452 139.168 231.59 139.231 231.73C138.935 231.821 138.667 231.946 138.427 232.105ZM138.352 233.253C138.083 233.336 137.815 233.461 137.548 233.627C137.416 233.348 137.288 233.077 137.163 232.816C137.344 232.668 137.617 232.542 137.984 232.438C138.071 232.623 138.194 232.895 138.352 233.253ZM136.702 232.151C136.674 232.089 136.546 231.819 136.317 231.34C136.518 231.181 136.791 231.054 137.138 230.961C137.2 231.096 137.259 231.228 137.317 231.355C137.376 231.48 137.439 231.62 137.507 231.776C137.237 231.86 136.969 231.985 136.702 232.151ZM142.813 225.55L141.82 225.173L141.871 224.31L146.201 226.478C146.454 226.548 146.699 226.491 146.936 226.307C147.169 226.122 147.388 225.853 147.591 225.501L147.594 225.496L148.259 225.88L148.256 225.885C147.967 226.386 147.671 226.709 147.37 226.856C147.068 226.997 146.712 227.019 146.303 226.923C146.238 227.575 146.062 228.15 145.774 228.647C145.491 229.138 145.167 229.458 144.801 229.607C144.433 229.752 144.07 229.72 143.712 229.513C143.441 229.357 143.209 229.11 143.016 228.773C142.824 228.433 142.705 227.996 142.656 227.463C142.604 226.927 142.656 226.29 142.813 225.55ZM143.364 225.767C143.249 226.264 143.168 226.741 143.121 227.196C143.073 227.647 143.096 228.044 143.191 228.387C143.283 228.729 143.481 228.987 143.785 229.163C143.968 229.269 144.148 229.289 144.325 229.224C144.499 229.158 144.663 229.041 144.818 228.873C144.976 228.703 145.113 228.516 145.23 228.313C145.39 228.035 145.524 227.756 145.632 227.476C145.739 227.19 145.821 226.946 145.878 226.745C145.502 226.591 145.128 226.443 144.755 226.3C144.379 226.155 143.915 225.977 143.364 225.767ZM151.628 220.173C151.134 221.029 150.37 221.183 149.337 220.637C149.747 221.013 150.008 221.416 150.12 221.847C150.235 222.274 150.186 222.67 149.975 223.035C149.552 223.769 148.787 223.851 147.682 223.281C148.109 223.784 148.368 224.245 148.46 224.663C148.554 225.079 148.488 225.482 148.261 225.875C148.203 225.976 148.067 225.966 147.854 225.843L147.828 225.828C147.615 225.705 147.538 225.593 147.597 225.491C147.868 225.021 147.916 224.57 147.741 224.14C147.567 223.706 147.13 223.19 146.429 222.591L146.732 222.184C146.904 222.301 147.1 222.433 147.323 222.579C147.545 222.725 147.715 222.833 147.834 222.901C148.195 223.11 148.5 223.189 148.746 223.137C148.989 223.083 149.205 222.892 149.395 222.564C149.537 222.317 149.601 222.086 149.586 221.87C149.571 221.654 149.46 221.411 149.254 221.144C149.048 220.876 148.729 220.542 148.296 220.144L148.58 219.651C148.648 219.705 148.746 219.777 148.874 219.869C149 219.955 149.131 220.044 149.267 220.136C149.402 220.223 149.517 220.294 149.612 220.349C149.933 220.534 150.188 220.593 150.375 220.526C150.56 220.456 150.764 220.227 150.989 219.838C151.157 219.547 151.256 219.309 151.287 219.124C151.317 218.938 151.293 218.746 151.214 218.547C150.851 218.401 150.494 218.285 150.142 218.199C149.787 218.111 149.436 218.051 149.09 218.018L148.784 217.117C149.526 217.248 150.263 217.525 150.997 217.948C151.099 218.007 151.181 218.064 151.244 218.118C151.31 218.169 151.382 218.252 151.461 218.365C151.542 218.475 151.658 218.648 151.81 218.885C151.903 219.371 151.843 219.801 151.628 220.173Z" fill="#1F2F37"/>
<path d="M166.389 249.928L165.396 249.55L165.448 248.687L169.778 250.856C170.031 250.925 170.276 250.868 170.512 250.684C170.746 250.499 170.964 250.23 171.167 249.878L171.17 249.873L171.835 250.257L171.832 250.262C171.543 250.763 171.248 251.086 170.947 251.233C170.644 251.374 170.289 251.396 169.88 251.3C169.814 251.952 169.638 252.527 169.351 253.025C169.068 253.515 168.743 253.835 168.377 253.985C168.01 254.129 167.647 254.097 167.288 253.89C167.017 253.734 166.785 253.487 166.592 253.15C166.401 252.81 166.281 252.373 166.232 251.84C166.181 251.305 166.233 250.667 166.389 249.928ZM166.941 250.144C166.825 250.642 166.744 251.118 166.697 251.574C166.649 252.024 166.673 252.421 166.768 252.764C166.859 253.106 167.057 253.365 167.362 253.54C167.544 253.646 167.724 253.666 167.901 253.602C168.075 253.535 168.24 253.418 168.395 253.251C168.552 253.08 168.689 252.893 168.807 252.69C168.967 252.413 169.101 252.134 169.209 251.853C169.315 251.567 169.397 251.324 169.455 251.122C169.079 250.968 168.704 250.82 168.331 250.677C167.955 250.532 167.492 250.354 166.941 250.144ZM173.549 250.57C173.648 250.492 173.77 250.418 173.914 250.348C174.063 250.276 174.246 250.21 174.461 250.15C174.529 250.297 174.597 250.447 174.663 250.597C174.734 250.747 174.804 250.9 174.871 251.056C174.713 251.105 174.556 251.165 174.401 251.238C174.252 251.31 174.11 251.388 173.975 251.472C173.905 251.319 173.836 251.171 173.765 251.027C173.697 250.879 173.625 250.727 173.549 250.57ZM171.838 250.252C171.779 250.354 171.643 250.343 171.43 250.22L171.405 250.205C171.192 250.082 171.115 249.97 171.173 249.868C171.359 249.547 171.482 249.266 171.544 249.027C171.604 248.782 171.592 248.549 171.507 248.329C171.421 248.103 171.253 247.862 171.004 247.606C170.757 247.346 170.417 247.041 169.983 246.691L170.289 246.279C170.478 246.411 170.657 246.532 170.823 246.642C170.989 246.746 171.139 246.838 171.274 246.916C171.646 247.131 172.007 247.186 172.356 247.081C172.702 246.974 173.006 246.693 173.268 246.24L173.271 246.235L173.936 246.619L173.933 246.624C173.659 247.097 173.323 247.402 172.925 247.537C172.525 247.667 172.05 247.643 171.499 247.465C171.891 247.894 172.121 248.336 172.188 248.79C172.257 249.24 172.141 249.728 171.838 250.252ZM168.929 242.551C169.029 242.473 169.152 242.4 169.3 242.332C169.446 242.259 169.627 242.191 169.842 242.131C169.91 242.279 169.979 242.429 170.049 242.582C170.117 242.729 170.185 242.881 170.252 243.038C170.094 243.086 169.938 243.147 169.787 243.222C169.634 243.292 169.49 243.369 169.356 243.454C169.286 243.301 169.216 243.152 169.146 243.008C169.078 242.86 169.006 242.708 168.929 242.551ZM173.936 246.619C173.877 246.72 173.741 246.71 173.528 246.586L173.503 246.572C173.289 246.449 173.212 246.337 173.271 246.235C173.548 245.755 173.666 245.351 173.624 245.025C173.579 244.697 173.36 244.419 172.968 244.193C172.833 244.115 172.653 244.027 172.43 243.93C172.205 243.827 172.018 243.753 171.868 243.707L172.016 243.217C172.663 243.464 173.182 243.626 173.575 243.704C173.964 243.78 174.273 243.769 174.501 243.671C174.728 243.567 174.922 243.375 175.084 243.094L175.087 243.089L175.752 243.473L175.749 243.478C175.511 243.89 175.224 244.145 174.889 244.24C174.555 244.335 174.108 244.289 173.548 244.102C173.988 244.473 174.239 244.855 174.301 245.247C174.36 245.637 174.238 246.094 173.936 246.619ZM179.118 237.771C178.624 238.627 177.861 238.781 176.828 238.235C177.237 238.611 177.498 239.014 177.611 239.444C177.725 239.871 177.677 240.267 177.466 240.633C177.042 241.367 176.278 241.449 175.173 240.878C175.599 241.382 175.858 241.843 175.951 242.261C176.045 242.676 175.978 243.08 175.752 243.473C175.693 243.574 175.557 243.563 175.344 243.44L175.319 243.426C175.106 243.303 175.029 243.19 175.087 243.089C175.359 242.619 175.407 242.168 175.231 241.738C175.058 241.304 174.621 240.788 173.92 240.189L174.223 239.782C174.394 239.899 174.591 240.031 174.813 240.177C175.035 240.323 175.206 240.431 175.324 240.499C175.686 240.708 175.99 240.787 176.237 240.735C176.479 240.681 176.696 240.49 176.885 240.162C177.028 239.915 177.092 239.684 177.076 239.468C177.061 239.251 176.951 239.009 176.745 238.741C176.538 238.474 176.219 238.14 175.786 237.742L176.07 237.249C176.139 237.302 176.237 237.375 176.364 237.466C176.491 237.553 176.622 237.642 176.758 237.734C176.893 237.821 177.007 237.892 177.102 237.947C177.424 238.132 177.678 238.191 177.866 238.124C178.05 238.054 178.255 237.825 178.479 237.436C178.647 237.145 178.747 236.907 178.777 236.721C178.807 236.536 178.783 236.344 178.704 236.145C178.342 235.999 177.985 235.883 177.633 235.797C177.278 235.709 176.927 235.649 176.581 235.616L176.275 234.715C177.016 234.845 177.754 235.123 178.488 235.546C178.589 235.605 178.672 235.662 178.735 235.716C178.8 235.767 178.872 235.849 178.951 235.963C179.032 236.073 179.149 236.246 179.301 236.482C179.394 236.969 179.333 237.399 179.118 237.771ZM173.675 236.265C173.652 236.212 173.524 235.941 173.29 235.455C173.456 235.316 173.73 235.19 174.111 235.076C174.172 235.206 174.232 235.34 174.292 235.478C174.354 235.613 174.416 235.751 174.48 235.891C174.184 235.982 173.915 236.107 173.675 236.265ZM173.601 237.413C173.331 237.497 173.063 237.622 172.796 237.788C172.664 237.509 172.536 237.238 172.412 236.977C172.592 236.829 172.866 236.703 173.232 236.599C173.319 236.784 173.442 237.056 173.601 237.413ZM171.95 236.312C171.922 236.25 171.794 235.98 171.566 235.501C171.766 235.341 172.04 235.215 172.386 235.122C172.448 235.257 172.508 235.389 172.565 235.516C172.624 235.641 172.687 235.781 172.755 235.937C172.486 236.021 172.217 236.146 171.95 236.312ZM181.919 233.705C182.413 233.99 182.779 234.336 183.017 234.745C183.26 235.151 183.383 235.572 183.385 236.006C183.39 236.442 183.284 236.849 183.065 237.228C182.979 237.377 182.872 237.532 182.743 237.692C182.618 237.854 182.496 238.007 182.377 238.15L181.995 237.734C182.255 237.243 182.45 236.778 182.578 236.338C182.707 235.894 182.738 235.479 182.668 235.091C182.602 234.706 182.409 234.353 182.089 234.033C181.661 233.844 181.164 233.713 180.597 233.639C180.033 233.561 179.342 233.547 178.523 233.598L178.223 232.829C178.711 232.827 179.16 232.851 179.568 232.902C179.973 232.951 180.364 233.039 180.741 233.167C181.121 233.291 181.513 233.47 181.919 233.705ZM174.926 227.326L181.284 230.997C181.518 230.997 181.753 230.918 181.988 230.761C182.223 230.603 182.467 230.307 182.719 229.87L182.722 229.865L183.387 230.249L183.384 230.254C183.177 230.613 182.942 230.906 182.68 231.133C182.418 231.361 182.125 231.489 181.801 231.519C181.477 231.548 181.117 231.449 180.722 231.22L178.433 229.899C177.777 229.52 177.165 229.194 176.597 228.92C176.027 228.641 175.499 228.41 175.013 228.229L174.926 227.326ZM180.515 225.296C181.094 224.935 181.593 224.739 182.013 224.706C182.43 224.672 182.835 224.768 183.227 224.994C184.039 225.463 184.505 226.046 184.626 226.743C184.747 227.439 184.539 228.253 184.002 229.183C184.255 229.253 184.63 229.248 185.126 229.169C185.626 229.093 186.188 228.921 186.811 228.654C186.405 227.864 186.098 227.225 185.889 226.734C185.681 226.244 185.562 225.844 185.533 225.534C185.507 225.221 185.564 224.943 185.704 224.699L185.707 224.694L186.372 225.078L186.278 225.24C186.206 225.366 186.164 225.504 186.154 225.656C186.145 225.804 186.175 225.993 186.246 226.223C186.319 226.455 186.44 226.746 186.608 227.095C186.781 227.443 187.012 227.879 187.301 228.402C187.378 228.37 187.467 228.326 187.566 228.271C187.669 228.218 187.77 228.161 187.868 228.1L188.257 228.798C187.487 229.224 186.744 229.492 186.027 229.601C185.312 229.707 184.585 229.658 183.847 229.452L183.387 230.249C183.328 230.35 183.192 230.34 182.979 230.217L182.954 230.202C182.741 230.079 182.663 229.967 182.722 229.865L183.123 229.17C182.216 228.687 181.542 228.108 181.101 227.434C180.657 226.758 180.462 226.046 180.515 225.296ZM181.122 225.863C181.079 226.163 181.153 226.501 181.342 226.876C181.528 227.25 181.794 227.613 182.14 227.966C182.487 228.32 182.874 228.618 183.302 228.86L183.449 228.607C183.851 227.91 184.037 227.294 184.008 226.758C183.978 226.217 183.753 225.826 183.333 225.584C183.13 225.466 182.893 225.404 182.623 225.396C182.354 225.386 182.086 225.42 181.818 225.5C181.551 225.581 181.319 225.701 181.122 225.863ZM183.33 220.737C183.43 220.565 183.575 220.392 183.766 220.217C183.953 220.041 184.249 219.806 184.653 219.512C185.105 219.182 185.481 218.887 185.78 218.627C186.081 218.363 186.335 218.108 186.54 217.861C186.744 217.609 186.93 217.338 187.098 217.047L187.963 218.033C187.872 218.418 187.788 218.832 187.713 219.276C187.637 219.719 187.595 220.198 187.587 220.712C187.587 221.564 187.491 222.319 187.301 222.976C187.113 223.63 186.881 224.197 186.603 224.677L186.375 225.073C186.316 225.175 186.181 225.164 185.967 225.041L185.942 225.026C185.729 224.903 185.652 224.791 185.71 224.689L185.778 224.573C186.063 224.079 186.304 223.532 186.501 222.933C186.7 222.331 186.856 221.634 186.97 220.843C187.084 220.052 187.16 219.128 187.197 218.071C186.977 218.328 186.763 218.561 186.556 218.771C186.35 218.98 186.122 219.192 185.873 219.404C185.624 219.617 185.324 219.859 184.973 220.13C184.627 220.394 184.376 220.606 184.221 220.765C184.066 220.923 183.958 221.057 183.895 221.165C183.809 221.314 183.774 221.456 183.791 221.592C183.807 221.728 183.887 221.882 184.031 222.055C184.176 222.225 184.399 222.441 184.698 222.704L184.413 223.081C183.808 222.574 183.424 222.149 183.261 221.807C183.094 221.463 183.117 221.106 183.33 220.737ZM191.481 224.245C191.24 224.31 190.972 224.435 190.676 224.62C190.544 224.341 190.416 224.07 190.291 223.809C190.482 223.658 190.756 223.532 191.112 223.431C191.282 223.8 191.405 224.071 191.481 224.245ZM189.818 224.348C189.549 224.431 189.28 224.556 189.013 224.722C188.887 224.442 188.758 224.171 188.629 223.912C188.809 223.763 189.083 223.637 189.45 223.533C189.561 223.769 189.684 224.04 189.818 224.348ZM189.892 223.2C189.705 222.798 189.576 222.528 189.508 222.389C189.708 222.23 189.982 222.104 190.328 222.011C190.442 222.243 190.565 222.515 190.697 222.825C190.428 222.909 190.159 223.034 189.892 223.2Z" fill="#1F2F37"/>
<path d="M205.991 246.548L204.998 246.171L205.05 245.308L209.379 247.476C209.633 247.546 209.878 247.489 210.114 247.305C210.348 247.12 210.566 246.851 210.769 246.499L210.772 246.494L211.437 246.878L211.434 246.883C211.145 247.384 210.85 247.707 210.549 247.854C210.246 247.995 209.89 248.017 209.481 247.921C209.416 248.573 209.24 249.148 208.953 249.645C208.669 250.136 208.345 250.456 207.979 250.605C207.611 250.75 207.248 250.718 206.89 250.511C206.619 250.355 206.387 250.108 206.194 249.771C206.003 249.431 205.883 248.994 205.834 248.461C205.782 247.925 205.835 247.288 205.991 246.548ZM206.542 246.765C206.427 247.262 206.346 247.739 206.299 248.194C206.251 248.645 206.275 249.042 206.369 249.385C206.461 249.727 206.659 249.985 206.963 250.161C207.146 250.267 207.326 250.287 207.503 250.222C207.677 250.156 207.841 250.039 207.997 249.871C208.154 249.701 208.291 249.514 208.408 249.311C208.568 249.033 208.702 248.754 208.81 248.474C208.917 248.188 208.999 247.944 209.056 247.743C208.681 247.589 208.306 247.441 207.933 247.298C207.557 247.152 207.093 246.975 206.542 246.765ZM213.151 247.191C213.25 247.113 213.371 247.039 213.516 246.968C213.665 246.897 213.848 246.831 214.063 246.77C214.131 246.918 214.198 247.067 214.265 247.218C214.336 247.368 214.406 247.521 214.473 247.677C214.315 247.725 214.158 247.786 214.003 247.859C213.853 247.93 213.711 248.008 213.577 248.093C213.507 247.94 213.437 247.792 213.367 247.647C213.299 247.5 213.227 247.348 213.151 247.191ZM211.44 246.873C211.381 246.974 211.245 246.963 211.032 246.84L211.007 246.826C210.794 246.703 210.716 246.59 210.775 246.489C210.96 246.168 211.084 245.887 211.146 245.648C211.206 245.403 211.194 245.17 211.109 244.95C211.023 244.724 210.855 244.483 210.606 244.227C210.359 243.967 210.019 243.662 209.585 243.312L209.89 242.9C210.08 243.032 210.258 243.153 210.425 243.263C210.59 243.367 210.741 243.458 210.876 243.537C211.248 243.751 211.609 243.806 211.958 243.701C212.304 243.594 212.608 243.314 212.87 242.861L212.873 242.856L213.537 243.24L213.534 243.245C213.261 243.718 212.925 244.023 212.527 244.158C212.127 244.288 211.651 244.264 211.1 244.086C211.493 244.515 211.723 244.957 211.79 245.411C211.859 245.861 211.742 246.348 211.44 246.873ZM208.531 239.172C208.63 239.094 208.754 239.021 208.901 238.953C209.048 238.879 209.228 238.812 209.444 238.752C209.512 238.899 209.581 239.049 209.65 239.202C209.718 239.35 209.786 239.502 209.854 239.658C209.695 239.707 209.54 239.768 209.389 239.843C209.236 239.913 209.092 239.99 208.957 240.074C208.888 239.921 208.818 239.773 208.748 239.629C208.68 239.481 208.608 239.329 208.531 239.172ZM213.537 243.24C213.479 243.341 213.343 243.33 213.13 243.207L213.104 243.193C212.891 243.069 212.814 242.957 212.873 242.856C213.15 242.375 213.268 241.972 213.226 241.646C213.181 241.318 212.962 241.04 212.57 240.814C212.435 240.735 212.255 240.648 212.032 240.55C211.807 240.448 211.62 240.373 211.47 240.328L211.618 239.838C212.264 240.085 212.784 240.247 213.177 240.325C213.566 240.401 213.875 240.39 214.103 240.291C214.33 240.188 214.524 239.995 214.686 239.715L214.689 239.71L215.354 240.093L215.351 240.098C215.113 240.511 214.826 240.765 214.491 240.861C214.157 240.956 213.71 240.91 213.15 240.722C213.59 241.094 213.841 241.475 213.903 241.868C213.962 242.258 213.84 242.715 213.537 243.24ZM218.679 234.463C218.212 235.271 217.462 235.402 216.429 234.855C216.839 235.232 217.1 235.635 217.213 236.065C217.327 236.492 217.279 236.888 217.068 237.254C216.644 237.988 215.879 238.07 214.774 237.499C215.201 238.003 215.46 238.463 215.552 238.882C215.647 239.297 215.58 239.701 215.354 240.093C215.295 240.195 215.159 240.184 214.946 240.061L214.921 240.046C214.708 239.923 214.63 239.811 214.689 239.71C214.96 239.239 215.008 238.789 214.833 238.358C214.66 237.925 214.222 237.408 213.522 236.81L213.824 236.403C213.996 236.52 214.193 236.651 214.415 236.798C214.637 236.944 214.807 237.051 214.926 237.12C215.284 237.327 215.587 237.404 215.833 237.353C216.08 237.301 216.298 237.111 216.487 236.783C216.63 236.536 216.693 236.304 216.678 236.088C216.663 235.872 216.553 235.63 216.346 235.362C216.14 235.094 215.821 234.761 215.388 234.362L215.672 233.87C215.741 233.923 215.839 233.996 215.966 234.087C216.092 234.173 216.223 234.263 216.36 234.355C216.494 234.442 216.609 234.513 216.704 234.567C217.025 234.753 217.281 234.81 217.471 234.739C217.657 234.666 217.863 234.436 218.087 234.046C218.279 233.715 218.352 233.462 218.309 233.288C218.261 233.112 218.138 232.966 217.938 232.851C217.817 232.781 217.588 232.676 217.254 232.537C216.921 232.394 216.542 232.266 216.117 232.151L216.215 231.511C217.103 231.825 217.815 231.983 218.35 231.986C218.884 231.983 219.29 231.741 219.567 231.261L219.587 231.225L220.252 231.609L220.243 231.624C220.013 232.023 219.684 232.273 219.256 232.374C218.83 232.47 218.32 232.451 217.726 232.316C218.288 232.64 218.634 232.998 218.765 233.389C218.897 233.777 218.869 234.134 218.679 234.463ZM213.189 233.038C213.166 232.985 213.038 232.714 212.804 232.228C212.97 232.089 213.244 231.963 213.625 231.849C213.686 231.979 213.746 232.113 213.806 232.251C213.868 232.386 213.93 232.524 213.994 232.664C213.698 232.755 213.429 232.88 213.189 233.038ZM213.115 234.186C212.845 234.27 212.577 234.395 212.31 234.561C212.178 234.282 212.05 234.011 211.925 233.75C212.106 233.602 212.379 233.475 212.746 233.371C212.833 233.557 212.956 233.829 213.115 234.186ZM211.464 233.085C211.436 233.023 211.308 232.753 211.08 232.274C211.28 232.114 211.553 231.988 211.9 231.895C211.962 232.03 212.022 232.162 212.079 232.289C212.138 232.414 212.201 232.554 212.269 232.71C211.999 232.794 211.731 232.919 211.464 233.085ZM217.207 227.273C217.307 227.101 217.452 226.928 217.643 226.754C217.83 226.577 218.126 226.342 218.53 226.048C218.983 225.718 219.358 225.423 219.657 225.163C219.958 224.899 220.212 224.644 220.417 224.397C220.621 224.145 220.807 223.874 220.975 223.583L221.84 224.569C221.765 224.824 221.701 225.084 221.646 225.35L222.532 225.632C222.698 225.565 222.836 225.462 222.947 225.324C223.061 225.182 223.19 224.985 223.334 224.735L223.619 224.243L224.283 224.627L223.894 225.302C223.704 225.63 223.466 225.855 223.179 225.978C222.893 226.097 222.61 226.119 222.329 226.043L221.565 225.831C221.534 226.034 221.51 226.259 221.493 226.507C221.475 226.749 221.465 226.996 221.464 227.248C221.464 228.1 221.369 228.855 221.179 229.512C220.991 230.166 220.758 230.733 220.481 231.213L220.252 231.609C220.194 231.711 220.058 231.7 219.845 231.577L219.819 231.562C219.606 231.439 219.529 231.327 219.587 231.225L219.655 231.109C219.94 230.615 220.181 230.068 220.378 229.469C220.577 228.867 220.733 228.17 220.847 227.379C220.961 226.588 221.037 225.664 221.074 224.607C220.854 224.864 220.64 225.097 220.434 225.307C220.227 225.516 219.999 225.728 219.75 225.94C219.501 226.153 219.201 226.395 218.85 226.666C218.504 226.93 218.253 227.142 218.098 227.301C217.944 227.459 217.835 227.593 217.772 227.701C217.686 227.85 217.652 227.992 217.668 228.128C217.684 228.264 217.764 228.418 217.908 228.591C218.054 228.761 218.276 228.977 218.575 229.24L218.29 229.617C217.685 229.11 217.301 228.685 217.138 228.343C216.971 227.999 216.994 227.642 217.207 227.273ZM223.398 229.535C223.497 229.457 223.619 229.383 223.763 229.313C223.913 229.241 224.095 229.175 224.311 229.115C224.379 229.262 224.446 229.412 224.512 229.563C224.584 229.712 224.653 229.865 224.721 230.021C224.562 230.07 224.405 230.13 224.251 230.203C224.101 230.275 223.959 230.353 223.824 230.437C223.755 230.284 223.685 230.136 223.615 229.992C223.547 229.844 223.474 229.692 223.398 229.535ZM219.261 220.13C219.36 220.052 219.484 219.979 219.631 219.911C219.777 219.838 219.958 219.771 220.174 219.71C220.242 219.858 220.311 220.008 220.38 220.161C220.448 220.308 220.516 220.46 220.584 220.617C220.425 220.665 220.27 220.726 220.119 220.801C219.966 220.871 219.822 220.948 219.687 221.033C219.618 220.88 219.548 220.731 219.478 220.587C219.41 220.439 219.337 220.287 219.261 220.13ZM224.283 224.627C224.225 224.728 224.089 224.717 223.876 224.594L223.85 224.58C223.637 224.457 223.56 224.344 223.619 224.243C223.804 223.922 223.928 223.641 223.989 223.402C224.05 223.157 224.037 222.924 223.953 222.704C223.866 222.478 223.699 222.237 223.45 221.98C223.203 221.721 222.863 221.416 222.429 221.066L222.734 220.654C222.924 220.786 223.102 220.907 223.269 221.017C223.434 221.121 223.584 221.212 223.72 221.291C224.092 221.505 224.453 221.56 224.802 221.455C225.148 221.348 225.452 221.068 225.713 220.615L225.716 220.61L226.381 220.993L226.378 220.999C226.105 221.472 225.769 221.777 225.37 221.912C224.971 222.042 224.495 222.018 223.944 221.84C224.337 222.269 224.566 222.711 224.634 223.165C224.703 223.615 224.586 224.102 224.283 224.627ZM230.72 222.619C230.48 222.683 230.212 222.808 229.915 222.993C229.783 222.714 229.655 222.444 229.531 222.183C229.722 222.031 229.995 221.905 230.351 221.804C230.522 222.173 230.645 222.445 230.72 222.619ZM229.057 222.721C228.788 222.805 228.52 222.93 228.253 223.096C228.126 222.815 227.998 222.545 227.868 222.285C228.049 222.137 228.322 222.01 228.689 221.906C228.801 222.142 228.924 222.414 229.057 222.721ZM229.131 221.573C228.944 221.172 228.816 220.902 228.747 220.763C228.947 220.603 229.221 220.477 229.568 220.384C229.682 220.617 229.804 220.888 229.936 221.199C229.667 221.283 229.399 221.407 229.131 221.573ZM226.381 220.993C226.322 221.095 226.187 221.084 225.973 220.961L225.948 220.946C225.735 220.823 225.658 220.711 225.716 220.61L225.801 220.463C226.004 220.111 226.179 219.765 226.326 219.426C226.474 219.083 226.55 218.806 226.554 218.597C226.19 218.414 225.761 218.252 225.265 218.11C224.766 217.966 224.182 217.861 223.512 217.795L223.323 216.88C223.605 216.93 223.929 217.014 224.295 217.13C224.659 217.241 225.01 217.365 225.346 217.5C225.683 217.636 225.951 217.762 226.151 217.877C226.448 218.049 226.662 218.222 226.792 218.396C226.921 218.57 227.041 218.824 227.15 219.157C227.09 219.457 227.007 219.733 226.901 219.988C226.797 220.239 226.647 220.533 226.451 220.872L226.381 220.993Z" fill="#1F2F37"/>
<path d="M249.355 236.653L248.361 236.276L248.413 235.413L252.743 237.581C252.996 237.651 253.241 237.594 253.478 237.41C253.711 237.224 253.929 236.956 254.133 236.604L254.136 236.599L254.8 236.983L254.797 236.988C254.508 237.488 254.213 237.812 253.912 237.958C253.61 238.1 253.254 238.122 252.845 238.026C252.78 238.678 252.603 239.253 252.316 239.75C252.033 240.241 251.708 240.561 251.342 240.71C250.975 240.854 250.612 240.823 250.253 240.616C249.983 240.46 249.751 240.213 249.558 239.876C249.366 239.535 249.246 239.099 249.198 238.565C249.146 238.03 249.198 237.393 249.355 236.653ZM249.906 236.87C249.79 237.367 249.709 237.844 249.663 238.299C249.615 238.75 249.638 239.147 249.733 239.49C249.824 239.832 250.022 240.09 250.327 240.266C250.51 240.371 250.689 240.392 250.867 240.327C251.04 240.261 251.205 240.144 251.36 239.976C251.517 239.805 251.655 239.619 251.772 239.416C251.932 239.138 252.066 238.859 252.174 238.579C252.28 238.293 252.362 238.049 252.42 237.848C252.044 237.694 251.67 237.546 251.297 237.402C250.92 237.257 250.457 237.08 249.906 236.87ZM252.152 231.82C252.484 231.245 252.891 230.872 253.374 230.699C253.853 230.525 254.335 230.578 254.819 230.857C255.164 231.056 255.416 231.357 255.576 231.761C255.734 232.159 255.835 232.605 255.879 233.099C256.022 233.006 256.2 232.82 256.411 232.541C256.619 232.259 256.883 231.841 257.203 231.286L257.206 231.281L257.871 231.665L257.868 231.67C257.514 232.282 257.177 232.741 256.856 233.048C256.533 233.349 256.218 233.57 255.91 233.713C255.903 233.998 255.869 234.296 255.807 234.607C255.746 234.915 255.637 235.26 255.479 235.643C255.323 236.022 255.098 236.467 254.803 236.978C254.745 237.079 254.609 237.068 254.396 236.945L254.37 236.931C254.157 236.808 254.08 236.695 254.138 236.594C254.582 235.826 254.902 235.237 255.098 234.827C255.292 234.412 255.413 234.1 255.461 233.893C255.16 233.945 254.826 234.032 254.458 234.153C254.089 234.269 253.723 234.403 253.36 234.555C252.998 234.706 252.68 234.859 252.406 235.012C252.127 234.792 251.93 234.509 251.814 234.163C251.7 233.813 251.671 233.435 251.725 233.028C251.781 232.619 251.923 232.216 252.152 231.82ZM252.757 232.143C252.525 232.545 252.368 232.926 252.287 233.285C252.202 233.643 252.187 234.013 252.241 234.396C252.485 234.262 252.785 234.13 253.139 234.001C253.493 233.871 253.869 233.748 254.266 233.63C254.66 233.51 255.045 233.403 255.42 233.308C255.373 232.771 255.287 232.323 255.162 231.962C255.033 231.599 254.864 231.357 254.654 231.235C254.468 231.128 254.257 231.099 254.022 231.148C253.788 231.193 253.557 231.304 253.33 231.479C253.104 231.651 252.913 231.872 252.757 232.143ZM256.159 226.157C256.548 225.484 257.169 225.231 258.023 225.4C258.636 225.519 259.129 225.578 259.504 225.578C259.878 225.578 260.178 225.507 260.404 225.367C260.631 225.223 260.833 224.999 261.009 224.694L261.011 224.689L261.676 225.073L261.673 225.078C261.556 225.281 261.419 225.457 261.261 225.605C261.105 225.749 260.903 225.858 260.653 225.931C260.401 226.001 260.073 226.03 259.669 226.019C259.821 226.106 259.985 226.221 260.16 226.363C260.243 226.713 260.255 227.058 260.198 227.4C260.143 227.737 260.03 228.054 259.86 228.348C259.682 228.656 259.452 228.929 259.17 229.168C258.885 229.404 258.559 229.59 258.192 229.726L257.7 229.3C257.877 229.501 258.021 229.709 258.133 229.922C258.243 230.13 258.286 230.371 258.262 230.646C258.236 230.919 258.106 231.257 257.873 231.66C257.815 231.761 257.679 231.75 257.466 231.627L257.441 231.613C257.227 231.49 257.15 231.377 257.209 231.276C257.404 230.938 257.487 230.611 257.457 230.296C257.426 229.981 257.329 229.674 257.163 229.375C256.997 229.076 256.81 228.784 256.601 228.496C256.451 228.288 256.307 228.065 256.169 227.827C256.031 227.59 255.949 227.333 255.924 227.056C255.897 226.775 255.975 226.475 256.159 226.157ZM256.71 226.597C256.587 226.81 256.538 227.035 256.564 227.271C256.593 227.503 256.667 227.738 256.787 227.975C256.908 228.211 257.053 228.439 257.224 228.66C257.391 228.878 257.555 229.078 257.716 229.261C257.981 229.207 258.258 229.045 258.546 228.773C258.832 228.496 259.072 228.189 259.268 227.85C259.391 227.637 259.491 227.417 259.567 227.191C259.644 226.965 259.67 226.747 259.646 226.539C259.42 226.423 259.168 226.316 258.89 226.219C258.615 226.118 258.337 226.052 258.057 226.022C257.777 225.991 257.518 226.017 257.28 226.101C257.043 226.185 256.853 226.35 256.71 226.597ZM258.631 220.738C258.731 220.565 258.876 220.392 259.067 220.218C259.254 220.042 259.55 219.806 259.955 219.512C260.407 219.182 260.782 218.887 261.081 218.627C261.382 218.363 261.636 218.108 261.841 217.861C262.045 217.609 262.232 217.338 262.399 217.047L263.264 218.033C263.173 218.418 263.089 218.832 263.014 219.276C262.938 219.719 262.896 220.198 262.888 220.712C262.888 221.564 262.793 222.319 262.603 222.976C262.415 223.63 262.182 224.197 261.905 224.677L261.676 225.073C261.618 225.175 261.482 225.164 261.269 225.041L261.243 225.026C261.03 224.903 260.953 224.791 261.011 224.689L261.079 224.573C261.364 224.079 261.605 223.532 261.802 222.933C262.001 222.331 262.157 221.634 262.271 220.843C262.385 220.052 262.461 219.128 262.498 218.071C262.278 218.328 262.064 218.561 261.858 218.771C261.651 218.981 261.423 219.192 261.174 219.404C260.925 219.617 260.625 219.859 260.274 220.13C259.928 220.394 259.677 220.606 259.522 220.765C259.368 220.923 259.259 221.057 259.196 221.165C259.111 221.314 259.076 221.456 259.092 221.592C259.108 221.728 259.188 221.882 259.332 222.055C259.478 222.225 259.7 222.441 259.999 222.704L259.714 223.081C259.109 222.574 258.725 222.149 258.562 221.807C258.395 221.463 258.419 221.106 258.631 220.738ZM264.822 222.999C264.921 222.921 265.043 222.847 265.187 222.777C265.337 222.705 265.519 222.639 265.735 222.579C265.803 222.726 265.87 222.876 265.936 223.027C266.008 223.176 266.077 223.329 266.145 223.485C265.986 223.534 265.83 223.594 265.675 223.667C265.525 223.739 265.383 223.817 265.248 223.902C265.179 223.749 265.109 223.6 265.039 223.456C264.971 223.308 264.899 223.156 264.822 222.999Z" fill="#1F2F37"/>
<path d="M9.30664 181.006C10.2559 181.705 11.0273 182.385 11.6211 183.045C12.2148 183.705 12.6504 184.367 12.9277 185.031C13.2051 185.695 13.3438 186.385 13.3438 187.1C13.3438 187.658 13.2695 188.162 13.1211 188.611C12.9766 189.061 12.7695 189.418 12.5 189.684C12.2305 189.945 11.9062 190.076 11.5273 190.076C11.1992 190.076 10.9258 189.984 10.707 189.801C10.4883 189.613 10.3047 189.32 10.1562 188.922C10.0117 189.266 9.8125 189.535 9.55859 189.73C9.30469 189.926 9.00781 190.023 8.66797 190.023C8.25 190.023 7.9043 189.838 7.63086 189.467C7.35742 189.096 7.2207 188.598 7.2207 187.973C7.2207 187.055 7.43164 186.125 7.85352 185.184C8.2793 184.242 8.9043 183.258 9.72852 182.23C9.37305 181.988 9.09375 181.811 8.89062 181.697L9.30664 181.006ZM10.1328 182.482C9.31641 183.463 8.71094 184.385 8.31641 185.248C7.92188 186.111 7.72461 186.984 7.72461 187.867C7.72461 188.348 7.81055 188.703 7.98242 188.934C8.1543 189.164 8.39844 189.279 8.71484 189.279C9.07031 189.279 9.34766 189.168 9.54688 188.945C9.75 188.723 9.90234 188.387 10.0039 187.938L10.5312 187.949C10.5703 188.371 10.6621 188.705 10.8066 188.951C10.9551 189.193 11.2051 189.314 11.5566 189.314C11.9785 189.314 12.293 189.119 12.5 188.729C12.707 188.338 12.8105 187.826 12.8105 187.193C12.8105 186.381 12.5859 185.572 12.1367 184.768C11.6914 183.963 11.0234 183.201 10.1328 182.482Z" fill="black"/>
<path d="M6.66406 140.211C7.08594 141.098 7.43555 141.975 7.71289 142.842C7.99414 143.705 8.20508 144.598 8.3457 145.52C8.48633 146.441 8.55859 147.432 8.5625 148.49L8.32812 149H8.14648C8.08398 147.418 7.89844 145.951 7.58984 144.6C7.28516 143.244 6.8418 142.004 6.25977 140.879L6.50586 140.211H6.66406ZM10.2266 145.203C10.2266 144.93 10.2949 144.68 10.4316 144.453C10.5684 144.227 10.75 144.045 10.9766 143.908C11.2031 143.771 11.4531 143.703 11.7266 143.703C12 143.703 12.25 143.771 12.4766 143.908C12.7031 144.045 12.8848 144.227 13.0215 144.453C13.1582 144.68 13.2266 144.93 13.2266 145.203C13.2266 145.477 13.1582 145.727 13.0215 145.953C12.8848 146.18 12.7031 146.361 12.4766 146.498C12.25 146.635 12 146.703 11.7266 146.703C11.4531 146.703 11.2031 146.635 10.9766 146.498C10.75 146.361 10.5684 146.18 10.4316 145.953C10.2949 145.727 10.2266 145.477 10.2266 145.203ZM10.6543 145.203C10.6543 145.441 10.7539 145.648 10.9531 145.824C11.1562 145.996 11.4141 146.082 11.7266 146.082C12.0391 146.082 12.293 145.996 12.4883 145.824C12.6875 145.648 12.7871 145.441 12.7871 145.203C12.7871 144.965 12.6875 144.76 12.4883 144.588C12.293 144.412 12.0391 144.324 11.7266 144.324C11.4141 144.324 11.1562 144.412 10.9531 144.588C10.7539 144.76 10.6543 144.965 10.6543 145.203Z" fill="black"/>
<path d="M3.79297 99.2109C4.21484 100.098 4.56445 100.975 4.8418 101.842C5.12305 102.705 5.33398 103.598 5.47461 104.52C5.61523 105.441 5.6875 106.432 5.69141 107.49L5.45703 108H5.27539C5.21289 106.418 5.02734 104.951 4.71875 103.6C4.41406 102.244 3.9707 101.004 3.38867 99.8789L3.63477 99.2109H3.79297ZM9.30664 99.0059C10.2559 99.7051 11.0273 100.385 11.6211 101.045C12.2148 101.705 12.6504 102.367 12.9277 103.031C13.2051 103.695 13.3438 104.385 13.3438 105.1C13.3438 105.658 13.2695 106.162 13.1211 106.611C12.9766 107.061 12.7695 107.418 12.5 107.684C12.2305 107.945 11.9062 108.076 11.5273 108.076C11.1992 108.076 10.9258 107.984 10.707 107.801C10.4883 107.613 10.3047 107.32 10.1562 106.922C10.0117 107.266 9.8125 107.535 9.55859 107.73C9.30469 107.926 9.00781 108.023 8.66797 108.023C8.25 108.023 7.9043 107.838 7.63086 107.467C7.35742 107.096 7.2207 106.598 7.2207 105.973C7.2207 105.055 7.43164 104.125 7.85352 103.184C8.2793 102.242 8.9043 101.258 9.72852 100.23C9.37305 99.9883 9.09375 99.8105 8.89062 99.6973L9.30664 99.0059ZM10.1328 100.482C9.31641 101.463 8.71094 102.385 8.31641 103.248C7.92188 104.111 7.72461 104.984 7.72461 105.867C7.72461 106.348 7.81055 106.703 7.98242 106.934C8.1543 107.164 8.39844 107.279 8.71484 107.279C9.07031 107.279 9.34766 107.168 9.54688 106.945C9.75 106.723 9.90234 106.387 10.0039 105.938L10.5312 105.949C10.5703 106.371 10.6621 106.705 10.8066 106.951C10.9551 107.193 11.2051 107.314 11.5566 107.314C11.9785 107.314 12.293 107.119 12.5 106.729C12.707 106.338 12.8105 105.826 12.8105 105.193C12.8105 104.381 12.5859 103.572 12.1367 102.768C11.6914 101.963 11.0234 101.201 10.1328 100.482Z" fill="black"/>
<path d="M8.10547 58.1582L8.5625 58.3105C8.48828 58.8496 8.30859 59.3066 8.02344 59.6816C7.73828 60.0527 7.39453 60.3203 6.99219 60.4844C6.59375 60.6484 6.17969 60.6914 5.75 60.6133C5.32422 60.5312 4.93164 60.3086 4.57227 59.9453C4.83008 60.4375 5.05078 61.043 5.23438 61.7617C5.42188 62.4766 5.56641 63.2441 5.66797 64.0645C5.76953 64.8809 5.82031 65.6895 5.82031 66.4902L5.58594 67H5.4043C5.3418 65.3828 5.1543 63.9004 4.8418 62.5527C4.5332 61.2012 4.0918 59.9766 3.51758 58.8789L3.76367 58.2109H3.92188C4.25 58.6875 4.53516 59.0586 4.77734 59.3242C5.01953 59.5859 5.25 59.7695 5.46875 59.875C5.69141 59.9766 5.92969 60.0273 6.18359 60.0273C6.625 60.0273 7.00781 59.8789 7.33203 59.582C7.65625 59.2812 7.91406 58.8066 8.10547 58.1582ZM10.2266 63.2031C10.2266 62.9297 10.2949 62.6797 10.4316 62.4531C10.5684 62.2266 10.75 62.0449 10.9766 61.9082C11.2031 61.7715 11.4531 61.7031 11.7266 61.7031C12 61.7031 12.25 61.7715 12.4766 61.9082C12.7031 62.0449 12.8848 62.2266 13.0215 62.4531C13.1582 62.6797 13.2266 62.9297 13.2266 63.2031C13.2266 63.4766 13.1582 63.7266 13.0215 63.9531C12.8848 64.1797 12.7031 64.3613 12.4766 64.498C12.25 64.6348 12 64.7031 11.7266 64.7031C11.4531 64.7031 11.2031 64.6348 10.9766 64.498C10.75 64.3613 10.5684 64.1797 10.4316 63.9531C10.2949 63.7266 10.2266 63.4766 10.2266 63.2031ZM10.6543 63.2031C10.6543 63.4414 10.7539 63.6484 10.9531 63.8242C11.1562 63.9961 11.4141 64.082 11.7266 64.082C12.0391 64.082 12.293 63.9961 12.4883 63.8242C12.6875 63.6484 12.7871 63.4414 12.7871 63.2031C12.7871 62.9648 12.6875 62.7598 12.4883 62.5879C12.293 62.4121 12.0391 62.3242 11.7266 62.3242C11.4141 62.3242 11.1562 62.4121 10.9531 62.5879C10.7539 62.7598 10.6543 62.9648 10.6543 63.2031Z" fill="black"/>
<path d="M5.23438 17.1582L5.69141 17.3105C5.61719 17.8496 5.4375 18.3066 5.15234 18.6816C4.86719 19.0527 4.52344 19.3203 4.12109 19.4844C3.72266 19.6484 3.30859 19.6914 2.87891 19.6133C2.45312 19.5312 2.06055 19.3086 1.70117 18.9453C1.95898 19.4375 2.17969 20.043 2.36328 20.7617C2.55078 21.4766 2.69531 22.2441 2.79688 23.0645C2.89844 23.8809 2.94922 24.6895 2.94922 25.4902L2.71484 26H2.5332C2.4707 24.3828 2.2832 22.9004 1.9707 21.5527C1.66211 20.2012 1.2207 18.9766 0.646484 17.8789L0.892578 17.2109H1.05078C1.37891 17.6875 1.66406 18.0586 1.90625 18.3242C2.14844 18.5859 2.37891 18.7695 2.59766 18.875C2.82031 18.9766 3.05859 19.0273 3.3125 19.0273C3.75391 19.0273 4.13672 18.8789 4.46094 18.582C4.78516 18.2812 5.04297 17.8066 5.23438 17.1582ZM9.30664 17.0059C10.2559 17.7051 11.0273 18.3848 11.6211 19.0449C12.2148 19.7051 12.6504 20.3672 12.9277 21.0312C13.2051 21.6953 13.3438 22.3848 13.3438 23.0996C13.3438 23.6582 13.2695 24.1621 13.1211 24.6113C12.9766 25.0605 12.7695 25.418 12.5 25.6836C12.2305 25.9453 11.9062 26.0762 11.5273 26.0762C11.1992 26.0762 10.9258 25.9844 10.707 25.8008C10.4883 25.6133 10.3047 25.3203 10.1562 24.9219C10.0117 25.2656 9.8125 25.5352 9.55859 25.7305C9.30469 25.9258 9.00781 26.0234 8.66797 26.0234C8.25 26.0234 7.9043 25.8379 7.63086 25.4668C7.35742 25.0957 7.2207 24.5977 7.2207 23.9727C7.2207 23.0547 7.43164 22.125 7.85352 21.1836C8.2793 20.2422 8.9043 19.2578 9.72852 18.2305C9.37305 17.9883 9.09375 17.8105 8.89062 17.6973L9.30664 17.0059ZM10.1328 18.4824C9.31641 19.4629 8.71094 20.3848 8.31641 21.248C7.92188 22.1113 7.72461 22.9844 7.72461 23.8672C7.72461 24.3477 7.81055 24.7031 7.98242 24.9336C8.1543 25.1641 8.39844 25.2793 8.71484 25.2793C9.07031 25.2793 9.34766 25.168 9.54688 24.9453C9.75 24.7227 9.90234 24.3867 10.0039 23.9375L10.5312 23.9492C10.5703 24.3711 10.6621 24.7051 10.8066 24.9512C10.9551 25.1934 11.2051 25.3145 11.5566 25.3145C11.9785 25.3145 12.293 25.1191 12.5 24.7285C12.707 24.3379 12.8105 23.8262 12.8105 23.1934C12.8105 22.3809 12.5859 21.5723 12.1367 20.7676C11.6914 19.9629 11.0234 19.2012 10.1328 18.4824Z" fill="black"/>
<path opacity="0.5" d="M67.5 81L34 121V209H258V71.5L217.5 51L179 81L139 141L107.5 104.5L67.5 81Z" fill="url(#paint0_linear_571_6480)"/>
<path d="M34 121L67.5 81L107.5 104.5L139 141L179 81L217.5 51L258 71.5" stroke="#0BAEDD"/>
<defs>
<linearGradient id="paint0_linear_571_6480" x1="146" y1="51" x2="146" y2="209" gradientUnits="userSpaceOnUse">
<stop stop-color="#0BAEDD"/>
<stop offset="1" stop-color="#0BAEDD" stop-opacity="0"/>
</linearGradient>
</defs>
</svg>
