<svg width="172" height="194" viewBox="0 0 172 194" fill="none" xmlns="http://www.w3.org/2000/svg">
<rect x="151.5" y="170.5" width="20" height="20" rx="5.5" stroke="#81A2B1"/>
<rect opacity="0.5" x="77.5" y="171.5" width="20" height="20" rx="5.5" fill="#0BAEDD" stroke="#81A2B1"/>
<path d="M75.6973 9.24805C75.9395 9.24805 76.1914 9.32422 76.4531 9.47656C76.7188 9.62891 76.9668 9.83203 77.1973 10.0859C77.4277 10.3359 77.6133 10.6152 77.7539 10.9238C77.8984 11.2324 77.9707 11.543 77.9707 11.8555C77.9707 11.8828 77.9688 11.9121 77.9648 11.9434C77.9648 11.9746 77.9629 12.0059 77.959 12.0371C78.127 12.2168 78.2832 12.3457 78.4277 12.4238C78.5723 12.498 78.7461 12.5352 78.9492 12.5352H79.084V14H78.9961C78.6758 14 78.3965 13.9316 78.1582 13.7949C77.9199 13.6582 77.7031 13.4492 77.5078 13.168C77.4219 13.3359 77.3301 13.5176 77.2324 13.7129C77.1387 13.9043 77.0488 14.0742 76.9629 14.2227C76.3223 14.1484 75.7168 14.0918 75.1465 14.0527C74.5762 14.0176 74.123 14 73.7871 14C73.5605 14 73.3535 14.0059 73.166 14.0176C72.9824 14.0332 72.8066 14.0547 72.6387 14.082L72.8613 18.5469L71.7832 19.0039L71.6777 14.5215C71.6621 13.9238 71.8184 13.4648 72.1465 13.1445C72.4746 12.8203 72.9375 12.627 73.5352 12.5645L73.2188 12.4238C73.3984 11.8613 73.6211 11.3398 73.8867 10.8594C74.1523 10.375 74.4414 9.98633 74.7539 9.69336C75.0703 9.39648 75.3848 9.24805 75.6973 9.24805ZM75.6152 10.4785C75.3027 10.4785 75.0195 10.6484 74.7656 10.9883C74.5156 11.3242 74.2637 11.8398 74.0098 12.5352C74.2168 12.5352 74.4824 12.543 74.8066 12.5586C75.1348 12.5742 75.4844 12.5957 75.8555 12.623C76.2266 12.6504 76.5801 12.6797 76.916 12.7109C77.002 12.4062 77.0195 12.1211 76.9688 11.8555C76.918 11.5859 76.8223 11.3477 76.6816 11.1406C76.541 10.9336 76.375 10.7715 76.1836 10.6543C75.9961 10.5371 75.8066 10.4785 75.6152 10.4785ZM79.0078 7.97656C79.2383 7.66797 79.4629 7.34766 79.6816 7.01562C79.9707 7.12891 80.291 7.35742 80.6426 7.70117C80.5293 7.86523 80.4141 8.02539 80.2969 8.18164C80.1836 8.33398 80.0703 8.49023 79.957 8.65039C79.6992 8.41211 79.3828 8.1875 79.0078 7.97656ZM80.9473 7.97656C81.2637 7.52734 81.4863 7.20703 81.6152 7.01562C81.9199 7.13281 82.2422 7.36133 82.582 7.70117C82.4688 7.86133 82.3535 8.01953 82.2363 8.17578C82.123 8.33203 82.0098 8.49023 81.8965 8.65039C81.6934 8.45898 81.377 8.23438 80.9473 7.97656ZM79.0898 14C78.9492 14 78.8789 13.8633 78.8789 13.5898V12.9453C78.8789 12.6719 78.9492 12.5352 79.0898 12.5352C79.4688 12.5352 79.7754 12.5 80.0098 12.4297C80.248 12.3594 80.4395 12.2363 80.584 12.0605C80.7285 11.8809 80.8457 11.6289 80.9355 11.3047C81.0254 10.9805 81.1133 10.5664 81.1992 10.0625L82.1016 10.1738C82.0742 10.3887 82.0527 10.5898 82.0371 10.7773C82.0215 10.9648 82.0137 11.1348 82.0137 11.2871C82.0137 11.666 82.127 11.9688 82.3535 12.1953C82.584 12.4219 82.9492 12.5352 83.4492 12.5352H83.4551V14H83.4492C82.8633 14 82.4082 13.875 82.084 13.625C81.7637 13.375 81.5312 12.9805 81.3867 12.4414C81.1992 12.9727 80.9141 13.3652 80.5312 13.6191C80.1484 13.873 79.668 14 79.0898 14ZM82.2656 16.4902C82.4961 16.1816 82.7207 15.8613 82.9395 15.5293C83.2285 15.6426 83.5488 15.8711 83.9004 16.2148C83.7871 16.3789 83.6719 16.5371 83.5547 16.6895C83.4414 16.8457 83.3281 17.0039 83.2148 17.1641C82.957 16.9258 82.6406 16.7012 82.2656 16.4902ZM84.2051 16.4902C84.5215 16.041 84.7441 15.7207 84.873 15.5293C85.1777 15.6465 85.5 15.875 85.8398 16.2148C85.7266 16.375 85.6113 16.5332 85.4941 16.6895C85.3809 16.8457 85.2676 17.0039 85.1543 17.1641C84.9512 16.9727 84.6348 16.748 84.2051 16.4902ZM83.4609 14C83.3203 14 83.25 13.8633 83.25 13.5898V12.9453C83.25 12.6719 83.3203 12.5352 83.4609 12.5352H83.8008C84.1367 12.5352 84.4531 12.5176 84.75 12.4824C85.0508 12.4434 85.2871 12.3809 85.459 12.2949C85.373 11.5293 85.0859 10.6484 84.5977 9.65234L85.7168 8.58594C85.8457 8.85156 85.9648 9.16602 86.0742 9.5293C86.1875 9.89258 86.2773 10.2637 86.3438 10.6426C86.4141 11.0215 86.4492 11.3672 86.4492 11.6797C86.4492 12.0547 86.3926 12.3945 86.2793 12.6992C86.166 13.0039 85.9883 13.3203 85.7461 13.6484C85.4297 13.7773 85.1055 13.8691 84.7734 13.9238C84.4453 13.9746 84.0625 14 83.625 14H83.4609ZM88.002 2.12305C88.1426 2.12305 88.2969 2.14844 88.4648 2.19922C88.6367 2.24609 88.8105 2.29883 88.9863 2.35742C89.1582 2.41211 89.3281 2.46289 89.4961 2.50977C89.6641 2.55664 89.8145 2.58008 89.9473 2.58008C90.1777 2.58008 90.375 2.51758 90.5391 2.39258C90.7031 2.26758 90.8594 2.0625 91.0078 1.77734L91.6523 2.04102C91.4609 2.54492 91.2168 2.96094 90.9199 3.28906C90.627 3.61719 90.2188 3.78125 89.6953 3.78125C89.5234 3.78125 89.3496 3.75781 89.1738 3.71094C89.002 3.66016 88.834 3.60547 88.6699 3.54688C88.5137 3.49219 88.3613 3.44531 88.2129 3.40625C88.0645 3.36328 87.9219 3.3418 87.7852 3.3418C87.5938 3.3418 87.4277 3.4043 87.2871 3.5293C87.1465 3.6543 87.0137 3.85937 86.8887 4.14453L86.2324 3.875C86.3535 3.55469 86.4902 3.26172 86.6426 2.99609C86.791 2.73047 86.9746 2.51953 87.1934 2.36328C87.4121 2.20313 87.6816 2.12305 88.002 2.12305ZM89.4023 5.03516C89.4805 5.44141 89.5527 5.89453 89.6191 6.39453C89.6895 6.89453 89.75 7.40625 89.8008 7.92969C89.8516 8.45312 89.8906 8.95898 89.918 9.44727C89.9453 9.93164 89.959 10.3652 89.959 10.748C89.959 11.5918 89.8789 12.2949 89.7188 12.8574C89.5625 13.416 89.2988 13.8301 88.9277 14.0996L88.3125 13.7246C88.4648 13.3926 88.5762 13.043 88.6465 12.6758C88.7207 12.3047 88.7578 11.8281 88.7578 11.2461C88.7578 10.5039 88.707 9.67969 88.6055 8.77344C88.5039 7.86719 88.3555 6.9375 88.1602 5.98438L89.4023 5.03516Z" fill="#777765"/>
<path d="M4.69727 80.248C4.93945 80.248 5.19141 80.3242 5.45312 80.4766C5.71875 80.6289 5.9668 80.832 6.19727 81.0859C6.42773 81.3359 6.61328 81.6152 6.75391 81.9238C6.89844 82.2324 6.9707 82.543 6.9707 82.8555C6.9707 82.8828 6.96875 82.9121 6.96484 82.9434C6.96484 82.9746 6.96289 83.0059 6.95898 83.0371C7.12695 83.2168 7.2832 83.3457 7.42773 83.4238C7.57227 83.498 7.74609 83.5352 7.94922 83.5352H8.08398V85H7.99609C7.67578 85 7.39648 84.9316 7.1582 84.7949C6.91992 84.6582 6.70312 84.4492 6.50781 84.168C6.42188 84.3359 6.33008 84.5176 6.23242 84.7129C6.13867 84.9043 6.04883 85.0742 5.96289 85.2227C5.32227 85.1484 4.7168 85.0918 4.14648 85.0527C3.57617 85.0176 3.12305 85 2.78711 85C2.56055 85 2.35352 85.0059 2.16602 85.0176C1.98242 85.0332 1.80664 85.0547 1.63867 85.082L1.86133 89.5469L0.783203 90.0039L0.677734 85.5215C0.662109 84.9238 0.818359 84.4648 1.14648 84.1445C1.47461 83.8203 1.9375 83.627 2.53516 83.5645L2.21875 83.4238C2.39844 82.8613 2.62109 82.3398 2.88672 81.8594C3.15234 81.375 3.44141 80.9863 3.75391 80.6934C4.07031 80.3965 4.38477 80.248 4.69727 80.248ZM4.61523 81.4785C4.30273 81.4785 4.01953 81.6484 3.76562 81.9883C3.51562 82.3242 3.26367 82.8398 3.00977 83.5352C3.2168 83.5352 3.48242 83.543 3.80664 83.5586C4.13477 83.5742 4.48438 83.5957 4.85547 83.623C5.22656 83.6504 5.58008 83.6797 5.91602 83.7109C6.00195 83.4062 6.01953 83.1211 5.96875 82.8555C5.91797 82.5859 5.82227 82.3477 5.68164 82.1406C5.54102 81.9336 5.375 81.7715 5.18359 81.6543C4.99609 81.5371 4.80664 81.4785 4.61523 81.4785ZM8.00781 78.9766C8.23828 78.668 8.46289 78.3477 8.68164 78.0156C8.9707 78.1289 9.29102 78.3574 9.64258 78.7012C9.5293 78.8652 9.41406 79.0254 9.29688 79.1816C9.18359 79.334 9.07031 79.4902 8.95703 79.6504C8.69922 79.4121 8.38281 79.1875 8.00781 78.9766ZM9.94727 78.9766C10.2637 78.5273 10.4863 78.207 10.6152 78.0156C10.9199 78.1328 11.2422 78.3613 11.582 78.7012C11.4688 78.8613 11.3535 79.0195 11.2363 79.1758C11.123 79.332 11.0098 79.4902 10.8965 79.6504C10.6934 79.459 10.377 79.2344 9.94727 78.9766ZM8.08984 85C7.94922 85 7.87891 84.8633 7.87891 84.5898V83.9453C7.87891 83.6719 7.94922 83.5352 8.08984 83.5352C8.46875 83.5352 8.77539 83.5 9.00977 83.4297C9.24805 83.3594 9.43945 83.2363 9.58398 83.0605C9.72852 82.8809 9.8457 82.6289 9.93555 82.3047C10.0254 81.9805 10.1133 81.5664 10.1992 81.0625L11.1016 81.1738C11.0742 81.3887 11.0527 81.5898 11.0371 81.7773C11.0215 81.9648 11.0137 82.1348 11.0137 82.2871C11.0137 82.666 11.127 82.9688 11.3535 83.1953C11.584 83.4219 11.9492 83.5352 12.4492 83.5352H12.4551V85H12.4492C11.8633 85 11.4082 84.875 11.084 84.625C10.7637 84.375 10.5312 83.9805 10.3867 83.4414C10.1992 83.9727 9.91406 84.3652 9.53125 84.6191C9.14844 84.873 8.66797 85 8.08984 85ZM11.2656 87.4902C11.4961 87.1816 11.7207 86.8613 11.9395 86.5293C12.2285 86.6426 12.5488 86.8711 12.9004 87.2148C12.7871 87.3789 12.6719 87.5371 12.5547 87.6895C12.4414 87.8457 12.3281 88.0039 12.2148 88.1641C11.957 87.9258 11.6406 87.7012 11.2656 87.4902ZM13.2051 87.4902C13.5215 87.041 13.7441 86.7207 13.873 86.5293C14.1777 86.6465 14.5 86.875 14.8398 87.2148C14.7266 87.375 14.6113 87.5332 14.4941 87.6895C14.3809 87.8457 14.2676 88.0039 14.1543 88.1641C13.9512 87.9727 13.6348 87.748 13.2051 87.4902ZM12.4609 85C12.3203 85 12.25 84.8633 12.25 84.5898V83.9453C12.25 83.6719 12.3203 83.5352 12.4609 83.5352H12.8008C13.1367 83.5352 13.4531 83.5176 13.75 83.4824C14.0508 83.4434 14.2871 83.3809 14.459 83.2949C14.373 82.5293 14.0859 81.6484 13.5977 80.6523L14.7168 79.5859C14.8457 79.8516 14.9648 80.166 15.0742 80.5293C15.1875 80.8926 15.2773 81.2637 15.3438 81.6426C15.4141 82.0215 15.4492 82.3672 15.4492 82.6797C15.4492 83.0547 15.3926 83.3945 15.2793 83.6992C15.166 84.0039 14.9883 84.3203 14.7461 84.6484C14.4297 84.7773 14.1055 84.8691 13.7734 84.9238C13.4453 84.9746 13.0625 85 12.625 85H12.4609ZM17.002 73.123C17.1426 73.123 17.2969 73.1484 17.4648 73.1992C17.6367 73.2461 17.8105 73.2988 17.9863 73.3574C18.1582 73.4121 18.3281 73.4629 18.4961 73.5098C18.6641 73.5566 18.8145 73.5801 18.9473 73.5801C19.1777 73.5801 19.375 73.5176 19.5391 73.3926C19.7031 73.2676 19.8594 73.0625 20.0078 72.7773L20.6523 73.041C20.4609 73.5449 20.2168 73.9609 19.9199 74.2891C19.627 74.6172 19.2188 74.7812 18.6953 74.7812C18.5234 74.7812 18.3496 74.7578 18.1738 74.7109C18.002 74.6602 17.834 74.6055 17.6699 74.5469C17.5137 74.4922 17.3613 74.4453 17.2129 74.4062C17.0645 74.3633 16.9219 74.3418 16.7852 74.3418C16.5938 74.3418 16.4277 74.4043 16.2871 74.5293C16.1465 74.6543 16.0137 74.8594 15.8887 75.1445L15.2324 74.875C15.3535 74.5547 15.4902 74.2617 15.6426 73.9961C15.791 73.7305 15.9746 73.5195 16.1934 73.3633C16.4121 73.2031 16.6816 73.123 17.002 73.123ZM18.4023 76.0352C18.4805 76.4414 18.5527 76.8945 18.6191 77.3945C18.6895 77.8945 18.75 78.4062 18.8008 78.9297C18.8516 79.4531 18.8906 79.959 18.918 80.4473C18.9453 80.9316 18.959 81.3652 18.959 81.748C18.959 82.5918 18.8789 83.2949 18.7188 83.8574C18.5625 84.416 18.2988 84.8301 17.9277 85.0996L17.3125 84.7246C17.4648 84.3926 17.5762 84.043 17.6465 83.6758C17.7207 83.3047 17.7578 82.8281 17.7578 82.2461C17.7578 81.5039 17.707 80.6797 17.6055 79.7734C17.5039 78.8672 17.3555 77.9375 17.1602 76.9844L18.4023 76.0352Z" fill="#777765"/>
<path d="M75.6973 149.248C75.9395 149.248 76.1914 149.324 76.4531 149.477C76.7188 149.629 76.9668 149.832 77.1973 150.086C77.4277 150.336 77.6133 150.615 77.7539 150.924C77.8984 151.232 77.9707 151.543 77.9707 151.855C77.9707 151.883 77.9688 151.912 77.9648 151.943C77.9648 151.975 77.9629 152.006 77.959 152.037C78.127 152.217 78.2832 152.346 78.4277 152.424C78.5723 152.498 78.7461 152.535 78.9492 152.535H79.084V154H78.9961C78.6758 154 78.3965 153.932 78.1582 153.795C77.9199 153.658 77.7031 153.449 77.5078 153.168C77.4219 153.336 77.3301 153.518 77.2324 153.713C77.1387 153.904 77.0488 154.074 76.9629 154.223C76.3223 154.148 75.7168 154.092 75.1465 154.053C74.5762 154.018 74.123 154 73.7871 154C73.5605 154 73.3535 154.006 73.166 154.018C72.9824 154.033 72.8066 154.055 72.6387 154.082L72.8613 158.547L71.7832 159.004L71.6777 154.521C71.6621 153.924 71.8184 153.465 72.1465 153.145C72.4746 152.82 72.9375 152.627 73.5352 152.564L73.2188 152.424C73.3984 151.861 73.6211 151.34 73.8867 150.859C74.1523 150.375 74.4414 149.986 74.7539 149.693C75.0703 149.396 75.3848 149.248 75.6973 149.248ZM75.6152 150.479C75.3027 150.479 75.0195 150.648 74.7656 150.988C74.5156 151.324 74.2637 151.84 74.0098 152.535C74.2168 152.535 74.4824 152.543 74.8066 152.559C75.1348 152.574 75.4844 152.596 75.8555 152.623C76.2266 152.65 76.5801 152.68 76.916 152.711C77.002 152.406 77.0195 152.121 76.9688 151.855C76.918 151.586 76.8223 151.348 76.6816 151.141C76.541 150.934 76.375 150.771 76.1836 150.654C75.9961 150.537 75.8066 150.479 75.6152 150.479ZM79.0078 147.977C79.2383 147.668 79.4629 147.348 79.6816 147.016C79.9707 147.129 80.291 147.357 80.6426 147.701C80.5293 147.865 80.4141 148.025 80.2969 148.182C80.1836 148.334 80.0703 148.49 79.957 148.65C79.6992 148.412 79.3828 148.188 79.0078 147.977ZM80.9473 147.977C81.2637 147.527 81.4863 147.207 81.6152 147.016C81.9199 147.133 82.2422 147.361 82.582 147.701C82.4688 147.861 82.3535 148.02 82.2363 148.176C82.123 148.332 82.0098 148.49 81.8965 148.65C81.6934 148.459 81.377 148.234 80.9473 147.977ZM79.0898 154C78.9492 154 78.8789 153.863 78.8789 153.59V152.945C78.8789 152.672 78.9492 152.535 79.0898 152.535C79.4688 152.535 79.7754 152.5 80.0098 152.43C80.248 152.359 80.4395 152.236 80.584 152.061C80.7285 151.881 80.8457 151.629 80.9355 151.305C81.0254 150.98 81.1133 150.566 81.1992 150.062L82.1016 150.174C82.0742 150.389 82.0527 150.59 82.0371 150.777C82.0215 150.965 82.0137 151.135 82.0137 151.287C82.0137 151.666 82.127 151.969 82.3535 152.195C82.584 152.422 82.9492 152.535 83.4492 152.535H83.4551V154H83.4492C82.8633 154 82.4082 153.875 82.084 153.625C81.7637 153.375 81.5312 152.98 81.3867 152.441C81.1992 152.973 80.9141 153.365 80.5312 153.619C80.1484 153.873 79.668 154 79.0898 154ZM82.2656 156.49C82.4961 156.182 82.7207 155.861 82.9395 155.529C83.2285 155.643 83.5488 155.871 83.9004 156.215C83.7871 156.379 83.6719 156.537 83.5547 156.689C83.4414 156.846 83.3281 157.004 83.2148 157.164C82.957 156.926 82.6406 156.701 82.2656 156.49ZM84.2051 156.49C84.5215 156.041 84.7441 155.721 84.873 155.529C85.1777 155.646 85.5 155.875 85.8398 156.215C85.7266 156.375 85.6113 156.533 85.4941 156.689C85.3809 156.846 85.2676 157.004 85.1543 157.164C84.9512 156.973 84.6348 156.748 84.2051 156.49ZM83.4609 154C83.3203 154 83.25 153.863 83.25 153.59V152.945C83.25 152.672 83.3203 152.535 83.4609 152.535H83.8008C84.1367 152.535 84.4531 152.518 84.75 152.482C85.0508 152.443 85.2871 152.381 85.459 152.295C85.373 151.529 85.0859 150.648 84.5977 149.652L85.7168 148.586C85.8457 148.852 85.9648 149.166 86.0742 149.529C86.1875 149.893 86.2773 150.264 86.3438 150.643C86.4141 151.021 86.4492 151.367 86.4492 151.68C86.4492 152.055 86.3926 152.395 86.2793 152.699C86.166 153.004 85.9883 153.32 85.7461 153.648C85.4297 153.777 85.1055 153.869 84.7734 153.924C84.4453 153.975 84.0625 154 83.625 154H83.4609ZM88.002 142.123C88.1426 142.123 88.2969 142.148 88.4648 142.199C88.6367 142.246 88.8105 142.299 88.9863 142.357C89.1582 142.412 89.3281 142.463 89.4961 142.51C89.6641 142.557 89.8145 142.58 89.9473 142.58C90.1777 142.58 90.375 142.518 90.5391 142.393C90.7031 142.268 90.8594 142.062 91.0078 141.777L91.6523 142.041C91.4609 142.545 91.2168 142.961 90.9199 143.289C90.627 143.617 90.2188 143.781 89.6953 143.781C89.5234 143.781 89.3496 143.758 89.1738 143.711C89.002 143.66 88.834 143.605 88.6699 143.547C88.5137 143.492 88.3613 143.445 88.2129 143.406C88.0645 143.363 87.9219 143.342 87.7852 143.342C87.5938 143.342 87.4277 143.404 87.2871 143.529C87.1465 143.654 87.0137 143.859 86.8887 144.145L86.2324 143.875C86.3535 143.555 86.4902 143.262 86.6426 142.996C86.791 142.73 86.9746 142.52 87.1934 142.363C87.4121 142.203 87.6816 142.123 88.002 142.123ZM89.4023 145.035C89.4805 145.441 89.5527 145.895 89.6191 146.395C89.6895 146.895 89.75 147.406 89.8008 147.93C89.8516 148.453 89.8906 148.959 89.918 149.447C89.9453 149.932 89.959 150.365 89.959 150.748C89.959 151.592 89.8789 152.295 89.7188 152.857C89.5625 153.416 89.2988 153.83 88.9277 154.1L88.3125 153.725C88.4648 153.393 88.5762 153.043 88.6465 152.676C88.7207 152.305 88.7578 151.828 88.7578 151.246C88.7578 150.504 88.707 149.68 88.6055 148.773C88.5039 147.867 88.3555 146.938 88.1602 145.984L89.4023 145.035Z" fill="#777765"/>
<path d="M145.697 76.248C145.939 76.248 146.191 76.3242 146.453 76.4766C146.719 76.6289 146.967 76.832 147.197 77.0859C147.428 77.3359 147.613 77.6152 147.754 77.9238C147.898 78.2324 147.971 78.543 147.971 78.8555C147.971 78.8828 147.969 78.9121 147.965 78.9434C147.965 78.9746 147.963 79.0059 147.959 79.0371C148.127 79.2168 148.283 79.3457 148.428 79.4238C148.572 79.498 148.746 79.5352 148.949 79.5352H149.084V81H148.996C148.676 81 148.396 80.9316 148.158 80.7949C147.92 80.6582 147.703 80.4492 147.508 80.168C147.422 80.3359 147.33 80.5176 147.232 80.7129C147.139 80.9043 147.049 81.0742 146.963 81.2227C146.322 81.1484 145.717 81.0918 145.146 81.0527C144.576 81.0176 144.123 81 143.787 81C143.561 81 143.354 81.0059 143.166 81.0176C142.982 81.0332 142.807 81.0547 142.639 81.082L142.861 85.5469L141.783 86.0039L141.678 81.5215C141.662 80.9238 141.818 80.4648 142.146 80.1445C142.475 79.8203 142.938 79.627 143.535 79.5645L143.219 79.4238C143.398 78.8613 143.621 78.3398 143.887 77.8594C144.152 77.375 144.441 76.9863 144.754 76.6934C145.07 76.3965 145.385 76.248 145.697 76.248ZM145.615 77.4785C145.303 77.4785 145.02 77.6484 144.766 77.9883C144.516 78.3242 144.264 78.8398 144.01 79.5352C144.217 79.5352 144.482 79.543 144.807 79.5586C145.135 79.5742 145.484 79.5957 145.855 79.623C146.227 79.6504 146.58 79.6797 146.916 79.7109C147.002 79.4062 147.02 79.1211 146.969 78.8555C146.918 78.5859 146.822 78.3477 146.682 78.1406C146.541 77.9336 146.375 77.7715 146.184 77.6543C145.996 77.5371 145.807 77.4785 145.615 77.4785ZM149.008 74.9766C149.238 74.668 149.463 74.3477 149.682 74.0156C149.971 74.1289 150.291 74.3574 150.643 74.7012C150.529 74.8652 150.414 75.0254 150.297 75.1816C150.184 75.334 150.07 75.4902 149.957 75.6504C149.699 75.4121 149.383 75.1875 149.008 74.9766ZM150.947 74.9766C151.264 74.5273 151.486 74.207 151.615 74.0156C151.92 74.1328 152.242 74.3613 152.582 74.7012C152.469 74.8613 152.354 75.0195 152.236 75.1758C152.123 75.332 152.01 75.4902 151.896 75.6504C151.693 75.459 151.377 75.2344 150.947 74.9766ZM149.09 81C148.949 81 148.879 80.8633 148.879 80.5898V79.9453C148.879 79.6719 148.949 79.5352 149.09 79.5352C149.469 79.5352 149.775 79.5 150.01 79.4297C150.248 79.3594 150.439 79.2363 150.584 79.0605C150.729 78.8809 150.846 78.6289 150.936 78.3047C151.025 77.9805 151.113 77.5664 151.199 77.0625L152.102 77.1738C152.074 77.3887 152.053 77.5898 152.037 77.7773C152.021 77.9648 152.014 78.1348 152.014 78.2871C152.014 78.666 152.127 78.9688 152.354 79.1953C152.584 79.4219 152.949 79.5352 153.449 79.5352H153.455V81H153.449C152.863 81 152.408 80.875 152.084 80.625C151.764 80.375 151.531 79.9805 151.387 79.4414C151.199 79.9727 150.914 80.3652 150.531 80.6191C150.148 80.873 149.668 81 149.09 81ZM152.266 83.4902C152.496 83.1816 152.721 82.8613 152.939 82.5293C153.229 82.6426 153.549 82.8711 153.9 83.2148C153.787 83.3789 153.672 83.5371 153.555 83.6895C153.441 83.8457 153.328 84.0039 153.215 84.1641C152.957 83.9258 152.641 83.7012 152.266 83.4902ZM154.205 83.4902C154.521 83.041 154.744 82.7207 154.873 82.5293C155.178 82.6465 155.5 82.875 155.84 83.2148C155.727 83.375 155.611 83.5332 155.494 83.6895C155.381 83.8457 155.268 84.0039 155.154 84.1641C154.951 83.9727 154.635 83.748 154.205 83.4902ZM153.461 81C153.32 81 153.25 80.8633 153.25 80.5898V79.9453C153.25 79.6719 153.32 79.5352 153.461 79.5352H153.801C154.137 79.5352 154.453 79.5176 154.75 79.4824C155.051 79.4434 155.287 79.3809 155.459 79.2949C155.373 78.5293 155.086 77.6484 154.598 76.6523L155.717 75.5859C155.846 75.8516 155.965 76.166 156.074 76.5293C156.188 76.8926 156.277 77.2637 156.344 77.6426C156.414 78.0215 156.449 78.3672 156.449 78.6797C156.449 79.0547 156.393 79.3945 156.279 79.6992C156.166 80.0039 155.988 80.3203 155.746 80.6484C155.43 80.7773 155.105 80.8691 154.773 80.9238C154.445 80.9746 154.062 81 153.625 81H153.461ZM158.002 69.123C158.143 69.123 158.297 69.1484 158.465 69.1992C158.637 69.2461 158.811 69.2988 158.986 69.3574C159.158 69.4121 159.328 69.4629 159.496 69.5098C159.664 69.5566 159.814 69.5801 159.947 69.5801C160.178 69.5801 160.375 69.5176 160.539 69.3926C160.703 69.2676 160.859 69.0625 161.008 68.7773L161.652 69.041C161.461 69.5449 161.217 69.9609 160.92 70.2891C160.627 70.6172 160.219 70.7812 159.695 70.7812C159.523 70.7812 159.35 70.7578 159.174 70.7109C159.002 70.6602 158.834 70.6055 158.67 70.5469C158.514 70.4922 158.361 70.4453 158.213 70.4062C158.064 70.3633 157.922 70.3418 157.785 70.3418C157.594 70.3418 157.428 70.4043 157.287 70.5293C157.146 70.6543 157.014 70.8594 156.889 71.1445L156.232 70.875C156.354 70.5547 156.49 70.2617 156.643 69.9961C156.791 69.7305 156.975 69.5195 157.193 69.3633C157.412 69.2031 157.682 69.123 158.002 69.123ZM159.402 72.0352C159.48 72.4414 159.553 72.8945 159.619 73.3945C159.689 73.8945 159.75 74.4062 159.801 74.9297C159.852 75.4531 159.891 75.959 159.918 76.4473C159.945 76.9316 159.959 77.3652 159.959 77.748C159.959 78.5918 159.879 79.2949 159.719 79.8574C159.562 80.416 159.299 80.8301 158.928 81.0996L158.312 80.7246C158.465 80.3926 158.576 80.043 158.646 79.6758C158.721 79.3047 158.758 78.8281 158.758 78.2461C158.758 77.5039 158.707 76.6797 158.605 75.7734C158.504 74.8672 158.355 73.9375 158.16 72.9844L159.402 72.0352Z" fill="#777765"/>
<path d="M20.8608 44.3605C21.0321 44.1892 21.2641 44.0649 21.5569 43.9876C21.8524 43.9075 22.1715 43.8757 22.514 43.8923C22.8537 43.9061 23.1824 43.9724 23.5 44.0912C23.8205 44.2072 24.0911 44.3757 24.3121 44.5966C24.3314 44.616 24.3508 44.6381 24.3701 44.6629C24.3922 44.685 24.4129 44.7085 24.4323 44.7334C24.6781 44.7416 24.8797 44.7223 25.0372 44.6753C25.1919 44.6256 25.341 44.529 25.4846 44.3853L25.5799 44.29L26.6157 45.3258L26.5536 45.388C26.3271 45.6145 26.0813 45.7636 25.8161 45.8354C25.5509 45.9073 25.2499 45.9128 24.9129 45.852C24.9709 46.0316 25.0344 46.2249 25.1035 46.4321C25.1725 46.6337 25.2291 46.8174 25.2733 46.9831C24.7679 47.3836 24.2997 47.7717 23.8688 48.1474C23.4407 48.5258 23.1078 48.8337 22.8703 49.0713C22.7101 49.2315 22.5678 49.382 22.4435 49.5229C22.3248 49.6638 22.2157 49.8033 22.1162 49.9414L25.4308 52.941L24.9916 54.0266L21.7475 50.9316C21.3138 50.52 21.0997 50.085 21.1053 49.6265C21.108 49.1652 21.2986 48.7012 21.677 48.2344L21.3539 48.3587C21.0832 47.8339 20.8719 47.3077 20.72 46.7801C20.5653 46.2498 20.4948 45.7705 20.5087 45.3424C20.5225 44.9088 20.6399 44.5814 20.8608 44.3605ZM21.6729 45.2885C21.4519 45.5095 21.3718 45.8299 21.4326 46.2498C21.4934 46.6641 21.6798 47.2068 21.9919 47.878C22.1383 47.7317 22.3317 47.5494 22.572 47.3311C22.815 47.1102 23.0774 46.8782 23.3592 46.6351C23.6409 46.392 23.9116 46.1628 24.1712 45.9473C24.0166 45.6711 23.8274 45.457 23.6036 45.3051C23.3771 45.1504 23.141 45.0496 22.8951 45.0027C22.6493 44.9557 22.4173 44.9585 22.1991 45.0109C21.9836 45.0607 21.8082 45.1532 21.6729 45.2885ZM22.3027 41.1205C22.2474 40.7393 22.1797 40.354 22.0996 39.9645C22.3841 39.8402 22.7722 39.7753 23.2639 39.7698C23.2998 39.9659 23.3316 40.1606 23.3592 40.354C23.3868 40.5418 23.4172 40.7324 23.4503 40.9258C23.0995 40.9396 22.717 41.0045 22.3027 41.1205ZM23.6741 39.7491C23.5801 39.2077 23.5111 38.8238 23.4669 38.5973C23.7652 38.4647 24.1547 38.3984 24.6353 38.3984C24.6684 38.5917 24.6988 38.7851 24.7264 38.9784C24.7568 39.169 24.7886 39.361 24.8217 39.5544C24.5428 39.5626 24.1602 39.6275 23.6741 39.7491ZM26.6199 45.3217C26.5204 45.4211 26.374 45.3742 26.1807 45.1808L25.7249 44.7251C25.5316 44.5317 25.4846 44.3853 25.5841 44.2859C25.852 44.018 26.044 43.7763 26.16 43.5608C26.2788 43.3426 26.3271 43.1203 26.305 42.8938C26.2801 42.6645 26.1848 42.4035 26.0191 42.1107C25.8534 41.8179 25.6227 41.463 25.3272 41.0459L26.044 40.4866C26.1766 40.6578 26.3036 40.8153 26.4251 40.9589C26.5467 41.1025 26.6613 41.2282 26.769 41.3359C27.037 41.6039 27.3311 41.7378 27.6515 41.7378C27.9747 41.7351 28.3131 41.5569 28.6666 41.2033L28.6708 41.1992L29.7066 42.235L29.7024 42.2391C29.2881 42.6535 28.8779 42.8869 28.4719 42.9393C28.0686 42.9891 27.6253 42.8744 27.1419 42.5955C27.385 43.1037 27.4609 43.5829 27.3698 44.0332C27.2786 44.4834 27.0287 44.9129 26.6199 45.3217ZM30.6264 44.8369C30.5711 44.4558 30.5034 44.0704 30.4233 43.681C30.7078 43.5567 31.0959 43.4918 31.5876 43.4863C31.6235 43.6824 31.6539 43.8757 31.6787 44.0663C31.7091 44.2569 31.7409 44.4489 31.774 44.6422C31.4232 44.656 31.0407 44.7209 30.6264 44.8369ZM31.9978 43.4655C31.9038 42.9242 31.8348 42.5402 31.7906 42.3137C32.0889 42.1811 32.4784 42.1148 32.959 42.1148C32.9921 42.3082 33.0225 42.5015 33.0501 42.6949C33.0805 42.8855 33.1123 43.0775 33.1454 43.2708C32.8664 43.2791 32.4839 43.344 31.9978 43.4655ZM29.7107 42.2309C29.6113 42.3303 29.4649 42.2833 29.2715 42.09L28.8158 41.6342C28.6224 41.4409 28.5755 41.2945 28.6749 41.1951L28.9152 40.9548C29.1528 40.7172 29.3641 40.481 29.5491 40.2463C29.7342 40.006 29.8571 39.7947 29.9179 39.6124C29.3157 39.1317 28.4898 38.7119 27.4402 38.3528L27.4775 36.8074C27.7565 36.9041 28.0631 37.0422 28.3973 37.2217C28.7343 37.3985 29.0602 37.5974 29.3751 37.8183C29.6928 38.0366 29.9621 38.2561 30.183 38.4771C30.4482 38.7423 30.6485 39.0226 30.7838 39.3182C30.9191 39.6137 31.0172 39.9631 31.078 40.3664C30.9454 40.6813 30.781 40.9755 30.5849 41.2489C30.3888 41.5168 30.1361 41.8055 29.8267 42.1148L29.7107 42.2309ZM24.5234 30.6216C24.6229 30.5222 24.7499 30.431 24.9046 30.3482C25.0593 30.2598 25.2195 30.1741 25.3852 30.0913C25.5454 30.0084 25.7015 29.9242 25.8534 29.8385C26.0053 29.7529 26.1282 29.6631 26.2221 29.5692C26.3851 29.4063 26.4804 29.2226 26.508 29.0182C26.5356 28.8138 26.5011 28.5583 26.4044 28.2517L27.0466 27.9824C27.2676 28.474 27.3891 28.9408 27.4112 29.3828C27.4361 29.822 27.2635 30.2266 26.8933 30.5967C26.7718 30.7183 26.6323 30.8246 26.4749 30.9158C26.3174 31.0014 26.16 31.0815 26.0025 31.1561C25.8534 31.2279 25.7125 31.3025 25.5799 31.3798C25.4446 31.4544 25.3286 31.54 25.2319 31.6367C25.0966 31.772 25.0234 31.9336 25.0123 32.1214C25.0013 32.3093 25.0524 32.5482 25.1656 32.8382L24.511 33.1117C24.3701 32.7995 24.2596 32.4957 24.1795 32.2002C24.0967 31.9074 24.0773 31.6284 24.1215 31.3632C24.163 31.0953 24.2969 30.8481 24.5234 30.6216ZM27.5728 31.6905C27.9153 31.9226 28.2868 32.1919 28.6873 32.4985C29.0906 32.8023 29.4953 33.1213 29.9013 33.4556C30.3073 33.7898 30.6926 34.1198 31.0572 34.4458C31.4191 34.7689 31.7354 35.0659 32.006 35.3366C32.6027 35.9332 33.0432 36.487 33.3277 36.998C33.6122 37.5035 33.7186 37.9827 33.6468 38.4357L32.9466 38.6056C32.8195 38.2631 32.651 37.9371 32.4411 37.6278C32.2312 37.3129 31.9204 36.9497 31.5089 36.5381C30.9841 36.0133 30.3653 35.4664 29.6527 34.8974C28.9401 34.3284 28.1777 33.776 27.3657 33.2401L27.5728 31.6905Z" fill="#777765"/>
<path d="M124.861 134.36C125.032 134.189 125.264 134.065 125.557 133.988C125.852 133.907 126.171 133.876 126.514 133.892C126.854 133.906 127.182 133.972 127.5 134.091C127.82 134.207 128.091 134.376 128.312 134.597C128.331 134.616 128.351 134.638 128.37 134.663C128.392 134.685 128.413 134.708 128.432 134.733C128.678 134.742 128.88 134.722 129.037 134.675C129.192 134.626 129.341 134.529 129.485 134.385L129.58 134.29L130.616 135.326L130.554 135.388C130.327 135.614 130.081 135.764 129.816 135.835C129.551 135.907 129.25 135.913 128.913 135.852C128.971 136.032 129.034 136.225 129.103 136.432C129.173 136.634 129.229 136.817 129.273 136.983C128.768 137.384 128.3 137.772 127.869 138.147C127.441 138.526 127.108 138.834 126.87 139.071C126.71 139.231 126.568 139.382 126.444 139.523C126.325 139.664 126.216 139.803 126.116 139.941L129.431 142.941L128.992 144.027L125.747 140.932C125.314 140.52 125.1 140.085 125.105 139.626C125.108 139.165 125.299 138.701 125.677 138.234L125.354 138.359C125.083 137.834 124.872 137.308 124.72 136.78C124.565 136.25 124.495 135.771 124.509 135.342C124.522 134.909 124.64 134.581 124.861 134.36ZM125.673 135.289C125.452 135.51 125.372 135.83 125.433 136.25C125.493 136.664 125.68 137.207 125.992 137.878C126.138 137.732 126.332 137.549 126.572 137.331C126.815 137.11 127.077 136.878 127.359 136.635C127.641 136.392 127.912 136.163 128.171 135.947C128.017 135.671 127.827 135.457 127.604 135.305C127.377 135.15 127.141 135.05 126.895 135.003C126.649 134.956 126.417 134.958 126.199 135.011C125.984 135.061 125.808 135.153 125.673 135.289ZM126.303 131.12C126.247 130.739 126.18 130.354 126.1 129.965C126.384 129.84 126.772 129.775 127.264 129.77C127.3 129.966 127.332 130.161 127.359 130.354C127.387 130.542 127.417 130.732 127.45 130.926C127.1 130.94 126.717 131.004 126.303 131.12ZM127.674 129.749C127.58 129.208 127.511 128.824 127.467 128.597C127.765 128.465 128.155 128.398 128.635 128.398C128.668 128.592 128.699 128.785 128.726 128.978C128.757 129.169 128.789 129.361 128.822 129.554C128.543 129.563 128.16 129.628 127.674 129.749ZM130.62 135.322C130.52 135.421 130.374 135.374 130.181 135.181L129.725 134.725C129.532 134.532 129.485 134.385 129.584 134.286C129.852 134.018 130.044 133.776 130.16 133.561C130.279 133.343 130.327 133.12 130.305 132.894C130.28 132.665 130.185 132.403 130.019 132.111C129.853 131.818 129.623 131.463 129.327 131.046L130.044 130.487C130.177 130.658 130.304 130.815 130.425 130.959C130.547 131.103 130.661 131.228 130.769 131.336C131.037 131.604 131.331 131.738 131.652 131.738C131.975 131.735 132.313 131.557 132.667 131.203L132.671 131.199L133.707 132.235L133.702 132.239C133.288 132.653 132.878 132.887 132.472 132.939C132.069 132.989 131.625 132.874 131.142 132.595C131.385 133.104 131.461 133.583 131.37 134.033C131.279 134.483 131.029 134.913 130.62 135.322ZM134.626 134.837C134.571 134.456 134.503 134.07 134.423 133.681C134.708 133.557 135.096 133.492 135.588 133.486C135.623 133.682 135.654 133.876 135.679 134.066C135.709 134.257 135.741 134.449 135.774 134.642C135.423 134.656 135.041 134.721 134.626 134.837ZM135.998 133.466C135.904 132.924 135.835 132.54 135.791 132.314C136.089 132.181 136.478 132.115 136.959 132.115C136.992 132.308 137.023 132.502 137.05 132.695C137.081 132.885 137.112 133.077 137.145 133.271C136.866 133.279 136.484 133.344 135.998 133.466ZM133.711 132.231C133.611 132.33 133.465 132.283 133.272 132.09L132.816 131.634C132.622 131.441 132.575 131.294 132.675 131.195L132.915 130.955C133.153 130.717 133.364 130.481 133.549 130.246C133.734 130.006 133.857 129.795 133.918 129.612C133.316 129.132 132.49 128.712 131.44 128.353L131.478 126.807C131.756 126.904 132.063 127.042 132.397 127.222C132.734 127.399 133.06 127.597 133.375 127.818C133.693 128.037 133.962 128.256 134.183 128.477C134.448 128.742 134.648 129.023 134.784 129.318C134.919 129.614 135.017 129.963 135.078 130.366C134.945 130.681 134.781 130.975 134.585 131.249C134.389 131.517 134.136 131.805 133.827 132.115L133.711 132.231ZM128.523 120.622C128.623 120.522 128.75 120.431 128.905 120.348C129.059 120.26 129.219 120.174 129.385 120.091C129.545 120.008 129.701 119.924 129.853 119.839C130.005 119.753 130.128 119.663 130.222 119.569C130.385 119.406 130.48 119.223 130.508 119.018C130.536 118.814 130.501 118.558 130.404 118.252L131.047 117.982C131.268 118.474 131.389 118.941 131.411 119.383C131.436 119.822 131.263 120.227 130.893 120.597C130.772 120.718 130.632 120.825 130.475 120.916C130.317 121.001 130.16 121.081 130.003 121.156C129.853 121.228 129.713 121.302 129.58 121.38C129.445 121.454 129.329 121.54 129.232 121.637C129.097 121.772 129.023 121.934 129.012 122.121C129.001 122.309 129.052 122.548 129.166 122.838L128.511 123.112C128.37 122.8 128.26 122.496 128.18 122.2C128.097 121.907 128.077 121.628 128.122 121.363C128.163 121.095 128.297 120.848 128.523 120.622ZM131.573 121.691C131.915 121.923 132.287 122.192 132.687 122.498C133.091 122.802 133.495 123.121 133.901 123.456C134.307 123.79 134.693 124.12 135.057 124.446C135.419 124.769 135.735 125.066 136.006 125.337C136.603 125.933 137.043 126.487 137.328 126.998C137.612 127.503 137.719 127.983 137.647 128.436L136.947 128.606C136.819 128.263 136.651 127.937 136.441 127.628C136.231 127.313 135.92 126.95 135.509 126.538C134.984 126.013 134.365 125.466 133.653 124.897C132.94 124.328 132.178 123.776 131.366 123.24L131.573 121.691Z" fill="#777765"/>
<path d="M126.631 28.8608C126.803 29.0321 126.927 29.2641 127.004 29.5569C127.084 29.8524 127.116 30.1715 127.1 30.514C127.086 30.8537 127.019 31.1824 126.901 31.5C126.785 31.8205 126.616 32.0911 126.395 32.3121C126.376 32.3314 126.354 32.3508 126.329 32.3701C126.307 32.3922 126.283 32.4129 126.258 32.4323C126.25 32.6781 126.27 32.8797 126.316 33.0372C126.366 33.1919 126.463 33.341 126.606 33.4846L126.702 33.5799L125.666 34.6157L125.604 34.5536C125.377 34.3271 125.228 34.0813 125.156 33.8161C125.085 33.5509 125.079 33.2499 125.14 32.9129C124.96 32.9709 124.767 33.0344 124.56 33.1035C124.358 33.1725 124.174 33.2291 124.009 33.2733C123.608 32.7679 123.22 32.2997 122.844 31.8688C122.466 31.4407 122.158 31.1078 121.921 30.8703C121.76 30.7101 121.61 30.5678 121.469 30.4435C121.328 30.3248 121.189 30.2157 121.05 30.1162L118.051 33.4308L116.965 32.9916L120.06 29.7475C120.472 29.3138 120.907 29.0997 121.365 29.1053C121.827 29.108 122.291 29.2986 122.757 29.677L122.633 29.3539C123.158 29.0832 123.684 28.8719 124.212 28.72C124.742 28.5653 125.221 28.4948 125.649 28.5087C126.083 28.5225 126.41 28.6399 126.631 28.8608ZM125.703 29.6729C125.482 29.4519 125.162 29.3718 124.742 29.4326C124.328 29.4934 123.785 29.6798 123.114 29.9919C123.26 30.1383 123.442 30.3317 123.661 30.572C123.882 30.815 124.114 31.0774 124.357 31.3592C124.6 31.6409 124.829 31.9116 125.045 32.1712C125.321 32.0166 125.535 31.8274 125.687 31.6036C125.841 31.3771 125.942 31.141 125.989 30.8951C126.036 30.6493 126.033 30.4173 125.981 30.1991C125.931 29.9836 125.839 29.8082 125.703 29.6729ZM129.871 30.3027C130.253 30.2474 130.638 30.1797 131.027 30.0996C131.152 30.3841 131.217 30.7722 131.222 31.2639C131.026 31.2998 130.831 31.3316 130.638 31.3592C130.45 31.3868 130.259 31.4172 130.066 31.4503C130.052 31.0995 129.987 30.717 129.871 30.3027ZM131.243 31.6741C131.784 31.5801 132.168 31.5111 132.395 31.4669C132.527 31.7652 132.593 32.1547 132.593 32.6353C132.4 32.6684 132.207 32.6988 132.013 32.7264C131.823 32.7568 131.631 32.7886 131.437 32.8217C131.429 32.5428 131.364 32.1602 131.243 31.6741ZM125.67 34.6199C125.571 34.5204 125.618 34.374 125.811 34.1807L126.267 33.7249C126.46 33.5316 126.606 33.4846 126.706 33.5841C126.974 33.852 127.216 34.044 127.431 34.16C127.649 34.2788 127.872 34.3271 128.098 34.305C128.327 34.2801 128.588 34.1848 128.881 34.0191C129.174 33.8534 129.529 33.6227 129.946 33.3272L130.505 34.044C130.334 34.1766 130.177 34.3036 130.033 34.4251C129.889 34.5467 129.764 34.6613 129.656 34.769C129.388 35.037 129.254 35.3311 129.254 35.6515C129.257 35.9747 129.435 36.3131 129.788 36.6666L129.793 36.6708L128.757 37.7066L128.753 37.7024C128.338 37.2881 128.105 36.8779 128.052 36.4719C128.003 36.0686 128.117 35.6253 128.396 35.1419C127.888 35.385 127.409 35.4609 126.959 35.3698C126.508 35.2786 126.079 35.0287 125.67 34.6199ZM126.155 38.6264C126.536 38.5711 126.921 38.5034 127.311 38.4233C127.435 38.7078 127.5 39.0959 127.506 39.5876C127.309 39.6235 127.116 39.6539 126.926 39.6787C126.735 39.7091 126.543 39.7409 126.35 39.774C126.336 39.4232 126.271 39.0407 126.155 38.6264ZM127.526 39.9978C128.068 39.9038 128.452 39.8348 128.678 39.7906C128.811 40.0889 128.877 40.4784 128.877 40.959C128.684 40.9921 128.49 41.0225 128.297 41.0501C128.106 41.0805 127.914 41.1123 127.721 41.1454C127.713 40.8664 127.648 40.4839 127.526 39.9978ZM128.761 37.7107C128.662 37.6113 128.708 37.4649 128.902 37.2715L129.358 36.8158C129.551 36.6224 129.697 36.5755 129.797 36.6749L130.037 36.9152C130.275 37.1528 130.511 37.3641 130.746 37.5491C130.986 37.7342 131.197 37.8571 131.379 37.9179C131.86 37.3157 132.28 36.4898 132.639 35.4402L134.184 35.4775C134.088 35.7565 133.95 36.0631 133.77 36.3973C133.593 36.7343 133.394 37.0602 133.173 37.3751C132.955 37.6928 132.736 37.9621 132.515 38.183C132.25 38.4482 131.969 38.6485 131.674 38.7838C131.378 38.9191 131.029 39.0172 130.625 39.078C130.311 38.9454 130.016 38.781 129.743 38.5849C129.475 38.3888 129.186 38.1361 128.877 37.8267L128.761 37.7107ZM140.37 32.5234C140.47 32.6229 140.561 32.7499 140.644 32.9046C140.732 33.0593 140.818 33.2195 140.901 33.3852C140.983 33.5454 141.068 33.7015 141.153 33.8534C141.239 34.0053 141.329 34.1282 141.423 34.2221C141.586 34.3851 141.769 34.4804 141.974 34.508C142.178 34.5356 142.434 34.5011 142.74 34.4044L143.009 35.0466C142.518 35.2676 142.051 35.3891 141.609 35.4112C141.17 35.4361 140.765 35.2635 140.395 34.8933C140.274 34.7718 140.167 34.6323 140.076 34.4749C139.99 34.3174 139.91 34.16 139.836 34.0025C139.764 33.8534 139.689 33.7125 139.612 33.5799C139.537 33.4446 139.452 33.3286 139.355 33.2319C139.22 33.0966 139.058 33.0234 138.87 33.0123C138.683 33.0013 138.444 33.0524 138.154 33.1656L137.88 32.511C138.192 32.3701 138.496 32.2596 138.792 32.1795C139.084 32.0967 139.363 32.0773 139.629 32.1215C139.897 32.163 140.144 32.2969 140.37 32.5234ZM139.301 35.5728C139.069 35.9153 138.8 36.2868 138.493 36.6873C138.19 37.0906 137.87 37.4953 137.536 37.9013C137.202 38.3073 136.872 38.6926 136.546 39.0572C136.223 39.4191 135.926 39.7354 135.655 40.006C135.059 40.6027 134.505 41.0432 133.994 41.3277C133.488 41.6122 133.009 41.7186 132.556 41.6468L132.386 40.9466C132.729 40.8195 133.055 40.651 133.364 40.4411C133.679 40.2312 134.042 39.9204 134.454 39.5089C134.979 38.9841 135.525 38.3653 136.094 37.6527C136.663 36.9401 137.216 36.1777 137.752 35.3657L139.301 35.5728Z" fill="#777765"/>
<path d="M32.6314 126.861C32.8026 127.032 32.9269 127.264 33.0042 127.557C33.0843 127.852 33.1161 128.171 33.0995 128.514C33.0857 128.854 33.0194 129.182 32.9007 129.5C32.7847 129.82 32.6162 130.091 32.3952 130.312C32.3759 130.331 32.3538 130.351 32.3289 130.37C32.3068 130.392 32.2833 130.413 32.2585 130.432C32.2502 130.678 32.2695 130.88 32.3165 131.037C32.3662 131.192 32.4629 131.341 32.6065 131.485L32.7018 131.58L31.666 132.616L31.6038 132.554C31.3773 132.327 31.2282 132.081 31.1564 131.816C31.0846 131.551 31.079 131.25 31.1398 130.913C30.9603 130.971 30.7669 131.034 30.5598 131.103C30.3581 131.173 30.1744 131.229 30.0087 131.273C29.6082 130.768 29.2201 130.3 28.8445 129.869C28.4661 129.441 28.1581 129.108 27.9205 128.87C27.7603 128.71 27.6098 128.568 27.4689 128.444C27.3281 128.325 27.1886 128.216 27.0505 128.116L24.0508 131.431L22.9653 130.992L26.0602 127.747C26.4718 127.314 26.9068 127.1 27.3653 127.105C27.8266 127.108 28.2907 127.299 28.7575 127.677L28.6332 127.354C29.158 127.083 29.6842 126.872 30.2117 126.72C30.7421 126.565 31.2213 126.495 31.6494 126.509C32.0831 126.522 32.4104 126.64 32.6314 126.861ZM31.7033 127.673C31.4823 127.452 31.1619 127.372 30.7421 127.433C30.3277 127.493 29.785 127.68 29.1138 127.992C29.2602 128.138 29.4425 128.332 29.6607 128.572C29.8816 128.815 30.1137 129.077 30.3567 129.359C30.5998 129.641 30.8291 129.912 31.0445 130.171C31.3207 130.017 31.5348 129.827 31.6867 129.604C31.8414 129.377 31.9422 129.141 31.9892 128.895C32.0361 128.649 32.0334 128.417 31.9809 128.199C31.9312 127.984 31.8386 127.808 31.7033 127.673ZM35.8713 128.303C36.2525 128.247 36.6378 128.18 37.0273 128.1C37.1516 128.384 37.2165 128.772 37.222 129.264C37.0259 129.3 36.8312 129.332 36.6378 129.359C36.45 129.387 36.2594 129.417 36.0661 129.45C36.0523 129.1 35.9873 128.717 35.8713 128.303ZM37.2427 129.674C37.7841 129.58 38.1681 129.511 38.3946 129.467C38.5271 129.765 38.5934 130.155 38.5934 130.635C38.4001 130.668 38.2067 130.699 38.0134 130.726C37.8228 130.757 37.6308 130.789 37.4375 130.822C37.4292 130.543 37.3643 130.16 37.2427 129.674ZM31.6701 132.62C31.5707 132.52 31.6177 132.374 31.811 132.181L32.2668 131.725C32.4601 131.532 32.6065 131.485 32.7059 131.584C32.9739 131.852 33.2155 132.044 33.431 132.16C33.6492 132.279 33.8716 132.327 34.098 132.305C34.3273 132.28 34.5883 132.185 34.8811 132.019C35.1739 131.853 35.5288 131.623 35.9459 131.327L36.5053 132.044C36.334 132.177 36.1766 132.304 36.0329 132.425C35.8893 132.547 35.7636 132.661 35.6559 132.769C35.388 133.037 35.254 133.331 35.254 133.652C35.2568 133.975 35.4349 134.313 35.7885 134.667L35.7926 134.671L34.7568 135.707L34.7527 135.702C34.3384 135.288 34.105 134.878 34.0525 134.472C34.0028 134.069 34.1174 133.625 34.3964 133.142C33.8881 133.385 33.4089 133.461 32.9587 133.37C32.5084 133.279 32.0789 133.029 31.6701 132.62ZM32.1549 136.626C32.5361 136.571 32.9214 136.503 33.3108 136.423C33.4351 136.708 33.5 137.096 33.5056 137.588C33.3095 137.623 33.1161 137.654 32.9255 137.679C32.7349 137.709 32.543 137.741 32.3496 137.774C32.3358 137.423 32.2709 137.041 32.1549 136.626ZM33.5263 137.998C34.0677 137.904 34.4516 137.835 34.6781 137.791C34.8107 138.089 34.877 138.478 34.877 138.959C34.6836 138.992 34.4903 139.023 34.2969 139.05C34.1063 139.081 33.9144 139.112 33.721 139.145C33.7127 138.866 33.6478 138.484 33.5263 137.998ZM34.761 135.711C34.6615 135.611 34.7085 135.465 34.9018 135.272L35.3576 134.816C35.5509 134.622 35.6973 134.575 35.7968 134.675L36.0371 134.915C36.2746 135.153 36.5108 135.364 36.7456 135.549C36.9859 135.734 37.1972 135.857 37.3795 135.918C37.8601 135.316 38.2799 134.49 38.639 133.44L40.1844 133.478C40.0877 133.756 39.9496 134.063 39.7701 134.397C39.5933 134.734 39.3944 135.06 39.1735 135.375C38.9553 135.693 38.7357 135.962 38.5147 136.183C38.2495 136.448 37.9692 136.648 37.6736 136.784C37.3781 136.919 37.0287 137.017 36.6254 137.078C36.3105 136.945 36.0164 136.781 35.7429 136.585C35.475 136.389 35.1863 136.136 34.877 135.827L34.761 135.711ZM46.3702 130.523C46.4697 130.623 46.5608 130.75 46.6437 130.905C46.7321 131.059 46.8177 131.219 46.9005 131.385C46.9834 131.545 47.0677 131.701 47.1533 131.853C47.2389 132.005 47.3287 132.128 47.4226 132.222C47.5856 132.385 47.7692 132.48 47.9736 132.508C48.178 132.536 48.4335 132.501 48.7401 132.404L49.0094 133.047C48.5178 133.268 48.051 133.389 47.609 133.411C47.1699 133.436 46.7652 133.263 46.3951 132.893C46.2735 132.772 46.1672 132.632 46.0761 132.475C45.9904 132.317 45.9103 132.16 45.8357 132.003C45.7639 131.853 45.6894 131.713 45.612 131.58C45.5374 131.445 45.4518 131.329 45.3551 131.232C45.2198 131.097 45.0582 131.023 44.8704 131.012C44.6826 131.001 44.4436 131.052 44.1536 131.166L43.8802 130.511C44.1923 130.37 44.4961 130.26 44.7917 130.18C45.0844 130.097 45.3634 130.077 45.6286 130.122C45.8965 130.163 46.1437 130.297 46.3702 130.523ZM45.3013 133.573C45.0693 133.915 44.7999 134.287 44.4933 134.687C44.1895 135.091 43.8705 135.495 43.5363 135.901C43.202 136.307 42.872 136.693 42.546 137.057C42.2229 137.419 41.9259 137.735 41.6553 138.006C41.0586 138.603 40.5048 139.043 39.9938 139.328C39.4884 139.612 39.0091 139.719 38.5561 139.647L38.3863 138.947C38.7288 138.819 39.0547 138.651 39.3641 138.441C39.6789 138.231 40.0422 137.92 40.4537 137.509C40.9785 136.984 41.5254 136.365 42.0944 135.653C42.6634 134.94 43.2159 134.178 43.7517 133.366L45.3013 133.573Z" fill="#777765"/>
<path opacity="0.25" d="M38.5 43L81.5 21L120.5 41.5L135.5 81.5L120.5 125.5L81.5 141L41 125.5L26.5 81.5L38.5 43Z" stroke="#777765"/>
<path opacity="0.25" d="M52.2569 55.0333L81.844 40L108.679 54.0083L119 81.3417L108.679 111.408L81.844 122L53.9771 111.408L44 81.3417L52.2569 55.0333Z" stroke="#777765"/>
<path opacity="0.25" d="M63.9541 64.9833L81.7064 56L97.8073 64.3708L104 80.7042L97.8073 98.6708L81.7064 105L64.9862 98.6708L59 80.7042L63.9541 64.9833Z" stroke="#777765"/>
<path opacity="0.25" d="M73.3119 73.2167L81.5963 69L89.1101 72.9292L92 80.5958L89.1101 89.0292L81.5963 92L73.7936 89.0292L71 80.5958L73.3119 73.2167Z" stroke="#777765"/>
<path d="M117.125 180.795L117.881 182.482C118.018 182.803 118.24 183.008 118.549 183.098C118.861 183.188 119.213 183.232 119.604 183.232H119.609V184H119.604C119.248 184 118.928 183.945 118.643 183.836C118.361 183.723 118.111 183.541 117.893 183.291C118.135 184.537 117.955 185.504 117.354 186.191C116.752 186.883 115.805 187.229 114.512 187.229C113.531 187.229 112.758 186.996 112.191 186.531C111.625 186.066 111.342 185.389 111.342 184.498C111.342 183.924 111.389 183.414 111.482 182.969C111.58 182.52 111.729 182.082 111.928 181.656L112.408 181.984C112.256 182.375 112.107 182.801 111.963 183.262C111.818 183.719 111.746 184.158 111.746 184.58C111.746 184.963 111.836 185.275 112.016 185.518C112.195 185.764 112.43 185.955 112.719 186.092C113.008 186.229 113.324 186.324 113.668 186.379C114.012 186.434 114.348 186.461 114.676 186.461C115.117 186.461 115.545 186.408 115.959 186.303C116.377 186.197 116.742 186.041 117.055 185.834C117.367 185.627 117.586 185.373 117.711 185.072C117.664 184.49 117.547 183.928 117.359 183.385C117.176 182.838 116.91 182.217 116.562 181.521L117.125 180.795ZM114.4 180.033C114.518 180.08 114.643 180.15 114.775 180.244C114.912 180.334 115.061 180.457 115.221 180.613C115.127 180.746 115.031 180.881 114.934 181.018C114.84 181.15 114.742 181.285 114.641 181.422C114.52 181.309 114.389 181.205 114.248 181.111C114.111 181.014 113.973 180.928 113.832 180.854C113.93 180.717 114.023 180.582 114.113 180.449C114.207 180.316 114.303 180.178 114.4 180.033ZM120.471 187.064C120.264 186.873 120.021 186.703 119.744 186.555C119.924 186.305 120.094 186.059 120.254 185.816C120.473 185.898 120.719 186.072 120.992 186.338C120.844 186.553 120.67 186.795 120.471 187.064ZM121.502 186.555C121.662 186.328 121.832 186.082 122.012 185.816C122.25 185.91 122.496 186.084 122.75 186.338C122.664 186.459 122.578 186.58 122.492 186.701C122.406 186.822 122.318 186.943 122.229 187.064C122.021 186.873 121.779 186.703 121.502 186.555ZM119.609 184C119.492 184 119.434 183.877 119.434 183.631V183.602C119.434 183.355 119.492 183.232 119.609 183.232H120.646C121.018 183.232 121.322 183.199 121.561 183.133C121.803 183.062 121.998 182.936 122.146 182.752C122.299 182.564 122.424 182.299 122.521 181.955C122.623 181.611 122.717 181.164 122.803 180.613L123.312 180.672C123.293 180.902 123.277 181.113 123.266 181.305C123.258 181.496 123.254 181.67 123.254 181.826C123.254 182.264 123.383 182.607 123.641 182.857C123.902 183.107 124.301 183.232 124.836 183.232H124.842V184H124.836C124.289 184 123.857 183.861 123.541 183.584C123.229 183.303 123.012 182.879 122.891 182.312C122.715 182.863 122.449 183.283 122.094 183.572C121.738 183.857 121.258 184 120.652 184H119.609ZM130.461 176.113L130.232 176.787C129.982 176.787 129.656 176.818 129.254 176.881C128.855 176.943 128.426 177.025 127.965 177.127C127.508 177.229 127.059 177.342 126.617 177.467C126.176 177.592 125.785 177.721 125.445 177.854C126.168 178.4 126.756 178.902 127.209 179.359C127.662 179.816 128.057 180.297 128.393 180.801L128.51 180.977C128.822 181.449 129.129 181.854 129.43 182.189C129.734 182.525 130.078 182.783 130.461 182.963C130.844 183.143 131.309 183.232 131.855 183.232H131.861V184H131.855C131.383 184 130.963 183.916 130.596 183.748C130.229 183.576 129.906 183.361 129.629 183.104C129.352 182.846 129.107 182.586 128.896 182.324C128.896 182.543 128.867 182.752 128.809 182.951C128.75 183.146 128.643 183.324 128.486 183.484C127.939 183.723 127.357 183.869 126.74 183.924C126.123 183.975 125.506 184 124.889 184H124.848C124.73 184 124.672 183.877 124.672 183.631V183.602C124.672 183.355 124.73 183.232 124.848 183.232H124.9C125.131 183.232 125.396 183.229 125.697 183.221C126.002 183.213 126.311 183.197 126.623 183.174C126.939 183.146 127.234 183.111 127.508 183.068C127.785 183.021 128.016 182.963 128.199 182.893C128.383 182.818 128.492 182.727 128.527 182.617C128.43 181.965 128.156 181.371 127.707 180.836C127.262 180.297 126.646 179.729 125.861 179.131L125.381 179.336L124.982 178.34L125.012 178.24C125.098 177.943 125.189 177.713 125.287 177.549C125.389 177.385 125.531 177.254 125.715 177.156C125.898 177.055 126.158 176.955 126.494 176.857C126.834 176.756 127.227 176.652 127.672 176.547C128.121 176.441 128.588 176.35 129.072 176.271C129.557 176.189 130.02 176.137 130.461 176.113ZM129.992 174.854C129.223 174.951 128.467 175.08 127.725 175.24C126.982 175.396 126.221 175.596 125.439 175.838L125.498 175.311C126.018 175.15 126.518 175.012 126.998 174.895C127.479 174.773 127.967 174.67 128.463 174.584C128.959 174.494 129.488 174.414 130.051 174.344L129.992 174.854ZM132.951 175.92C133.068 175.967 133.193 176.037 133.326 176.131C133.463 176.221 133.611 176.344 133.771 176.5C133.678 176.633 133.582 176.768 133.484 176.904C133.391 177.037 133.293 177.172 133.191 177.309C133.07 177.195 132.939 177.092 132.799 176.998C132.662 176.9 132.523 176.814 132.383 176.74C132.48 176.604 132.574 176.469 132.664 176.336C132.758 176.203 132.854 176.064 132.951 175.92ZM131.867 184C131.75 184 131.691 183.877 131.691 183.631V183.602C131.691 183.355 131.75 183.232 131.867 183.232H132.037C132.443 183.232 132.83 183.211 133.197 183.168C133.568 183.125 133.846 183.053 134.029 182.951C134.006 182.545 133.932 182.092 133.807 181.592C133.682 181.088 133.48 180.529 133.203 179.916L133.9 179.295C133.998 179.564 134.088 179.887 134.17 180.262C134.256 180.633 134.324 180.998 134.375 181.357C134.426 181.717 134.451 182.012 134.451 182.242C134.451 182.586 134.408 182.857 134.322 183.057C134.236 183.256 134.076 183.486 133.842 183.748C133.553 183.846 133.271 183.912 132.998 183.947C132.729 183.982 132.398 184 132.008 184H131.867ZM136.484 175.211V182.553C136.602 182.756 136.787 182.92 137.041 183.045C137.295 183.17 137.674 183.232 138.178 183.232H138.184V184H138.178C137.764 184 137.393 183.943 137.064 183.83C136.736 183.717 136.479 183.527 136.291 183.262C136.104 182.996 136.01 182.635 136.01 182.178V179.535C136.01 178.777 135.986 178.084 135.939 177.455C135.896 176.822 135.832 176.25 135.746 175.738L136.484 175.211ZM138.014 187.064C137.807 186.873 137.564 186.703 137.287 186.555C137.467 186.305 137.637 186.059 137.797 185.816C138.016 185.898 138.262 186.072 138.535 186.338C138.387 186.553 138.213 186.795 138.014 187.064ZM139.045 186.555C139.205 186.328 139.375 186.082 139.555 185.816C139.793 185.91 140.039 186.084 140.293 186.338C140.207 186.459 140.121 186.58 140.035 186.701C139.949 186.822 139.861 186.943 139.771 187.064C139.564 186.873 139.322 186.703 139.045 186.555ZM138.184 184C138.066 184 138.008 183.877 138.008 183.631V183.602C138.008 183.355 138.066 183.232 138.184 183.232C138.555 183.232 138.859 183.199 139.098 183.133C139.34 183.062 139.535 182.936 139.684 182.752C139.836 182.564 139.961 182.299 140.059 181.955C140.16 181.611 140.254 181.164 140.34 180.613L140.85 180.672C140.83 180.902 140.814 181.117 140.803 181.316C140.795 181.512 140.791 181.688 140.791 181.844C140.791 182.273 140.924 182.613 141.189 182.863C141.455 183.109 141.85 183.232 142.373 183.232H142.379V184H142.373C141.826 184 141.395 183.861 141.078 183.584C140.766 183.303 140.549 182.879 140.428 182.312C140.252 182.867 139.984 183.287 139.625 183.572C139.27 183.857 138.789 184 138.184 184ZM146.287 179.764C146.732 179.764 147.09 179.896 147.359 180.162C147.633 180.428 147.832 180.781 147.957 181.223C148.082 181.664 148.145 182.15 148.145 182.682C148.145 182.791 148.143 182.896 148.139 182.998C148.135 183.096 148.125 183.207 148.109 183.332C147.848 183.578 147.555 183.762 147.23 183.883C146.91 184.004 146.58 184.064 146.24 184.064C145.885 184.064 145.533 184.002 145.186 183.877C144.838 183.748 144.514 183.559 144.213 183.309L144.336 182.67C144.25 182.924 144.143 183.152 144.014 183.355C143.889 183.555 143.701 183.713 143.451 183.83C143.201 183.943 142.844 184 142.379 184C142.262 184 142.203 183.877 142.203 183.631V183.602C142.203 183.355 142.262 183.232 142.379 183.232C142.77 183.232 143.094 183.141 143.352 182.957C143.609 182.773 143.826 182.535 144.002 182.242C144.178 181.949 144.338 181.641 144.482 181.316C144.588 181.082 144.709 180.846 144.846 180.607C144.982 180.369 145.164 180.17 145.391 180.01C145.621 179.846 145.92 179.764 146.287 179.764ZM146.182 180.461C145.936 180.461 145.717 180.531 145.525 180.672C145.338 180.812 145.172 180.994 145.027 181.217C144.883 181.439 144.758 181.68 144.652 181.938C144.547 182.191 144.455 182.434 144.377 182.664C144.557 182.867 144.836 183.025 145.215 183.139C145.598 183.248 145.984 183.303 146.375 183.303C146.621 183.303 146.861 183.279 147.096 183.232C147.33 183.186 147.531 183.1 147.699 182.975C147.688 182.721 147.654 182.449 147.6 182.16C147.549 181.871 147.467 181.598 147.354 181.34C147.24 181.082 147.088 180.871 146.896 180.707C146.705 180.543 146.467 180.461 146.182 180.461Z" fill="#1F2F37"/>
<path d="M56.6016 176.211V183.553C56.7188 183.756 56.9043 183.92 57.1582 184.045C57.4121 184.17 57.791 184.232 58.2949 184.232H58.3008V185H58.2949C57.8809 185 57.5098 184.943 57.1816 184.83C56.8535 184.717 56.5957 184.527 56.4082 184.262C56.2207 183.996 56.127 183.635 56.127 183.178V180.535C56.127 179.777 56.1035 179.084 56.0566 178.455C56.0137 177.822 55.9492 177.25 55.8633 176.738L56.6016 176.211ZM62.209 180.764C62.9863 180.764 63.5156 181.176 63.7969 182C64 182.59 64.1953 183.047 64.3828 183.371C64.5703 183.695 64.7812 183.92 65.0156 184.045C65.2539 184.17 65.5488 184.232 65.9004 184.232H65.9062V185H65.9004C65.666 185 65.4453 184.969 65.2383 184.906C65.0352 184.844 64.8398 184.723 64.6523 184.543C64.4648 184.359 64.2754 184.09 64.084 183.734C64.084 183.91 64.0664 184.109 64.0312 184.332C63.7695 184.578 63.4766 184.762 63.1523 184.883C62.832 185.004 62.502 185.064 62.1621 185.064C61.8066 185.064 61.4551 185.002 61.1074 184.877C60.7598 184.748 60.4355 184.559 60.1348 184.309L60.2578 183.67C60.1719 183.924 60.0645 184.152 59.9355 184.355C59.8105 184.555 59.623 184.713 59.373 184.83C59.123 184.943 58.7656 185 58.3008 185C58.1836 185 58.125 184.877 58.125 184.631V184.602C58.125 184.355 58.1836 184.232 58.3008 184.232C58.6914 184.232 59.0156 184.141 59.2734 183.957C59.5312 183.773 59.748 183.535 59.9238 183.242C60.0996 182.949 60.2598 182.641 60.4043 182.316C60.5098 182.082 60.6309 181.846 60.7676 181.607C60.9043 181.369 61.0859 181.17 61.3125 181.01C61.543 180.846 61.8418 180.764 62.209 180.764ZM62.1035 181.461C61.8574 181.461 61.6387 181.531 61.4473 181.672C61.2598 181.812 61.0938 181.994 60.9492 182.217C60.8047 182.439 60.6797 182.68 60.5742 182.938C60.4688 183.191 60.377 183.434 60.2988 183.664C60.4785 183.867 60.7578 184.025 61.1367 184.139C61.5195 184.248 61.9062 184.303 62.2969 184.303C62.543 184.303 62.7832 184.279 63.0176 184.232C63.252 184.186 63.4531 184.1 63.6211 183.975C63.6094 183.721 63.5762 183.449 63.5215 183.16C63.4707 182.871 63.3887 182.598 63.2754 182.34C63.1621 182.082 63.0098 181.871 62.8184 181.707C62.627 181.543 62.3887 181.461 62.1035 181.461ZM72.5273 185.064C71.5391 185.064 71.0234 184.48 70.9805 183.312C70.8594 183.855 70.6406 184.283 70.3242 184.596C70.0117 184.908 69.6445 185.064 69.2227 185.064C68.375 185.064 67.9219 184.443 67.8633 183.201C67.6406 183.822 67.3711 184.277 67.0547 184.566C66.7422 184.855 66.3594 185 65.9062 185C65.7891 185 65.7305 184.877 65.7305 184.631V184.602C65.7305 184.355 65.7891 184.232 65.9062 184.232C66.4492 184.232 66.8633 184.049 67.1484 183.682C67.4375 183.314 67.666 182.678 67.834 181.771L68.3379 181.83C68.3223 182.037 68.3066 182.273 68.291 182.539C68.2754 182.805 68.2676 183.006 68.2676 183.143C68.2676 183.561 68.3516 183.863 68.5195 184.051C68.6875 184.234 68.9609 184.326 69.3398 184.326C69.625 184.326 69.8574 184.266 70.0371 184.145C70.2168 184.023 70.3711 183.807 70.5 183.494C70.6289 183.182 70.7578 182.738 70.8867 182.164H71.4551C71.4434 182.25 71.4297 182.371 71.4141 182.527C71.4023 182.68 71.3906 182.838 71.3789 183.002C71.3711 183.162 71.3672 183.297 71.3672 183.406C71.3672 183.777 71.4434 184.027 71.5957 184.156C71.748 184.281 72.0488 184.344 72.498 184.344C72.834 184.344 73.0898 184.311 73.2656 184.244C73.4414 184.178 73.5957 184.061 73.7285 183.893C73.6738 183.506 73.5957 183.139 73.4941 182.791C73.3926 182.439 73.2695 182.105 73.125 181.789L73.752 181.074C74.0098 181.781 74.1387 182.559 74.1387 183.406C74.1387 183.523 74.1309 183.623 74.1152 183.705C74.1035 183.787 74.0684 183.891 74.0098 184.016C73.9551 184.141 73.8633 184.328 73.7344 184.578C73.3594 184.902 72.957 185.064 72.5273 185.064ZM71.1094 179.598C71.1445 179.551 71.3145 179.305 71.6191 178.859C71.8223 178.934 72.0684 179.107 72.3574 179.381C72.2754 179.498 72.1895 179.617 72.0996 179.738C72.0137 179.859 71.9258 179.982 71.8359 180.107C71.6094 179.896 71.3672 179.727 71.1094 179.598ZM70.0781 180.107C69.8711 179.916 69.6289 179.746 69.3516 179.598C69.5273 179.344 69.6973 179.098 69.8613 178.859C70.0801 178.941 70.3262 179.115 70.5996 179.381C70.4824 179.549 70.3086 179.791 70.0781 180.107ZM70.207 178.127C70.2461 178.072 70.416 177.826 70.7168 177.389C70.9551 177.482 71.2012 177.656 71.4551 177.91C71.3691 178.031 71.2852 178.148 71.2031 178.262C71.125 178.375 71.0352 178.5 70.9336 178.637C70.7266 178.445 70.4844 178.275 70.207 178.127Z" fill="#1F2F37"/>
<path d="M81.5 56.5L52 55L71 81L64 98.5L55 111.5L81.5 121.5L120.5 125.5L135.5 81L108.5 54L81.5 56.5Z" fill="#0BAEDD" fill-opacity="0.5" stroke="#0BAEDD"/>
<path d="M63.5 65.5L82 40.5L97.5 64.5L104 81L108 111.5L82 105L54 111.5L44 81.5L63.5 65.5Z" stroke="#81A2B1"/>
</svg>
