<svg width="180" height="188" viewBox="0 0 180 188" fill="none" xmlns="http://www.w3.org/2000/svg">
<rect x="9" y="98" width="70" height="90" fill="#777765"/>
<rect x="100" y="68" width="70" height="120" fill="#81A2B1"/>
<rect x="55" y="28" width="68" height="160" fill="#0BAEDD"/>
<line y1="187.5" x2="180" y2="187.5" stroke="#81A2B1"/>
<path d="M79 15.2895V5.70953C79 4.37953 79.77 4.05953 80.71 4.99953L83.3 7.58953C83.69 7.97953 84.33 7.97953 84.71 7.58953L88.29 3.99953C88.68 3.60953 89.32 3.60953 89.7 3.99953L93.29 7.58953C93.68 7.97953 94.32 7.97953 94.7 7.58953L97.29 4.99953C98.23 4.05953 99 4.37953 99 5.70953V15.2995C99 18.2995 97 20.2995 94 20.2995H84C81.24 20.2895 79 18.0495 79 15.2895Z" stroke="#0BAEDD" stroke-width="1.5" stroke-linecap="round" stroke-linejoin="round"/>
<path d="M74.75 90.3379C74.6055 90.2988 74.4336 90.2578 74.2344 90.2148C74.0352 90.168 73.8887 90.1445 73.7949 90.1445C73.3613 90.1445 72.9609 90.2363 72.5938 90.4199C72.2305 90.6035 71.9395 90.875 71.7207 91.2344C71.502 91.5898 71.3984 92.0293 71.4102 92.5527C71.4922 92.666 71.6016 92.7559 71.7383 92.8223C71.875 92.8848 72.0645 92.9395 72.3066 92.9863C72.5488 93.0293 72.8691 93.0801 73.2676 93.1387C73.8027 93.2129 74.2207 93.2871 74.5215 93.3613C74.8262 93.4316 75.041 93.5176 75.166 93.6191C75.291 93.7168 75.3535 93.8438 75.3535 94V94.4805C75.373 94.9961 75.2148 95.4492 74.8789 95.8398C74.543 96.2305 74.0723 96.5352 73.4668 96.7539C72.8613 96.9727 72.1582 97.082 71.3574 97.082C70.2637 97.082 69.4277 96.8535 68.8496 96.3965C68.2715 95.9395 67.9824 95.2578 67.9824 94.3516C67.9824 93.9375 68.0117 93.5312 68.0703 93.1328C68.1328 92.7305 68.2246 92.3105 68.3457 91.873L68.8496 92.1367C68.7129 92.6094 68.6016 93.0449 68.5156 93.4434C68.4297 93.8418 68.3867 94.2148 68.3867 94.5625C68.3867 95.0977 68.666 95.5234 69.2246 95.8398C69.7871 96.1562 70.5391 96.3145 71.4805 96.3145C72.2578 96.3145 72.9336 96.2051 73.5078 95.9863C74.082 95.7676 74.5586 95.4512 74.9375 95.0371V94.2402C74.7734 94.1465 74.5488 94.0742 74.2637 94.0234C73.9785 93.9727 73.6055 93.9219 73.1445 93.8711C72.5938 93.8086 72.1641 93.7285 71.8555 93.6309C71.5508 93.5332 71.3359 93.3926 71.2109 93.209C71.0898 93.0254 71.0293 92.7734 71.0293 92.4531C71.0293 91.6992 71.2051 91.0801 71.5566 90.5957C71.9082 90.1074 72.4102 89.7656 73.0625 89.5703C73.2109 89.5273 73.377 89.4941 73.5605 89.4707C73.748 89.4434 73.9297 89.4297 74.1055 89.4297C74.2773 89.4297 74.4297 89.4375 74.5625 89.4531C74.6953 89.4688 74.8633 89.5039 75.0664 89.5586L74.75 90.3379ZM80.9023 92.8457L79.0859 89.043L79.6016 88.3926L81.3945 92.8164C81.6445 93.0938 82.0918 93.2324 82.7363 93.2324H82.7422V94H82.7363C82.2871 94 81.9336 93.9316 81.6758 93.7949C81.4219 93.6582 81.2227 93.4336 81.0781 93.1211C80.7695 93.4531 80.4336 93.6934 80.0703 93.8418C79.707 93.9863 79.2637 94.0586 78.7402 94.0586C78.3691 94.0586 78.0352 94.0176 77.7383 93.9355C77.4453 93.8535 77.0898 93.7012 76.6719 93.4785L76.9121 92.8691C77.5371 93.1426 78.2109 93.2793 78.9336 93.2793C79.6836 93.2793 80.3398 93.1348 80.9023 92.8457ZM85.5957 89.0371C86.1973 89.3574 86.6172 89.6914 86.8555 90.0391C87.0938 90.3828 87.2129 90.7812 87.2129 91.2344C87.2129 92.1719 86.9414 92.8672 86.3984 93.3203C85.8555 93.7734 85.0469 94 83.9727 94C84.0391 94.2539 84.2305 94.5762 84.5469 94.9668C84.8633 95.3613 85.293 95.7617 85.8359 96.168C86.3164 95.4219 86.7168 94.8359 87.0371 94.4102C87.3574 93.9844 87.6445 93.6816 87.8984 93.502C88.1562 93.3223 88.4258 93.2324 88.707 93.2324H88.7129V94H88.5254C88.3809 94 88.2402 94.0332 88.1035 94.0996C87.9707 94.166 87.8223 94.2871 87.6582 94.4629C87.4941 94.6426 87.3027 94.8926 87.084 95.2129C86.8691 95.5371 86.6074 95.9551 86.2988 96.4668C86.3652 96.5176 86.4473 96.5723 86.5449 96.6309C86.6426 96.6934 86.7422 96.752 86.8438 96.8066L86.4336 97.4922C85.6797 97.0391 85.0762 96.5293 84.623 95.9629C84.1738 95.3965 83.8535 94.7422 83.6621 94H82.7422C82.625 94 82.5664 93.877 82.5664 93.6309V93.6016C82.5664 93.3555 82.625 93.2324 82.7422 93.2324H83.5449C83.5098 92.2051 83.6738 91.332 84.0371 90.6133C84.4004 89.8906 84.9199 89.3652 85.5957 89.0371ZM85.4082 89.8457C85.127 89.959 84.8711 90.1914 84.6406 90.543C84.4102 90.8906 84.2285 91.3027 84.0957 91.7793C83.9629 92.2559 83.8984 92.7402 83.9023 93.2324H84.1953C85 93.2324 85.627 93.0859 86.0762 92.793C86.5293 92.4961 86.7559 92.1055 86.7559 91.6211C86.7559 91.3867 86.6914 91.1504 86.5625 90.9121C86.4375 90.6738 86.2734 90.459 86.0703 90.2676C85.8672 90.0762 85.6465 89.9355 85.4082 89.8457ZM92.627 89.7637C93.0723 89.7637 93.4297 89.8965 93.6992 90.1621C93.9727 90.4277 94.1719 90.7812 94.2969 91.2227C94.4219 91.6641 94.4844 92.1504 94.4844 92.6816C94.4844 92.791 94.4824 92.8965 94.4785 92.998C94.4746 93.0957 94.4648 93.207 94.4492 93.332C94.1875 93.5781 93.8945 93.7617 93.5703 93.8828C93.25 94.0039 92.9199 94.0645 92.5801 94.0645C92.2246 94.0645 91.873 94.002 91.5254 93.877C91.1777 93.748 90.8535 93.5586 90.5527 93.3086L90.6758 92.6699C90.5898 92.9238 90.4824 93.1523 90.3535 93.3555C90.2285 93.5547 90.041 93.7129 89.791 93.8301C89.541 93.9434 89.1836 94 88.7188 94C88.6016 94 88.543 93.877 88.543 93.6309V93.6016C88.543 93.3555 88.6016 93.2324 88.7188 93.2324C89.1094 93.2324 89.4336 93.1406 89.6914 92.957C89.9492 92.7734 90.166 92.5352 90.3418 92.2422C90.5176 91.9492 90.6777 91.6406 90.8223 91.3164C90.9277 91.082 91.0488 90.8457 91.1855 90.6074C91.3223 90.3691 91.5039 90.1699 91.7305 90.0098C91.9609 89.8457 92.2598 89.7637 92.627 89.7637ZM92.5215 90.4609C92.2754 90.4609 92.0566 90.5312 91.8652 90.6719C91.6777 90.8125 91.5117 90.9941 91.3672 91.2168C91.2227 91.4395 91.0977 91.6797 90.9922 91.9375C90.8867 92.1914 90.7949 92.4336 90.7168 92.6641C90.8965 92.8672 91.1758 93.0254 91.5547 93.1387C91.9375 93.248 92.3242 93.3027 92.7148 93.3027C92.9609 93.3027 93.2012 93.2793 93.4355 93.2324C93.6699 93.1855 93.8711 93.0996 94.0391 92.9746C94.0273 92.7207 93.9941 92.4492 93.9395 92.1602C93.8887 91.8711 93.8066 91.5977 93.6934 91.3398C93.5801 91.082 93.4277 90.8711 93.2363 90.707C93.0449 90.543 92.8066 90.4609 92.5215 90.4609ZM96.6992 90.8184L97.5488 92.3008C97.7207 92.5664 97.9219 92.7891 98.1523 92.9688C98.3867 93.1445 98.6992 93.2324 99.0898 93.2324H99.0957V94H99.0898C98.8125 94 98.5664 93.959 98.3516 93.877C98.1406 93.791 97.9492 93.6738 97.7773 93.5254C97.8789 94.2441 97.834 94.8809 97.6426 95.4355C97.4512 95.9902 97.1523 96.4238 96.7461 96.7363C96.3398 97.0527 95.8613 97.2109 95.3105 97.2109C95.1387 97.2109 94.9512 97.1953 94.748 97.1641C94.5449 97.1367 94.3516 97.1074 94.168 97.0762L94.3438 96.5371C94.8984 96.5176 95.3984 96.4531 95.8438 96.3438C96.2891 96.2344 96.6621 96.0527 96.9629 95.7988C97.2637 95.5488 97.4727 95.2051 97.5898 94.7676C97.5391 94.2988 97.4043 93.8027 97.1855 93.2793C96.9707 92.752 96.6367 92.1465 96.1836 91.4629L96.6992 90.8184ZM99.9629 97.0645C99.7559 96.873 99.5137 96.7031 99.2363 96.5547C99.416 96.3047 99.5859 96.0586 99.7461 95.8164C99.9648 95.8984 100.211 96.0723 100.484 96.3379C100.336 96.5527 100.162 96.7949 99.9629 97.0645ZM100.994 96.5547C101.154 96.3281 101.324 96.082 101.504 95.8164C101.742 95.9102 101.988 96.084 102.242 96.3379C102.156 96.459 102.07 96.5801 101.984 96.7012C101.898 96.8223 101.811 96.9434 101.721 97.0645C101.514 96.873 101.271 96.7031 100.994 96.5547ZM99.1016 94C98.9844 94 98.9258 93.877 98.9258 93.6309V93.6016C98.9258 93.3555 98.9844 93.2324 99.1016 93.2324H100.139C100.51 93.2324 100.814 93.1992 101.053 93.1328C101.295 93.0625 101.49 92.9355 101.639 92.752C101.791 92.5645 101.916 92.2988 102.014 91.9551C102.115 91.6113 102.209 91.1641 102.295 90.6133L102.805 90.6719C102.785 90.9023 102.77 91.1133 102.758 91.3047C102.75 91.4961 102.746 91.6699 102.746 91.8262C102.746 92.2637 102.875 92.6074 103.133 92.8574C103.395 93.1074 103.793 93.2324 104.328 93.2324H104.334V94H104.328C103.781 94 103.35 93.8613 103.033 93.584C102.721 93.3027 102.504 92.8789 102.383 92.3125C102.207 92.8633 101.941 93.2832 101.586 93.5723C101.23 93.8574 100.75 94 100.145 94H99.1016ZM108.248 89.7637C108.693 89.7637 109.051 89.8965 109.32 90.1621C109.594 90.4277 109.793 90.7812 109.918 91.2227C110.043 91.6641 110.105 92.1504 110.105 92.6816C110.105 92.791 110.104 92.8965 110.1 92.998C110.096 93.0957 110.086 93.207 110.07 93.332C109.809 93.5781 109.516 93.7617 109.191 93.8828C108.871 94.0039 108.541 94.0645 108.201 94.0645C107.846 94.0645 107.494 94.002 107.146 93.877C106.799 93.748 106.475 93.5586 106.174 93.3086L106.297 92.6699C106.211 92.9238 106.104 93.1523 105.975 93.3555C105.85 93.5547 105.662 93.7129 105.412 93.8301C105.162 93.9434 104.805 94 104.34 94C104.223 94 104.164 93.877 104.164 93.6309V93.6016C104.164 93.3555 104.223 93.2324 104.34 93.2324C104.73 93.2324 105.055 93.1406 105.312 92.957C105.57 92.7734 105.787 92.5352 105.963 92.2422C106.139 91.9492 106.299 91.6406 106.443 91.3164C106.549 91.082 106.67 90.8457 106.807 90.6074C106.943 90.3691 107.125 90.1699 107.352 90.0098C107.582 89.8457 107.881 89.7637 108.248 89.7637ZM108.143 90.4609C107.896 90.4609 107.678 90.5312 107.486 90.6719C107.299 90.8125 107.133 90.9941 106.988 91.2168C106.844 91.4395 106.719 91.6797 106.613 91.9375C106.508 92.1914 106.416 92.4336 106.338 92.6641C106.518 92.8672 106.797 93.0254 107.176 93.1387C107.559 93.248 107.945 93.3027 108.336 93.3027C108.582 93.3027 108.822 93.2793 109.057 93.2324C109.291 93.1855 109.492 93.0996 109.66 92.9746C109.648 92.7207 109.615 92.4492 109.561 92.1602C109.51 91.8711 109.428 91.5977 109.314 91.3398C109.201 91.082 109.049 90.8711 108.857 90.707C108.666 90.543 108.428 90.4609 108.143 90.4609ZM112.18 85.2109C112.215 85.4062 112.252 85.6836 112.291 86.043C112.33 86.3984 112.369 86.8008 112.408 87.25C112.447 87.6953 112.482 88.1582 112.514 88.6387C112.545 89.1152 112.57 89.5762 112.59 90.0215C112.609 90.4629 112.619 90.8535 112.619 91.1934C112.619 91.998 112.564 92.6387 112.455 93.1152C112.35 93.5918 112.199 93.9219 112.004 94.1055L111.67 93.9941C111.814 93.6465 111.914 93.2656 111.969 92.8516C112.023 92.4375 112.051 91.9062 112.051 91.2578C112.051 90.793 112.039 90.3047 112.016 89.793C111.992 89.2773 111.959 88.7656 111.916 88.2578C111.873 87.75 111.822 87.2754 111.764 86.834C111.709 86.3887 111.65 86.0078 111.588 85.6914L112.18 85.2109ZM75.8867 119.68C75.8398 119.098 75.7227 118.535 75.5352 117.992C75.3516 117.445 75.0859 116.824 74.7383 116.129L75.3008 115.402C75.582 116.086 75.7969 116.705 75.9453 117.26C76.0938 117.811 76.168 118.377 76.168 118.959C76.168 119.889 75.8516 120.6 75.2188 121.092C74.5898 121.588 73.7461 121.836 72.6875 121.836C71.707 121.836 70.9336 121.604 70.3672 121.139C69.8008 120.674 69.5176 119.996 69.5176 119.105C69.5176 118.531 69.5645 118.021 69.6582 117.576C69.7559 117.127 69.9043 116.689 70.1035 116.264L70.584 116.592C70.4316 116.982 70.2832 117.408 70.1387 117.869C69.9941 118.326 69.9219 118.766 69.9219 119.188C69.9219 119.57 70.0117 119.883 70.1914 120.125C70.3711 120.371 70.6055 120.562 70.8945 120.699C71.1836 120.836 71.5 120.932 71.8438 120.986C72.1875 121.041 72.5234 121.068 72.8516 121.068C73.293 121.068 73.7207 121.016 74.1348 120.91C74.5527 120.805 74.918 120.648 75.2305 120.441C75.543 120.234 75.7617 119.98 75.8867 119.68ZM72.5762 114.641C72.6934 114.688 72.8184 114.758 72.9512 114.852C73.0879 114.941 73.2363 115.064 73.3965 115.221C73.3027 115.354 73.207 115.488 73.1094 115.625C73.0156 115.758 72.918 115.893 72.8164 116.029C72.6953 115.916 72.5645 115.812 72.4238 115.719C72.2871 115.621 72.1484 115.535 72.0078 115.461C72.1055 115.324 72.1992 115.189 72.2891 115.057C72.3828 114.924 72.4785 114.785 72.5762 114.641ZM78.1953 110.211V117.553C78.3125 117.756 78.498 117.92 78.752 118.045C79.0059 118.17 79.3848 118.232 79.8887 118.232H79.8945V119H79.8887C79.4746 119 79.1035 118.943 78.7754 118.83C78.4473 118.717 78.1895 118.527 78.002 118.262C77.8145 117.996 77.7207 117.635 77.7207 117.178V114.535C77.7207 113.777 77.6973 113.084 77.6504 112.455C77.6074 111.822 77.543 111.25 77.457 110.738L78.1953 110.211ZM79.7246 122.064C79.5176 121.873 79.2754 121.703 78.998 121.555C79.1777 121.305 79.3477 121.059 79.5078 120.816C79.7266 120.898 79.9727 121.072 80.2461 121.338C80.0977 121.553 79.9238 121.795 79.7246 122.064ZM80.7559 121.555C80.916 121.328 81.0859 121.082 81.2656 120.816C81.5039 120.91 81.75 121.084 82.0039 121.338C81.918 121.459 81.832 121.58 81.7461 121.701C81.6602 121.822 81.5723 121.943 81.4824 122.064C81.2754 121.873 81.0332 121.703 80.7559 121.555ZM79.8945 119C79.7773 119 79.7188 118.877 79.7188 118.631V118.602C79.7188 118.355 79.7773 118.232 79.8945 118.232H80.0645C80.4707 118.232 80.8574 118.211 81.2246 118.168C81.5957 118.125 81.873 118.053 82.0566 117.951C82.0332 117.545 81.959 117.092 81.834 116.592C81.709 116.088 81.5078 115.529 81.2305 114.916L81.9277 114.295C82.0254 114.564 82.1152 114.887 82.1973 115.262C82.2832 115.633 82.3516 115.998 82.4023 116.357C82.4531 116.717 82.4785 117.012 82.4785 117.242C82.4785 117.586 82.4355 117.857 82.3496 118.057C82.2637 118.256 82.1035 118.486 81.8691 118.748C81.5801 118.846 81.2988 118.912 81.0254 118.947C80.7559 118.982 80.4258 119 80.0352 119H79.8945ZM88.0391 117.846L86.2227 114.043L86.7383 113.393L88.5312 117.816C88.7812 118.094 89.2285 118.232 89.873 118.232H89.8789V119H89.873C89.4238 119 89.0703 118.932 88.8125 118.795C88.5586 118.658 88.3594 118.434 88.2148 118.121C87.9062 118.453 87.5703 118.693 87.207 118.842C86.8438 118.986 86.4004 119.059 85.877 119.059C85.5059 119.059 85.1719 119.018 84.875 118.936C84.582 118.854 84.2266 118.701 83.8086 118.479L84.0488 117.869C84.6738 118.143 85.3477 118.279 86.0703 118.279C86.8203 118.279 87.4766 118.135 88.0391 117.846ZM93.7871 114.764C94.5645 114.764 95.0938 115.176 95.375 116C95.5781 116.59 95.7734 117.047 95.9609 117.371C96.1484 117.695 96.3594 117.92 96.5938 118.045C96.832 118.17 97.127 118.232 97.4785 118.232H97.4844V119H97.4785C97.2441 119 97.0234 118.969 96.8164 118.906C96.6133 118.844 96.418 118.723 96.2305 118.543C96.043 118.359 95.8535 118.09 95.6621 117.734C95.6621 117.91 95.6445 118.109 95.6094 118.332C95.3477 118.578 95.0547 118.762 94.7305 118.883C94.4102 119.004 94.0801 119.064 93.7402 119.064C93.3848 119.064 93.0332 119.002 92.6855 118.877C92.3379 118.748 92.0137 118.559 91.7129 118.309L91.8359 117.67C91.75 117.924 91.6426 118.152 91.5137 118.355C91.3887 118.555 91.2012 118.713 90.9512 118.83C90.7012 118.943 90.3438 119 89.8789 119C89.7617 119 89.7031 118.877 89.7031 118.631V118.602C89.7031 118.355 89.7617 118.232 89.8789 118.232C90.2695 118.232 90.5938 118.141 90.8516 117.957C91.1094 117.773 91.3262 117.535 91.502 117.242C91.6777 116.949 91.8379 116.641 91.9824 116.316C92.0879 116.082 92.209 115.846 92.3457 115.607C92.4824 115.369 92.6641 115.17 92.8906 115.01C93.1211 114.846 93.4199 114.764 93.7871 114.764ZM93.6816 115.461C93.4355 115.461 93.2168 115.531 93.0254 115.672C92.8379 115.812 92.6719 115.994 92.5273 116.217C92.3828 116.439 92.2578 116.68 92.1523 116.938C92.0469 117.191 91.9551 117.434 91.877 117.664C92.0566 117.867 92.3359 118.025 92.7148 118.139C93.0977 118.248 93.4844 118.303 93.875 118.303C94.1211 118.303 94.3613 118.279 94.5957 118.232C94.8301 118.186 95.0312 118.1 95.1992 117.975C95.1875 117.721 95.1543 117.449 95.0996 117.16C95.0488 116.871 94.9668 116.598 94.8535 116.34C94.7402 116.082 94.5879 115.871 94.3965 115.707C94.2051 115.543 93.9668 115.461 93.6816 115.461ZM103.959 116.211C103.627 116.145 103.318 116.076 103.033 116.006C102.752 115.932 102.457 115.84 102.148 115.73C101.844 115.621 101.488 115.482 101.082 115.314C100.68 115.143 100.367 115.031 100.145 114.98C99.9258 114.926 99.7539 114.898 99.6289 114.898C99.457 114.898 99.3164 114.939 99.207 115.021C99.0977 115.104 99.0039 115.25 98.9258 115.461C98.8516 115.672 98.7754 115.973 98.6973 116.363L98.2285 116.305C98.3652 115.531 98.541 114.986 98.7559 114.67C98.9707 114.354 99.291 114.195 99.7168 114.195C99.9121 114.195 100.135 114.234 100.385 114.312C100.635 114.387 100.986 114.525 101.439 114.729C101.955 114.955 102.4 115.133 102.775 115.262C103.15 115.391 103.496 115.482 103.812 115.537C104.133 115.588 104.461 115.613 104.797 115.613L104.375 116.855C104.258 116.891 104.133 116.93 104 116.973C103.871 117.016 103.744 117.061 103.619 117.107L103.807 117.916C104.084 118.029 104.365 118.111 104.65 118.162C104.939 118.209 105.299 118.232 105.729 118.232H105.734V119H105.488C104.867 119 104.369 118.904 103.994 118.713C103.619 118.521 103.383 118.23 103.285 117.84L103.127 117.225C102.717 117.4 102.297 117.615 101.867 117.869C101.125 118.295 100.424 118.59 99.7637 118.754C99.1035 118.918 98.4961 119 97.9414 119H97.4844C97.3672 119 97.3086 118.877 97.3086 118.631V118.602C97.3086 118.355 97.3672 118.232 97.4844 118.232H97.6191C98.1895 118.232 98.7832 118.168 99.4004 118.039C100.021 117.91 100.701 117.697 101.439 117.4C102.182 117.104 103.021 116.707 103.959 116.211ZM109.643 114.764C110.088 114.764 110.445 114.896 110.715 115.162C110.988 115.428 111.188 115.781 111.312 116.223C111.438 116.664 111.5 117.15 111.5 117.682C111.5 117.791 111.498 117.896 111.494 117.998C111.49 118.096 111.48 118.207 111.465 118.332C111.203 118.578 110.91 118.762 110.586 118.883C110.266 119.004 109.936 119.064 109.596 119.064C109.24 119.064 108.889 119.002 108.541 118.877C108.193 118.748 107.869 118.559 107.568 118.309L107.691 117.67C107.605 117.924 107.498 118.152 107.369 118.355C107.244 118.555 107.057 118.713 106.807 118.83C106.557 118.943 106.199 119 105.734 119C105.617 119 105.559 118.877 105.559 118.631V118.602C105.559 118.355 105.617 118.232 105.734 118.232C106.125 118.232 106.449 118.141 106.707 117.957C106.965 117.773 107.182 117.535 107.357 117.242C107.533 116.949 107.693 116.641 107.838 116.316C107.943 116.082 108.064 115.846 108.201 115.607C108.338 115.369 108.52 115.17 108.746 115.01C108.977 114.846 109.275 114.764 109.643 114.764ZM109.537 115.461C109.291 115.461 109.072 115.531 108.881 115.672C108.693 115.812 108.527 115.994 108.383 116.217C108.238 116.439 108.113 116.68 108.008 116.938C107.902 117.191 107.811 117.434 107.732 117.664C107.912 117.867 108.191 118.025 108.57 118.139C108.953 118.248 109.34 118.303 109.73 118.303C109.977 118.303 110.217 118.279 110.451 118.232C110.686 118.186 110.887 118.1 111.055 117.975C111.043 117.721 111.01 117.449 110.955 117.16C110.904 116.871 110.822 116.598 110.709 116.34C110.596 116.082 110.443 115.871 110.252 115.707C110.061 115.543 109.822 115.461 109.537 115.461Z" fill="#1F2F37"/>
<path d="M134.631 113.119L134.461 112.07L135.234 111.684L135.521 116.518C135.588 116.771 135.76 116.955 136.037 117.068C136.314 117.178 136.656 117.232 137.062 117.232H137.068V118H137.062C136.484 118 136.057 117.906 135.779 117.719C135.506 117.527 135.309 117.23 135.188 116.828C134.59 117.098 134.004 117.232 133.43 117.232C132.863 117.232 132.424 117.111 132.111 116.869C131.803 116.623 131.648 116.293 131.648 115.879C131.648 115.566 131.746 115.242 131.941 114.906C132.141 114.57 132.459 114.248 132.896 113.939C133.334 113.627 133.912 113.354 134.631 113.119ZM134.719 113.705C134.23 113.854 133.777 114.021 133.359 114.209C132.945 114.393 132.613 114.611 132.363 114.865C132.113 115.115 131.988 115.416 131.988 115.768C131.988 115.979 132.061 116.145 132.205 116.266C132.35 116.383 132.533 116.467 132.756 116.518C132.982 116.568 133.213 116.594 133.447 116.594C133.768 116.594 134.076 116.57 134.373 116.523C134.674 116.473 134.926 116.422 135.129 116.371C135.074 115.969 135.016 115.57 134.953 115.176C134.891 114.777 134.812 114.287 134.719 113.705ZM140.982 113.764C141.76 113.764 142.289 114.176 142.57 115C142.773 115.59 142.969 116.047 143.156 116.371C143.344 116.695 143.555 116.92 143.789 117.045C144.027 117.17 144.322 117.232 144.674 117.232H144.68V118H144.674C144.439 118 144.219 117.969 144.012 117.906C143.809 117.844 143.613 117.723 143.426 117.543C143.238 117.359 143.049 117.09 142.857 116.734C142.857 116.91 142.84 117.109 142.805 117.332C142.543 117.578 142.25 117.762 141.926 117.883C141.605 118.004 141.275 118.064 140.936 118.064C140.58 118.064 140.229 118.002 139.881 117.877C139.533 117.748 139.209 117.559 138.908 117.309L139.031 116.67C138.945 116.924 138.838 117.152 138.709 117.355C138.584 117.555 138.396 117.713 138.146 117.83C137.896 117.943 137.539 118 137.074 118C136.957 118 136.898 117.877 136.898 117.631V117.602C136.898 117.355 136.957 117.232 137.074 117.232C137.465 117.232 137.789 117.141 138.047 116.957C138.305 116.773 138.521 116.535 138.697 116.242C138.873 115.949 139.033 115.641 139.178 115.316C139.283 115.082 139.404 114.846 139.541 114.607C139.678 114.369 139.859 114.17 140.086 114.01C140.316 113.846 140.615 113.764 140.982 113.764ZM140.877 114.461C140.631 114.461 140.412 114.531 140.221 114.672C140.033 114.812 139.867 114.994 139.723 115.217C139.578 115.439 139.453 115.68 139.348 115.938C139.242 116.191 139.15 116.434 139.072 116.664C139.252 116.867 139.531 117.025 139.91 117.139C140.293 117.248 140.68 117.303 141.07 117.303C141.316 117.303 141.557 117.279 141.791 117.232C142.025 117.186 142.227 117.1 142.395 116.975C142.383 116.721 142.35 116.449 142.295 116.16C142.244 115.871 142.162 115.598 142.049 115.34C141.936 115.082 141.783 114.871 141.592 114.707C141.4 114.543 141.162 114.461 140.877 114.461ZM149.514 113.541C150.107 113.541 150.576 113.709 150.92 114.045C151.264 114.377 151.436 114.848 151.436 115.457C151.436 115.727 151.414 115.961 151.371 116.16C151.328 116.359 151.242 116.564 151.113 116.775C150.988 116.982 150.797 117.238 150.539 117.543C150.004 117.734 149.424 117.859 148.799 117.918C148.174 117.973 147.529 118 146.865 118H144.68C144.562 118 144.504 117.877 144.504 117.631V117.602C144.504 117.355 144.562 117.232 144.68 117.232H145.623C145.959 117.037 146.193 116.717 146.326 116.271C146.463 115.826 146.525 115.275 146.514 114.619C146.506 113.959 146.447 113.215 146.338 112.387C146.232 111.555 146.105 110.656 145.957 109.691L146.555 109.211C146.727 109.742 146.887 110.271 147.035 110.799L146.754 110.951C146.832 111.721 146.895 112.49 146.941 113.26C146.988 114.025 146.992 114.713 146.953 115.322C147.402 114.74 147.834 114.299 148.248 113.998C148.666 113.693 149.088 113.541 149.514 113.541ZM149.49 114.227C149.107 114.227 148.742 114.352 148.395 114.602C148.047 114.848 147.697 115.195 147.346 115.645C146.994 116.094 146.619 116.623 146.221 117.232C147.322 117.232 148.24 117.213 148.975 117.174C149.713 117.131 150.34 116.99 150.855 116.752C150.965 116.307 150.977 115.893 150.891 115.51C150.805 115.123 150.641 114.812 150.398 114.578C150.156 114.344 149.854 114.227 149.49 114.227ZM153.457 109.211V116.553C153.574 116.756 153.76 116.92 154.014 117.045C154.268 117.17 154.646 117.232 155.15 117.232H155.156V118H155.15C154.736 118 154.365 117.943 154.037 117.83C153.709 117.717 153.451 117.527 153.264 117.262C153.076 116.996 152.982 116.635 152.982 116.178V113.535C152.982 112.777 152.959 112.084 152.912 111.455C152.869 110.822 152.805 110.25 152.719 109.738L153.457 109.211ZM159.475 115.58C159.475 116.248 159.314 116.756 158.994 117.104C158.678 117.451 158.211 117.688 157.594 117.812C156.98 117.938 156.225 118 155.326 118H155.156C155.039 118 154.98 117.877 154.98 117.631V117.602C154.98 117.355 155.039 117.232 155.156 117.232H155.309C155.887 117.232 156.441 117.205 156.973 117.15C157.504 117.092 157.951 117.012 158.314 116.91C158.678 116.809 158.896 116.691 158.971 116.559C158.979 116.363 158.982 116.158 158.982 115.943C158.986 115.729 158.988 115.537 158.988 115.369C158.695 115.455 158.416 115.518 158.15 115.557C157.885 115.592 157.592 115.609 157.271 115.609C156.662 115.609 156.234 115.504 155.988 115.293C155.742 115.082 155.619 114.713 155.619 114.186C155.619 113.365 155.785 112.709 156.117 112.217C156.453 111.725 156.898 111.479 157.453 111.479C158.094 111.479 158.59 111.834 158.941 112.545C159.297 113.256 159.475 114.268 159.475 115.58ZM158.947 114.689C158.873 113.885 158.699 113.271 158.426 112.85C158.152 112.428 157.777 112.217 157.301 112.217C157.047 112.217 156.816 112.295 156.609 112.451C156.402 112.604 156.238 112.812 156.117 113.078C156 113.344 155.941 113.645 155.941 113.98C155.941 114.562 156.383 114.854 157.266 114.854C157.562 114.854 157.836 114.842 158.086 114.818C158.34 114.795 158.627 114.752 158.947 114.689ZM157.33 108.273C157.447 108.32 157.572 108.391 157.705 108.484C157.842 108.574 157.99 108.697 158.15 108.854C158.057 108.986 157.961 109.121 157.863 109.258C157.77 109.391 157.672 109.525 157.57 109.662C157.449 109.549 157.318 109.445 157.178 109.352C157.041 109.254 156.902 109.168 156.762 109.094C156.859 108.957 156.953 108.822 157.043 108.689C157.137 108.557 157.232 108.418 157.33 108.273ZM124.869 140.434C124.732 140.996 124.623 141.467 124.541 141.846C124.459 142.225 124.4 142.549 124.365 142.818C124.33 143.084 124.312 143.338 124.312 143.58C124.312 144.205 124.57 144.697 125.086 145.057C125.602 145.416 126.318 145.596 127.236 145.596C127.748 145.596 128.242 145.553 128.719 145.467C129.199 145.381 129.627 145.258 130.002 145.098C130.381 144.938 130.67 144.748 130.869 144.529V143.709C130.529 143.416 130.09 143.199 129.551 143.059C129.016 142.922 128.307 142.846 127.424 142.83L127.564 142.232H131.221V143H130.559C130.801 143.094 130.973 143.207 131.074 143.34C131.176 143.477 131.227 143.66 131.227 143.891C131.227 144.664 130.873 145.275 130.166 145.725C129.459 146.178 128.475 146.404 127.213 146.404C126.088 146.404 125.256 146.143 124.717 145.619C124.178 145.1 123.908 144.307 123.908 143.24C123.908 143.006 123.92 142.76 123.943 142.502C123.967 142.244 124.008 141.934 124.066 141.57C124.129 141.207 124.213 140.754 124.318 140.211L124.869 140.434ZM133.172 134.164C133.238 134.531 133.297 134.943 133.348 135.4C133.398 135.854 133.439 136.322 133.471 136.807C133.506 137.291 133.531 137.766 133.547 138.23C133.566 138.695 133.576 139.121 133.576 139.508C133.576 139.598 133.572 139.754 133.564 139.977C133.557 140.199 133.547 140.457 133.535 140.75C133.527 141.039 133.516 141.334 133.5 141.635C133.719 141.826 133.914 141.965 134.086 142.051C134.258 142.133 134.426 142.184 134.59 142.203C134.758 142.223 134.941 142.232 135.141 142.232H135.146V143H135.141C134.66 143 134.287 142.934 134.021 142.801C133.76 142.668 133.555 142.453 133.406 142.156C133.148 142.484 132.818 142.707 132.416 142.824C132.018 142.941 131.621 143 131.227 143C131.109 143 131.051 142.877 131.051 142.631V142.602C131.051 142.355 131.109 142.232 131.227 142.232C131.574 142.232 131.918 142.213 132.258 142.174C132.602 142.135 132.885 142.061 133.107 141.951C133.107 141.135 133.094 140.283 133.066 139.396C133.043 138.506 132.992 137.643 132.914 136.807C132.836 135.967 132.719 135.217 132.562 134.557L133.172 134.164ZM134.982 146.064C134.775 145.873 134.533 145.703 134.256 145.555C134.436 145.305 134.605 145.059 134.766 144.816C134.984 144.898 135.23 145.072 135.504 145.338C135.355 145.553 135.182 145.795 134.982 146.064ZM136.014 145.555C136.174 145.328 136.344 145.082 136.523 144.816C136.762 144.91 137.008 145.084 137.262 145.338C137.176 145.459 137.09 145.58 137.004 145.701C136.918 145.822 136.83 145.943 136.74 146.064C136.533 145.873 136.291 145.703 136.014 145.555ZM135.152 143C135.035 143 134.977 142.877 134.977 142.631V142.602C134.977 142.355 135.035 142.232 135.152 142.232C135.523 142.232 135.828 142.199 136.066 142.133C136.309 142.062 136.504 141.936 136.652 141.752C136.805 141.564 136.93 141.299 137.027 140.955C137.129 140.611 137.223 140.164 137.309 139.613L137.818 139.672C137.799 139.902 137.783 140.117 137.771 140.316C137.764 140.512 137.76 140.688 137.76 140.844C137.76 141.273 137.893 141.613 138.158 141.863C138.424 142.109 138.818 142.232 139.342 142.232H139.348V143H139.342C138.795 143 138.363 142.861 138.047 142.584C137.734 142.303 137.518 141.879 137.396 141.312C137.221 141.867 136.953 142.287 136.594 142.572C136.238 142.857 135.758 143 135.152 143ZM142.523 137.469C142.82 137.469 143.111 137.529 143.396 137.65C143.682 137.771 143.963 137.947 144.24 138.178L143.93 138.834C143.719 138.662 143.488 138.529 143.238 138.436C142.992 138.342 142.701 138.295 142.365 138.295C142.061 138.295 141.781 138.365 141.527 138.506C141.277 138.646 141.076 138.842 140.924 139.092C140.775 139.338 140.701 139.621 140.701 139.941C140.701 140.398 140.92 140.762 141.357 141.031C141.799 141.297 142.494 141.43 143.443 141.43C143.568 141.43 143.74 141.422 143.959 141.406C144.182 141.391 144.402 141.375 144.621 141.359L144.568 142.074C144.111 142.105 143.676 142.174 143.262 142.279C142.852 142.385 142.473 142.492 142.125 142.602C141.742 142.723 141.312 142.82 140.836 142.895C140.363 142.965 139.867 143 139.348 143C139.23 143 139.172 142.877 139.172 142.631V142.602C139.172 142.355 139.23 142.232 139.348 142.232C139.617 142.232 139.916 142.229 140.244 142.221C140.576 142.213 140.896 142.201 141.205 142.186C141.518 142.17 141.775 142.152 141.979 142.133C141.443 141.984 141.033 141.721 140.748 141.342C140.463 140.959 140.32 140.543 140.32 140.094C140.32 139.73 140.385 139.391 140.514 139.074C140.646 138.758 140.82 138.479 141.035 138.236C141.254 137.994 141.492 137.807 141.75 137.674C142.008 137.537 142.266 137.469 142.523 137.469ZM146.637 134.211V141.553C146.754 141.756 146.939 141.92 147.193 142.045C147.447 142.17 147.826 142.232 148.33 142.232H148.336V143H148.33C147.916 143 147.545 142.943 147.217 142.83C146.889 142.717 146.631 142.527 146.443 142.262C146.256 141.996 146.162 141.635 146.162 141.178V138.535C146.162 137.777 146.139 137.084 146.092 136.455C146.049 135.822 145.984 135.25 145.898 134.738L146.637 134.211ZM152.244 138.764C153.021 138.764 153.551 139.176 153.832 140C154.035 140.59 154.23 141.047 154.418 141.371C154.605 141.695 154.816 141.92 155.051 142.045C155.289 142.17 155.584 142.232 155.936 142.232H155.941V143H155.936C155.701 143 155.48 142.969 155.273 142.906C155.07 142.844 154.875 142.723 154.688 142.543C154.5 142.359 154.311 142.09 154.119 141.734C154.119 141.91 154.102 142.109 154.066 142.332C153.805 142.578 153.512 142.762 153.188 142.883C152.867 143.004 152.537 143.064 152.197 143.064C151.842 143.064 151.49 143.002 151.143 142.877C150.795 142.748 150.471 142.559 150.17 142.309L150.293 141.67C150.207 141.924 150.1 142.152 149.971 142.355C149.846 142.555 149.658 142.713 149.408 142.83C149.158 142.943 148.801 143 148.336 143C148.219 143 148.16 142.877 148.16 142.631V142.602C148.16 142.355 148.219 142.232 148.336 142.232C148.727 142.232 149.051 142.141 149.309 141.957C149.566 141.773 149.783 141.535 149.959 141.242C150.135 140.949 150.295 140.641 150.439 140.316C150.545 140.082 150.666 139.846 150.803 139.607C150.939 139.369 151.121 139.17 151.348 139.01C151.578 138.846 151.877 138.764 152.244 138.764ZM152.139 139.461C151.893 139.461 151.674 139.531 151.482 139.672C151.295 139.812 151.129 139.994 150.984 140.217C150.84 140.439 150.715 140.68 150.609 140.938C150.504 141.191 150.412 141.434 150.334 141.664C150.514 141.867 150.793 142.025 151.172 142.139C151.555 142.248 151.941 142.303 152.332 142.303C152.578 142.303 152.818 142.279 153.053 142.232C153.287 142.186 153.488 142.1 153.656 141.975C153.645 141.721 153.611 141.449 153.557 141.16C153.506 140.871 153.424 140.598 153.311 140.34C153.197 140.082 153.045 139.871 152.854 139.707C152.662 139.543 152.424 139.461 152.139 139.461ZM162.562 143.064C161.574 143.064 161.059 142.48 161.016 141.312C160.895 141.855 160.676 142.283 160.359 142.596C160.047 142.908 159.68 143.064 159.258 143.064C158.41 143.064 157.957 142.443 157.898 141.201C157.676 141.822 157.406 142.277 157.09 142.566C156.777 142.855 156.395 143 155.941 143C155.824 143 155.766 142.877 155.766 142.631V142.602C155.766 142.355 155.824 142.232 155.941 142.232C156.484 142.232 156.898 142.049 157.184 141.682C157.473 141.314 157.701 140.678 157.869 139.771L158.373 139.83C158.357 140.037 158.342 140.273 158.326 140.539C158.311 140.805 158.303 141.006 158.303 141.143C158.303 141.561 158.387 141.863 158.555 142.051C158.723 142.234 158.996 142.326 159.375 142.326C159.66 142.326 159.893 142.266 160.072 142.145C160.252 142.023 160.406 141.807 160.535 141.494C160.664 141.182 160.793 140.738 160.922 140.164H161.49C161.479 140.25 161.465 140.371 161.449 140.527C161.438 140.68 161.426 140.838 161.414 141.002C161.406 141.162 161.402 141.297 161.402 141.406C161.402 141.777 161.479 142.027 161.631 142.156C161.783 142.281 162.084 142.344 162.533 142.344C162.869 142.344 163.125 142.311 163.301 142.244C163.477 142.178 163.631 142.061 163.764 141.893C163.709 141.506 163.631 141.139 163.529 140.791C163.428 140.439 163.305 140.105 163.16 139.789L163.787 139.074C164.045 139.781 164.174 140.559 164.174 141.406C164.174 141.523 164.166 141.623 164.15 141.705C164.139 141.787 164.104 141.891 164.045 142.016C163.99 142.141 163.898 142.328 163.77 142.578C163.395 142.902 162.992 143.064 162.562 143.064ZM166.254 134.211C166.289 134.406 166.326 134.684 166.365 135.043C166.404 135.398 166.443 135.801 166.482 136.25C166.521 136.695 166.557 137.158 166.588 137.639C166.619 138.115 166.645 138.576 166.664 139.021C166.684 139.463 166.693 139.854 166.693 140.193C166.693 140.998 166.639 141.639 166.529 142.115C166.424 142.592 166.273 142.922 166.078 143.105L165.744 142.994C165.889 142.646 165.988 142.266 166.043 141.852C166.098 141.438 166.125 140.906 166.125 140.258C166.125 139.793 166.113 139.305 166.09 138.793C166.066 138.277 166.033 137.766 165.99 137.258C165.947 136.75 165.896 136.275 165.838 135.834C165.783 135.389 165.725 135.008 165.662 134.691L166.254 134.211Z" fill="#1F2F37"/>
<path d="M17.7344 126.211V133.553C17.8516 133.756 18.0371 133.92 18.291 134.045C18.5449 134.17 18.9238 134.232 19.4277 134.232H19.4336V135H19.4277C19.0137 135 18.6426 134.943 18.3145 134.83C17.9863 134.717 17.7285 134.527 17.541 134.262C17.3535 133.996 17.2598 133.635 17.2598 133.178V130.535C17.2598 129.777 17.2363 129.084 17.1895 128.455C17.1465 127.822 17.082 127.25 16.9961 126.738L17.7344 126.211ZM26.5879 130.541C27.1816 130.541 27.6484 130.723 27.9883 131.086C28.332 131.449 28.5039 131.936 28.5039 132.545C28.5039 132.814 28.4824 133.051 28.4395 133.254C28.3965 133.453 28.3105 133.658 28.1816 133.869C28.0527 134.076 27.8594 134.332 27.6016 134.637C27.1484 134.789 26.707 134.906 26.2773 134.988C25.8477 135.07 25.4043 135.111 24.9473 135.111C24.4395 135.111 23.9668 135.061 23.5293 134.959C23.0957 134.854 22.7207 134.682 22.4043 134.443C22.0918 134.205 21.8633 133.889 21.7188 133.494C21.5391 134.088 21.2559 134.488 20.8691 134.695C20.4824 134.898 20.0039 135 19.4336 135C19.3164 135 19.2578 134.877 19.2578 134.631V134.602C19.2578 134.355 19.3164 134.232 19.4336 134.232C19.7227 134.232 19.9785 134.215 20.2012 134.18C20.4277 134.145 20.6309 134.047 20.8105 133.887C20.9902 133.727 21.1582 133.467 21.3145 133.107C21.4707 132.744 21.623 132.234 21.7715 131.578L22.2109 131.648C22.1758 131.875 22.1504 132.068 22.1348 132.229C22.123 132.385 22.1172 132.521 22.1172 132.639C22.1172 132.959 22.1914 133.225 22.3398 133.436C22.4922 133.643 22.6934 133.816 22.9434 133.957C23.4551 133.113 23.9082 132.443 24.3027 131.947C24.7012 131.447 25.0801 131.088 25.4395 130.869C25.8027 130.65 26.1855 130.541 26.5879 130.541ZM26.5527 131.227C26.1582 131.227 25.7949 131.336 25.4629 131.555C25.1348 131.77 24.8027 132.094 24.4668 132.527C24.1348 132.957 23.7598 133.494 23.3418 134.139C23.6074 134.201 23.9023 134.254 24.2266 134.297C24.5508 134.336 24.8594 134.355 25.1523 134.355C25.7812 134.355 26.3086 134.314 26.7344 134.232C27.1602 134.15 27.5566 134.021 27.9238 133.846C28.0332 133.4 28.043 132.979 27.9531 132.58C27.8672 132.182 27.7012 131.857 27.4551 131.607C27.2129 131.354 26.9121 131.227 26.5527 131.227ZM26.4062 127.254C26.5234 127.301 26.6484 127.371 26.7812 127.465C26.918 127.555 27.0664 127.678 27.2266 127.834C27.1328 127.967 27.0371 128.102 26.9395 128.238C26.8457 128.371 26.748 128.506 26.6465 128.643C26.5254 128.529 26.3945 128.426 26.2539 128.332C26.1172 128.234 25.9785 128.148 25.8379 128.074C25.9355 127.938 26.0293 127.803 26.1191 127.67C26.2129 127.537 26.3086 127.398 26.4062 127.254ZM30.7305 131.818L31.5801 133.301C31.752 133.566 31.9531 133.789 32.1836 133.969C32.418 134.145 32.7305 134.232 33.1211 134.232H33.127V135H33.1211C32.8438 135 32.5977 134.959 32.3828 134.877C32.1719 134.791 31.9805 134.674 31.8086 134.525C31.9102 135.244 31.8652 135.881 31.6738 136.436C31.4824 136.99 31.1836 137.424 30.7773 137.736C30.3711 138.053 29.8926 138.211 29.3418 138.211C29.1699 138.211 28.9824 138.195 28.7793 138.164C28.5762 138.137 28.3828 138.107 28.1992 138.076L28.375 137.537C28.9297 137.518 29.4297 137.453 29.875 137.344C30.3203 137.234 30.6934 137.053 30.9941 136.799C31.2949 136.549 31.5039 136.205 31.6211 135.768C31.5703 135.299 31.4355 134.803 31.2168 134.279C31.002 133.752 30.668 133.146 30.2148 132.463L30.7305 131.818ZM33.9941 138.064C33.7871 137.873 33.5449 137.703 33.2676 137.555C33.4473 137.305 33.6172 137.059 33.7773 136.816C33.9961 136.898 34.2422 137.072 34.5156 137.338C34.3672 137.553 34.1934 137.795 33.9941 138.064ZM35.0254 137.555C35.1855 137.328 35.3555 137.082 35.5352 136.816C35.7734 136.91 36.0195 137.084 36.2734 137.338C36.1875 137.459 36.1016 137.58 36.0156 137.701C35.9297 137.822 35.8418 137.943 35.752 138.064C35.5449 137.873 35.3027 137.703 35.0254 137.555ZM33.1328 135C33.0156 135 32.957 134.877 32.957 134.631V134.602C32.957 134.355 33.0156 134.232 33.1328 134.232H34.1699C34.541 134.232 34.8457 134.199 35.084 134.133C35.3262 134.062 35.5215 133.936 35.6699 133.752C35.8223 133.564 35.9473 133.299 36.0449 132.955C36.1465 132.611 36.2402 132.164 36.3262 131.613L36.8359 131.672C36.8164 131.902 36.8008 132.113 36.7891 132.305C36.7812 132.496 36.7773 132.67 36.7773 132.826C36.7773 133.264 36.9062 133.607 37.1641 133.857C37.4258 134.107 37.8242 134.232 38.3594 134.232H38.3652V135H38.3594C37.8125 135 37.3809 134.861 37.0645 134.584C36.752 134.303 36.5352 133.879 36.4141 133.312C36.2383 133.863 35.9727 134.283 35.6172 134.572C35.2617 134.857 34.7812 135 34.1758 135H33.1328ZM40.3164 126.164C40.3828 126.531 40.4414 126.943 40.4922 127.4C40.543 127.854 40.584 128.322 40.6152 128.807C40.6504 129.291 40.6758 129.766 40.6914 130.23C40.7109 130.695 40.7207 131.121 40.7207 131.508C40.7207 131.598 40.7168 131.754 40.709 131.977C40.7012 132.199 40.6914 132.457 40.6797 132.75C40.6719 133.039 40.6602 133.334 40.6445 133.635C40.8633 133.826 41.0586 133.965 41.2305 134.051C41.4023 134.133 41.5703 134.184 41.7344 134.203C41.9023 134.223 42.0859 134.232 42.2852 134.232H42.291V135H42.2852C41.8047 135 41.4316 134.934 41.166 134.801C40.9043 134.668 40.6992 134.453 40.5508 134.156C40.293 134.484 39.9629 134.707 39.5605 134.824C39.1621 134.941 38.7656 135 38.3711 135C38.2539 135 38.1953 134.877 38.1953 134.631V134.602C38.1953 134.355 38.2539 134.232 38.3711 134.232C38.7188 134.232 39.0625 134.213 39.4023 134.174C39.7461 134.135 40.0293 134.061 40.252 133.951C40.252 133.135 40.2383 132.283 40.2109 131.396C40.1875 130.506 40.1367 129.643 40.0586 128.807C39.9805 127.967 39.8633 127.217 39.707 126.557L40.3164 126.164ZM45.4727 129.469C45.7695 129.469 46.0605 129.529 46.3457 129.65C46.6309 129.771 46.9121 129.947 47.1895 130.178L46.8789 130.834C46.668 130.662 46.4375 130.529 46.1875 130.436C45.9414 130.342 45.6504 130.295 45.3145 130.295C45.0098 130.295 44.7305 130.365 44.4766 130.506C44.2266 130.646 44.0254 130.842 43.873 131.092C43.7246 131.338 43.6504 131.621 43.6504 131.941C43.6504 132.398 43.8691 132.762 44.3066 133.031C44.748 133.297 45.4434 133.43 46.3926 133.43C46.5176 133.43 46.6895 133.422 46.9082 133.406C47.1309 133.391 47.3516 133.375 47.5703 133.359L47.5176 134.074C47.0605 134.105 46.625 134.174 46.2109 134.279C45.8008 134.385 45.4219 134.492 45.0742 134.602C44.6914 134.723 44.2617 134.82 43.7852 134.895C43.3125 134.965 42.8164 135 42.2969 135C42.1797 135 42.1211 134.877 42.1211 134.631V134.602C42.1211 134.355 42.1797 134.232 42.2969 134.232C42.5664 134.232 42.8652 134.229 43.1934 134.221C43.5254 134.213 43.8457 134.201 44.1543 134.186C44.4668 134.17 44.7246 134.152 44.9277 134.133C44.3926 133.984 43.9824 133.721 43.6973 133.342C43.4121 132.959 43.2695 132.543 43.2695 132.094C43.2695 131.73 43.334 131.391 43.4629 131.074C43.5957 130.758 43.7695 130.479 43.9844 130.236C44.2031 129.994 44.4414 129.807 44.6992 129.674C44.957 129.537 45.2148 129.469 45.4727 129.469ZM13.4746 157.434C13.3379 157.996 13.2285 158.467 13.1465 158.846C13.0645 159.225 13.0059 159.549 12.9707 159.818C12.9355 160.084 12.918 160.338 12.918 160.58C12.918 161.205 13.1758 161.697 13.6914 162.057C14.207 162.416 14.9238 162.596 15.8418 162.596C16.3535 162.596 16.8477 162.553 17.3242 162.467C17.8047 162.381 18.2324 162.258 18.6074 162.098C18.9863 161.938 19.2754 161.748 19.4746 161.529V160.709C19.1348 160.416 18.6953 160.199 18.1562 160.059C17.6211 159.922 16.9121 159.846 16.0293 159.83L16.1699 159.232H19.8262V160H19.1641C19.4062 160.094 19.5781 160.207 19.6797 160.34C19.7812 160.477 19.832 160.66 19.832 160.891C19.832 161.664 19.4785 162.275 18.7715 162.725C18.0645 163.178 17.0801 163.404 15.8184 163.404C14.6934 163.404 13.8613 163.143 13.3223 162.619C12.7832 162.1 12.5137 161.307 12.5137 160.24C12.5137 160.006 12.5254 159.76 12.5488 159.502C12.5723 159.244 12.6133 158.934 12.6719 158.57C12.7344 158.207 12.8184 157.754 12.9238 157.211L13.4746 157.434ZM23.7402 155.764C24.5176 155.764 25.0469 156.176 25.3281 157C25.5312 157.59 25.7266 158.047 25.9141 158.371C26.1016 158.695 26.3125 158.92 26.5469 159.045C26.7852 159.17 27.0801 159.232 27.4316 159.232H27.4375V160H27.4316C27.1973 160 26.9766 159.969 26.7695 159.906C26.5664 159.844 26.3711 159.723 26.1836 159.543C25.9961 159.359 25.8066 159.09 25.6152 158.734C25.6152 158.91 25.5977 159.109 25.5625 159.332C25.3008 159.578 25.0078 159.762 24.6836 159.883C24.3633 160.004 24.0332 160.064 23.6934 160.064C23.3379 160.064 22.9863 160.002 22.6387 159.877C22.291 159.748 21.9668 159.559 21.666 159.309L21.7891 158.67C21.7031 158.924 21.5957 159.152 21.4668 159.355C21.3418 159.555 21.1543 159.713 20.9043 159.83C20.6543 159.943 20.2969 160 19.832 160C19.7148 160 19.6562 159.877 19.6562 159.631V159.602C19.6562 159.355 19.7148 159.232 19.832 159.232C20.2227 159.232 20.5469 159.141 20.8047 158.957C21.0625 158.773 21.2793 158.535 21.4551 158.242C21.6309 157.949 21.791 157.641 21.9355 157.316C22.041 157.082 22.1621 156.846 22.2988 156.607C22.4355 156.369 22.6172 156.17 22.8438 156.01C23.0742 155.846 23.373 155.764 23.7402 155.764ZM23.6348 156.461C23.3887 156.461 23.1699 156.531 22.9785 156.672C22.791 156.812 22.625 156.994 22.4805 157.217C22.3359 157.439 22.2109 157.68 22.1055 157.938C22 158.191 21.9082 158.434 21.8301 158.664C22.0098 158.867 22.2891 159.025 22.668 159.139C23.0508 159.248 23.4375 159.303 23.8281 159.303C24.0742 159.303 24.3145 159.279 24.5488 159.232C24.7832 159.186 24.9844 159.1 25.1523 158.975C25.1406 158.721 25.1074 158.449 25.0527 158.16C25.002 157.871 24.9199 157.598 24.8066 157.34C24.6934 157.082 24.541 156.871 24.3496 156.707C24.1582 156.543 23.9199 156.461 23.6348 156.461ZM27.2676 163.064C27.0605 162.873 26.8184 162.703 26.541 162.555C26.7207 162.305 26.8906 162.059 27.0508 161.816C27.2695 161.898 27.5156 162.072 27.7891 162.338C27.6406 162.553 27.4668 162.795 27.2676 163.064ZM28.2988 162.555C28.459 162.328 28.6289 162.082 28.8086 161.816C29.0469 161.91 29.293 162.084 29.5469 162.338C29.4609 162.459 29.375 162.58 29.2891 162.701C29.2031 162.822 29.1152 162.943 29.0254 163.064C28.8184 162.873 28.5762 162.703 28.2988 162.555ZM27.4375 160C27.3203 160 27.2617 159.877 27.2617 159.631V159.602C27.2617 159.355 27.3203 159.232 27.4375 159.232C27.8086 159.232 28.1133 159.199 28.3516 159.133C28.5938 159.062 28.7891 158.936 28.9375 158.752C29.0898 158.564 29.2148 158.299 29.3125 157.955C29.4141 157.611 29.5078 157.164 29.5938 156.613L30.1035 156.672C30.084 156.902 30.0684 157.117 30.0566 157.316C30.0488 157.512 30.0449 157.688 30.0449 157.844C30.0449 158.273 30.1777 158.613 30.4434 158.863C30.709 159.109 31.1035 159.232 31.627 159.232H31.6328V160H31.627C31.0801 160 30.6484 159.861 30.332 159.584C30.0195 159.303 29.8027 158.879 29.6816 158.312C29.5059 158.867 29.2383 159.287 28.8789 159.572C28.5234 159.857 28.043 160 27.4375 160ZM33.4609 154.779C33.9453 154.889 34.3828 155.004 34.7734 155.125C35.168 155.246 35.5391 155.375 35.8867 155.512C36.8945 155.906 37.625 156.32 38.0781 156.754C38.5312 157.188 38.7578 157.586 38.7578 157.949C38.7578 158.113 38.7246 158.322 38.6582 158.576C38.5957 158.83 38.5195 159.049 38.4297 159.232L37.8906 160.24C37.3203 160.197 36.8203 160.141 36.3906 160.07C35.9609 160.004 35.5723 159.922 35.2246 159.824C34.877 159.723 34.5391 159.607 34.2109 159.479C33.4492 159.826 32.5898 160 31.6328 160C31.5156 160 31.457 159.877 31.457 159.631V159.602C31.457 159.355 31.5156 159.232 31.6328 159.232C32.0273 159.232 32.3496 159.225 32.5996 159.209C32.8496 159.193 33.0645 159.166 33.2441 159.127C32.9824 158.873 32.793 158.596 32.6758 158.295C32.5625 157.994 32.5059 157.658 32.5059 157.287C32.5059 156.99 32.582 156.619 32.7344 156.174C32.8906 155.725 33.1328 155.26 33.4609 154.779ZM34.1172 158.799C34.6641 158.596 35.0645 158.381 35.3184 158.154C35.5762 157.928 35.7051 157.629 35.7051 157.258C35.7051 156.969 35.6367 156.695 35.5 156.438C35.3672 156.176 35.1914 155.965 34.9727 155.805C34.7539 155.641 34.5176 155.559 34.2637 155.559C34.0176 155.559 33.7832 155.633 33.5605 155.781C33.3379 155.93 33.1543 156.131 33.0098 156.385C32.8691 156.639 32.7988 156.926 32.7988 157.246C32.7988 157.598 32.9062 157.891 33.1211 158.125C33.3359 158.355 33.668 158.58 34.1172 158.799ZM34.9082 159.145C35.4785 159.301 35.9766 159.414 36.4023 159.484C36.832 159.555 37.2363 159.6 37.6152 159.619C37.9043 159.205 38.1035 158.852 38.2129 158.559C38.3223 158.262 38.3242 157.996 38.2188 157.762C38.1172 157.527 37.8887 157.295 37.5332 157.064C37.1816 156.83 36.6875 156.568 36.0508 156.279C36.0938 156.502 36.1152 156.709 36.1152 156.9C36.1152 157.26 36.0352 157.625 35.875 157.996C35.7188 158.363 35.3965 158.746 34.9082 159.145ZM40.8555 151.211C40.8906 151.406 40.9277 151.684 40.9668 152.043C41.0059 152.398 41.0449 152.801 41.084 153.25C41.123 153.695 41.1582 154.158 41.1895 154.639C41.2207 155.115 41.2461 155.576 41.2656 156.021C41.2852 156.463 41.2949 156.854 41.2949 157.193C41.2949 157.998 41.2402 158.639 41.1309 159.115C41.0254 159.592 40.875 159.922 40.6797 160.105L40.3457 159.994C40.4902 159.646 40.5898 159.266 40.6445 158.852C40.6992 158.438 40.7266 157.906 40.7266 157.258C40.7266 156.793 40.7148 156.305 40.6914 155.793C40.668 155.277 40.6348 154.766 40.5918 154.258C40.5488 153.75 40.498 153.275 40.4395 152.834C40.3848 152.389 40.3262 152.008 40.2637 151.691L40.8555 151.211ZM43.9258 156.818L44.7754 158.301C44.9473 158.566 45.1484 158.789 45.3789 158.969C45.6133 159.145 45.9258 159.232 46.3164 159.232H46.3223V160H46.3164C46.0391 160 45.793 159.959 45.5781 159.877C45.3672 159.791 45.1758 159.674 45.0039 159.525C45.1055 160.244 45.0605 160.881 44.8691 161.436C44.6777 161.99 44.3789 162.424 43.9727 162.736C43.5664 163.053 43.0879 163.211 42.5371 163.211C42.3652 163.211 42.1777 163.195 41.9746 163.164C41.7715 163.137 41.5781 163.107 41.3945 163.076L41.5703 162.537C42.125 162.518 42.625 162.453 43.0703 162.344C43.5156 162.234 43.8887 162.053 44.1895 161.799C44.4902 161.549 44.6992 161.205 44.8164 160.768C44.7656 160.299 44.6309 159.803 44.4121 159.279C44.1973 158.752 43.8633 158.146 43.4102 157.463L43.9258 156.818ZM46.3281 160C46.2109 160 46.1523 159.877 46.1523 159.631V159.602C46.1523 159.355 46.2109 159.232 46.3281 159.232H47.1367C47.543 159.232 47.9316 159.211 48.3027 159.168C48.6738 159.125 48.9512 159.053 49.1348 158.951C49.1113 158.545 49.0371 158.092 48.9121 157.592C48.7871 157.088 48.5859 156.529 48.3086 155.916L49.0059 155.295C49.1035 155.564 49.1934 155.887 49.2754 156.262C49.3613 156.633 49.4297 156.998 49.4805 157.357C49.5312 157.717 49.5566 158.012 49.5566 158.242C49.5566 158.586 49.5137 158.857 49.4277 159.057C49.3457 159.256 49.1875 159.486 48.9531 159.748C48.6641 159.846 48.3828 159.912 48.1094 159.947C47.8398 159.982 47.5098 160 47.1191 160H46.3281ZM47.5527 161.641C47.6699 161.688 47.7949 161.756 47.9277 161.846C48.0645 161.939 48.2129 162.064 48.373 162.221C48.2793 162.354 48.1836 162.486 48.0859 162.619C47.9922 162.756 47.8945 162.893 47.793 163.029C47.6719 162.916 47.541 162.811 47.4004 162.713C47.2637 162.619 47.125 162.535 46.9844 162.461C47.082 162.324 47.1758 162.189 47.2656 162.057C47.3594 161.924 47.4551 161.785 47.5527 161.641ZM51.6484 151.211C51.6836 151.406 51.7207 151.684 51.7598 152.043C51.7988 152.398 51.8379 152.801 51.877 153.25C51.916 153.695 51.9512 154.158 51.9824 154.639C52.0137 155.115 52.0391 155.576 52.0586 156.021C52.0781 156.463 52.0879 156.854 52.0879 157.193C52.0879 157.998 52.0332 158.639 51.9238 159.115C51.8184 159.592 51.668 159.922 51.4727 160.105L51.1387 159.994C51.2832 159.646 51.3828 159.266 51.4375 158.852C51.4922 158.438 51.5195 157.906 51.5195 157.258C51.5195 156.793 51.5078 156.305 51.4844 155.793C51.4609 155.277 51.4277 154.766 51.3848 154.258C51.3418 153.75 51.291 153.275 51.2324 152.834C51.1777 152.389 51.1191 152.008 51.0566 151.691L51.6484 151.211Z" fill="#1F2F37"/>
<path d="M88.5566 170.625L89.2891 170.707C89.2266 171.492 89.0996 172.117 88.9082 172.582C88.7207 173.043 88.4824 173.375 88.1934 173.578C87.9043 173.781 87.582 173.883 87.2266 173.883C86.8516 173.883 86.5391 173.777 86.2891 173.566C86.043 173.352 85.8691 173.078 85.7676 172.746C85.6465 173 85.4766 173.227 85.2578 173.426C85.0391 173.621 84.7891 173.752 84.5078 173.818C84.2266 173.881 83.9277 173.844 83.6113 173.707C83.8496 174.445 84.043 175.281 84.1914 176.215C84.3438 177.145 84.4199 178.121 84.4199 179.145L83.8398 180H83.5703C83.5312 178.449 83.3398 177.008 82.9961 175.676C82.6562 174.344 82.1777 173.158 81.5605 172.119L82.1523 170.795H82.4102C82.6719 171.268 82.8945 171.631 83.0781 171.885C83.2656 172.139 83.4473 172.312 83.623 172.406C83.7988 172.5 84.0039 172.547 84.2383 172.547C84.5273 172.547 84.7676 172.488 84.959 172.371C85.1543 172.25 85.3242 172.051 85.4688 171.773C85.6172 171.496 85.7598 171.125 85.8965 170.66L86.541 170.807C86.5059 171.029 86.4883 171.232 86.4883 171.416C86.4883 171.771 86.5645 172.055 86.7168 172.266C86.873 172.473 87.0859 172.576 87.3555 172.576C87.668 172.576 87.9219 172.418 88.1172 172.102C88.3164 171.785 88.4629 171.293 88.5566 170.625ZM93.5371 170.801H94.2871C94.3184 171.578 94.418 172.35 94.5859 173.115C94.7539 173.877 94.9766 174.602 95.2539 175.289C95.5312 175.973 95.8535 176.592 96.2207 177.146C96.5918 177.697 96.9961 178.152 97.4336 178.512L96.9473 180H96.707C96.1758 179.34 95.7246 178.672 95.3535 177.996C94.9824 177.32 94.6797 176.609 94.4453 175.863C94.2109 175.113 94.0312 174.303 93.9062 173.432C93.7852 174.307 93.6074 175.119 93.373 175.869C93.1387 176.615 92.8359 177.326 92.4648 178.002C92.0977 178.674 91.6484 179.34 91.1172 180H90.8711L90.3848 178.512C90.8223 178.152 91.2246 177.697 91.5918 177.146C91.9629 176.592 92.2871 175.973 92.5645 175.289C92.8457 174.602 93.0703 173.877 93.2383 173.115C93.4062 172.35 93.5059 171.578 93.5371 170.801Z" fill="#DEFF0A"/>
<path d="M30.4727 170.719L31.2285 170.941C31.1504 171.531 30.9824 172.037 30.7246 172.459C30.4707 172.881 30.1641 173.207 29.8047 173.438C29.4453 173.664 29.0645 173.783 28.6621 173.795C28.2637 173.807 27.8809 173.699 27.5137 173.473C27.7168 173.938 27.8887 174.484 28.0293 175.113C28.1699 175.742 28.2793 176.406 28.3574 177.105C28.4355 177.801 28.4746 178.48 28.4746 179.145L27.8945 180H27.625C27.5859 178.445 27.3945 177.002 27.0508 175.67C26.7109 174.338 26.2324 173.154 25.6152 172.119L26.207 170.801H26.4648C26.7852 171.27 27.0645 171.639 27.3027 171.908C27.541 172.174 27.7695 172.363 27.9883 172.477C28.207 172.586 28.4434 172.641 28.6973 172.641C29.1387 172.641 29.502 172.48 29.7871 172.16C30.0723 171.836 30.3008 171.355 30.4727 170.719ZM35.4824 170.801H36.2324C36.2637 171.578 36.3633 172.35 36.5312 173.115C36.6992 173.877 36.9219 174.602 37.1992 175.289C37.4766 175.973 37.7988 176.592 38.166 177.146C38.5371 177.697 38.9414 178.152 39.3789 178.512L38.8926 180H38.6523C38.1211 179.34 37.6699 178.672 37.2988 177.996C36.9277 177.32 36.625 176.609 36.3906 175.863C36.1562 175.113 35.9766 174.303 35.8516 173.432C35.7305 174.307 35.5527 175.119 35.3184 175.869C35.084 176.615 34.7812 177.326 34.4102 178.002C34.043 178.674 33.5938 179.34 33.0625 180H32.8164L32.3301 178.512C32.7676 178.152 33.1699 177.697 33.5371 177.146C33.9082 176.592 34.2324 175.973 34.5098 175.289C34.791 174.602 35.0156 173.877 35.1836 173.115C35.3516 172.35 35.4512 171.578 35.4824 170.801Z" fill="#DEFF0A"/>
<path d="M142.75 170.625L143.482 170.707C143.42 171.492 143.293 172.117 143.102 172.582C142.914 173.043 142.676 173.375 142.387 173.578C142.098 173.781 141.775 173.883 141.42 173.883C141.045 173.883 140.732 173.777 140.482 173.566C140.236 173.352 140.062 173.078 139.961 172.746C139.84 173 139.67 173.227 139.451 173.426C139.232 173.621 138.982 173.752 138.701 173.818C138.42 173.881 138.121 173.844 137.805 173.707C138.043 174.445 138.236 175.281 138.385 176.215C138.537 177.145 138.613 178.121 138.613 179.145L138.033 180H137.764C137.725 178.449 137.533 177.008 137.189 175.676C136.85 174.344 136.371 173.158 135.754 172.119L136.346 170.795H136.604C136.865 171.268 137.088 171.631 137.271 171.885C137.459 172.139 137.641 172.312 137.816 172.406C137.992 172.5 138.197 172.547 138.432 172.547C138.721 172.547 138.961 172.488 139.152 172.371C139.348 172.25 139.518 172.051 139.662 171.773C139.811 171.496 139.953 171.125 140.09 170.66L140.734 170.807C140.699 171.029 140.682 171.232 140.682 171.416C140.682 171.771 140.758 172.055 140.91 172.266C141.066 172.473 141.279 172.576 141.549 172.576C141.861 172.576 142.115 172.418 142.311 172.102C142.51 171.785 142.656 171.293 142.75 170.625ZM146.834 170.619C147.682 171.205 148.426 171.807 149.066 172.424C149.711 173.041 150.213 173.691 150.572 174.375C150.932 175.059 151.111 175.793 151.111 176.578C151.111 177.023 151.059 177.457 150.953 177.879C150.852 178.297 150.707 178.674 150.52 179.01C150.332 179.342 150.109 179.607 149.852 179.807C149.598 180.002 149.316 180.1 149.008 180.1C148.703 180.1 148.443 180.023 148.229 179.871C148.018 179.715 147.826 179.471 147.654 179.139C147.49 179.424 147.291 179.65 147.057 179.818C146.822 179.982 146.551 180.064 146.242 180.064C145.805 180.064 145.439 179.857 145.146 179.443C144.857 179.029 144.713 178.473 144.713 177.773C144.713 176.883 144.914 175.99 145.316 175.096C145.719 174.201 146.273 173.289 146.98 172.359C146.828 172.262 146.682 172.172 146.541 172.09C146.404 172.004 146.285 171.936 146.184 171.885L146.834 170.619ZM147.596 172.752C146.92 173.568 146.4 174.352 146.037 175.102C145.674 175.848 145.492 176.592 145.492 177.334C145.492 178.174 145.795 178.594 146.4 178.594C147.021 178.594 147.4 178.178 147.537 177.346L148.164 177.357C148.191 177.764 148.273 178.08 148.41 178.307C148.551 178.533 148.791 178.646 149.131 178.646C149.51 178.646 149.795 178.492 149.986 178.184C150.178 177.875 150.273 177.457 150.273 176.93C150.273 176.191 150.033 175.467 149.553 174.756C149.076 174.045 148.424 173.377 147.596 172.752Z" fill="#DEFF0A"/>
</svg>
