<svg width="535" height="271" viewBox="0 0 535 271" fill="none" xmlns="http://www.w3.org/2000/svg">
<path d="M24.6348 41.1191L24.4648 40.0703L25.2383 39.6836L25.5254 44.5176C25.5918 44.7715 25.7637 44.9551 26.041 45.0684C26.3184 45.1777 26.6602 45.2324 27.0664 45.2324H27.0723V46H27.0664C26.4883 46 26.0605 45.9062 25.7832 45.7187C25.5098 45.5273 25.3125 45.2305 25.1914 44.8281C24.5937 45.0977 24.0078 45.2324 23.4336 45.2324C22.8672 45.2324 22.4277 45.1113 22.1152 44.8691C21.8066 44.623 21.6523 44.293 21.6523 43.8789C21.6523 43.5664 21.75 43.2422 21.9453 42.9062C22.1445 42.5703 22.4629 42.248 22.9004 41.9395C23.3379 41.627 23.916 41.3535 24.6348 41.1191ZM24.7227 41.7051C24.2344 41.8535 23.7812 42.0215 23.3633 42.209C22.9492 42.3926 22.6172 42.6113 22.3672 42.8652C22.1172 43.1152 21.9922 43.416 21.9922 43.7676C21.9922 43.9785 22.0645 44.1445 22.209 44.2656C22.3535 44.3828 22.5371 44.4668 22.7598 44.5176C22.9863 44.5684 23.2168 44.5937 23.4512 44.5937C23.7715 44.5937 24.0801 44.5703 24.377 44.5234C24.6777 44.4727 24.9297 44.4219 25.1328 44.3711C25.0781 43.9687 25.0195 43.5703 24.957 43.1758C24.8945 42.7773 24.8164 42.2871 24.7227 41.7051ZM27.6582 47.6406C27.7754 47.6875 27.9004 47.7559 28.0332 47.8457C28.1699 47.9395 28.3184 48.0645 28.4785 48.2207C28.3848 48.3535 28.2891 48.4863 28.1914 48.6191C28.0977 48.7559 28 48.8926 27.8984 49.0293C27.7773 48.916 27.6465 48.8105 27.5059 48.7129C27.3691 48.6191 27.2305 48.5352 27.0898 48.4609C27.1875 48.3242 27.2812 48.1895 27.3711 48.0566C27.4648 47.9238 27.5605 47.7852 27.6582 47.6406ZM27.0781 46C26.9609 46 26.9023 45.877 26.9023 45.6309V45.6016C26.9023 45.3555 26.9609 45.2324 27.0781 45.2324C27.4492 45.2324 27.7539 45.1992 27.9922 45.1328C28.2344 45.0625 28.4297 44.9355 28.5781 44.752C28.7305 44.5645 28.8555 44.2988 28.9531 43.9551C29.0547 43.6113 29.1484 43.1641 29.2344 42.6133L29.7441 42.6719C29.7246 42.9023 29.709 43.1172 29.6973 43.3164C29.6895 43.5117 29.6855 43.6875 29.6855 43.8437C29.6855 44.2734 29.8184 44.6133 30.084 44.8633C30.3496 45.1094 30.7441 45.2324 31.2676 45.2324H31.2734V46H31.2676C30.7207 46 30.2891 45.8613 29.9727 45.584C29.6602 45.3027 29.4434 44.8789 29.3223 44.3125C29.1465 44.8672 28.8789 45.2871 28.5195 45.5723C28.1641 45.8574 27.6836 46 27.0781 46ZM32.293 39.6309C32.4102 39.6777 32.5352 39.748 32.668 39.8418C32.8047 39.9316 32.9531 40.0547 33.1133 40.2109C33.0195 40.3437 32.9238 40.4785 32.8262 40.6152C32.7324 40.748 32.6348 40.8828 32.5332 41.0195C32.4121 40.9062 32.2812 40.8027 32.1406 40.709C32.0039 40.6113 31.8652 40.5254 31.7246 40.4512C31.8223 40.3145 31.916 40.1797 32.0059 40.0469C32.0996 39.9141 32.1953 39.7754 32.293 39.6309ZM31.2734 46C31.1562 46 31.0977 45.877 31.0977 45.6309V45.6016C31.0977 45.3555 31.1562 45.2324 31.2734 45.2324C31.8281 45.2324 32.2363 45.1328 32.498 44.9336C32.7598 44.7305 32.8906 44.4023 32.8906 43.9492C32.8906 43.793 32.877 43.5937 32.8496 43.3516C32.8262 43.1055 32.7969 42.9062 32.7617 42.7539L33.2598 42.6367C33.3691 43.3203 33.4883 43.8516 33.6172 44.2305C33.7461 44.6055 33.9102 44.8672 34.1094 45.0156C34.3125 45.1602 34.5762 45.2324 34.9004 45.2324H34.9062V46H34.9004C34.4238 46 34.0605 45.8789 33.8105 45.6367C33.5605 45.3945 33.377 44.9844 33.2598 44.4062C33.1582 44.9727 32.9531 45.3809 32.6445 45.6309C32.3359 45.877 31.8789 46 31.2734 46ZM41.5273 46.0645C40.5391 46.0645 40.0234 45.4805 39.9805 44.3125C39.8594 44.8555 39.6406 45.2832 39.3242 45.5957C39.0117 45.9082 38.6445 46.0645 38.2227 46.0645C37.375 46.0645 36.9219 45.4434 36.8633 44.2012C36.6406 44.8223 36.3711 45.2773 36.0547 45.5664C35.7422 45.8555 35.3594 46 34.9062 46C34.7891 46 34.7305 45.877 34.7305 45.6309V45.6016C34.7305 45.3555 34.7891 45.2324 34.9062 45.2324C35.4492 45.2324 35.8633 45.0488 36.1484 44.6816C36.4375 44.3145 36.666 43.6777 36.834 42.7715L37.3379 42.8301C37.3223 43.0371 37.3066 43.2734 37.291 43.5391C37.2754 43.8047 37.2676 44.0059 37.2676 44.1426C37.2676 44.5605 37.3516 44.8633 37.5195 45.0508C37.6875 45.2344 37.9609 45.3262 38.3398 45.3262C38.625 45.3262 38.8574 45.2656 39.0371 45.1445C39.2168 45.0234 39.3711 44.8066 39.5 44.4941C39.6289 44.1816 39.7578 43.7383 39.8867 43.1641H40.4551C40.4434 43.25 40.4297 43.3711 40.4141 43.5273C40.4023 43.6797 40.3906 43.8379 40.3789 44.002C40.3711 44.1621 40.3672 44.2969 40.3672 44.4062C40.3672 44.7773 40.4434 45.0273 40.5957 45.1562C40.748 45.2812 41.0488 45.3437 41.498 45.3437C41.834 45.3437 42.0898 45.3105 42.2656 45.2441C42.4414 45.1777 42.5957 45.0605 42.7285 44.8926C42.6738 44.5059 42.5957 44.1387 42.4941 43.791C42.3926 43.4395 42.2695 43.1055 42.125 42.7891L42.752 42.0742C43.0098 42.7812 43.1387 43.5586 43.1387 44.4062C43.1387 44.5234 43.1309 44.623 43.1152 44.7051C43.1035 44.7871 43.0684 44.8906 43.0098 45.0156C42.9551 45.1406 42.8633 45.3281 42.7344 45.5781C42.3594 45.9023 41.957 46.0645 41.5273 46.0645ZM40.1094 40.5977C40.1445 40.5508 40.3145 40.3047 40.6191 39.8594C40.8223 39.9336 41.0684 40.1074 41.3574 40.3809C41.2754 40.498 41.1895 40.6172 41.0996 40.7383C41.0137 40.8594 40.9258 40.9824 40.8359 41.1074C40.6094 40.8965 40.3672 40.7266 40.1094 40.5977ZM39.0781 41.1074C38.8711 40.916 38.6289 40.7461 38.3516 40.5977C38.5273 40.3437 38.6973 40.0977 38.8613 39.8594C39.0801 39.9414 39.3262 40.1152 39.5996 40.3809C39.4824 40.5488 39.3086 40.791 39.0781 41.1074ZM39.207 39.127C39.2461 39.0723 39.416 38.8262 39.7168 38.3887C39.9551 38.4824 40.2012 38.6562 40.4551 38.9102C40.3691 39.0312 40.2852 39.1484 40.2031 39.2617C40.125 39.375 40.0352 39.5 39.9336 39.6367C39.7266 39.4453 39.4844 39.2754 39.207 39.127Z" fill="#1F2F37"/>
<path d="M14.3223 72.1191L14.1523 71.0703L14.9258 70.6836L15.2129 75.5176C15.2793 75.7715 15.4512 75.9551 15.7285 76.0684C16.0059 76.1777 16.3477 76.2324 16.7539 76.2324H16.7598V77H16.7539C16.1758 77 15.748 76.9062 15.4707 76.7187C15.1973 76.5273 15 76.2305 14.8789 75.8281C14.2812 76.0977 13.6953 76.2324 13.1211 76.2324C12.5547 76.2324 12.1152 76.1113 11.8027 75.8691C11.4941 75.623 11.3398 75.293 11.3398 74.8789C11.3398 74.5664 11.4375 74.2422 11.6328 73.9062C11.832 73.5703 12.1504 73.248 12.5879 72.9395C13.0254 72.627 13.6035 72.3535 14.3223 72.1191ZM14.4102 72.7051C13.9219 72.8535 13.4687 73.0215 13.0508 73.209C12.6367 73.3926 12.3047 73.6113 12.0547 73.8652C11.8047 74.1152 11.6797 74.416 11.6797 74.7676C11.6797 74.9785 11.752 75.1445 11.8965 75.2656C12.041 75.3828 12.2246 75.4668 12.4473 75.5176C12.6738 75.5684 12.9043 75.5937 13.1387 75.5937C13.459 75.5937 13.7676 75.5703 14.0645 75.5234C14.3652 75.4727 14.6172 75.4219 14.8203 75.3711C14.7656 74.9687 14.707 74.5703 14.6445 74.1758C14.582 73.7773 14.5039 73.2871 14.4102 72.7051ZM17.3457 78.6406C17.4629 78.6875 17.5879 78.7559 17.7207 78.8457C17.8574 78.9395 18.0059 79.0645 18.166 79.2207C18.0723 79.3535 17.9766 79.4863 17.8789 79.6191C17.7852 79.7559 17.6875 79.8926 17.5859 80.0293C17.4648 79.916 17.334 79.8105 17.1934 79.7129C17.0566 79.6191 16.918 79.5352 16.7773 79.4609C16.875 79.3242 16.9687 79.1895 17.0586 79.0566C17.1523 78.9238 17.248 78.7852 17.3457 78.6406ZM16.7656 77C16.6484 77 16.5898 76.877 16.5898 76.6309V76.6016C16.5898 76.3555 16.6484 76.2324 16.7656 76.2324C17.1367 76.2324 17.4414 76.1992 17.6797 76.1328C17.9219 76.0625 18.1172 75.9355 18.2656 75.752C18.418 75.5645 18.543 75.2988 18.6406 74.9551C18.7422 74.6113 18.8359 74.1641 18.9219 73.6133L19.4316 73.6719C19.4121 73.9023 19.3965 74.1172 19.3848 74.3164C19.377 74.5117 19.373 74.6875 19.373 74.8437C19.373 75.2734 19.5059 75.6133 19.7715 75.8633C20.0371 76.1094 20.4316 76.2324 20.9551 76.2324H20.9609V77H20.9551C20.4082 77 19.9766 76.8613 19.6602 76.584C19.3477 76.3027 19.1309 75.8789 19.0098 75.3125C18.834 75.8672 18.5664 76.2871 18.207 76.5723C17.8516 76.8574 17.3711 77 16.7656 77ZM21.9805 70.6309C22.0977 70.6777 22.2227 70.748 22.3555 70.8418C22.4922 70.9316 22.6406 71.0547 22.8008 71.2109C22.707 71.3437 22.6113 71.4785 22.5137 71.6152C22.4199 71.748 22.3223 71.8828 22.2207 72.0195C22.0996 71.9062 21.9687 71.8027 21.8281 71.709C21.6914 71.6113 21.5527 71.5254 21.4121 71.4512C21.5098 71.3145 21.6035 71.1797 21.6934 71.0469C21.7871 70.9141 21.8828 70.7754 21.9805 70.6309ZM20.9609 77C20.8437 77 20.7852 76.877 20.7852 76.6309V76.6016C20.7852 76.3555 20.8437 76.2324 20.9609 76.2324C21.5156 76.2324 21.9238 76.1328 22.1855 75.9336C22.4473 75.7305 22.5781 75.4023 22.5781 74.9492C22.5781 74.793 22.5645 74.5937 22.5371 74.3516C22.5137 74.1055 22.4844 73.9062 22.4492 73.7539L22.9473 73.6367C23.0566 74.3203 23.1758 74.8516 23.3047 75.2305C23.4336 75.6055 23.5977 75.8672 23.7969 76.0156C24 76.1602 24.2637 76.2324 24.5879 76.2324H24.5937V77H24.5879C24.1113 77 23.748 76.8789 23.498 76.6367C23.248 76.3945 23.0645 75.9844 22.9473 75.4062C22.8457 75.9727 22.6406 76.3809 22.332 76.6309C22.0234 76.877 21.5664 77 20.9609 77ZM31.1328 77.0645C30.1992 77.0645 29.7109 76.4805 29.668 75.3125C29.5469 75.8555 29.3281 76.2832 29.0117 76.5957C28.6992 76.9082 28.332 77.0645 27.9102 77.0645C27.0625 77.0645 26.6094 76.4434 26.5508 75.2012C26.3281 75.8223 26.0586 76.2773 25.7422 76.5664C25.4297 76.8555 25.0469 77 24.5937 77C24.4766 77 24.418 76.877 24.418 76.6309V76.6016C24.418 76.3555 24.4766 76.2324 24.5937 76.2324C25.1367 76.2324 25.5508 76.0488 25.8359 75.6816C26.125 75.3145 26.3535 74.6777 26.5215 73.7715L27.0254 73.8301C27.0098 74.0371 26.9941 74.2734 26.9785 74.5391C26.9629 74.8047 26.9551 75.0059 26.9551 75.1426C26.9551 75.5566 27.0391 75.8574 27.207 76.0449C27.375 76.2324 27.6484 76.3262 28.0273 76.3262C28.3125 76.3262 28.5449 76.2656 28.7246 76.1445C28.9043 76.0234 29.0586 75.8066 29.1875 75.4941C29.3164 75.1816 29.4453 74.7383 29.5742 74.1641H30.1426C30.1309 74.25 30.1172 74.3711 30.1016 74.5273C30.0898 74.6797 30.0781 74.8379 30.0664 75.002C30.0586 75.1621 30.0547 75.2969 30.0547 75.4062C30.0547 75.7773 30.1328 76.0273 30.2891 76.1562C30.4453 76.2812 30.748 76.3437 31.1973 76.3437C31.5801 76.3437 31.8359 76.2812 31.9648 76.1562C32.0937 76.0273 32.1582 75.8477 32.1582 75.6172C32.1582 75.4766 32.1348 75.2266 32.0879 74.8672C32.0449 74.5078 31.9668 74.1152 31.8535 73.6895L32.457 73.4551C32.6289 74.3809 32.8477 75.0762 33.1133 75.541C33.3828 76.002 33.7949 76.2324 34.3496 76.2324H34.3906V77H34.373C33.9121 77 33.5312 76.8398 33.2305 76.5195C32.9336 76.1992 32.6953 75.748 32.5156 75.166C32.5156 75.8145 32.3789 76.293 32.1055 76.6016C31.8359 76.9102 31.5117 77.0645 31.1328 77.0645ZM29.6211 71.5977C29.6562 71.5508 29.8262 71.3047 30.1309 70.8594C30.334 70.9336 30.5801 71.1074 30.8691 71.3809C30.7871 71.498 30.7012 71.6172 30.6113 71.7383C30.5254 71.8594 30.4375 71.9824 30.3477 72.1074C30.1211 71.8965 29.8789 71.7266 29.6211 71.5977ZM28.5898 72.1074C28.3828 71.916 28.1406 71.7461 27.8633 71.5977C28.0391 71.3437 28.209 71.0977 28.373 70.8594C28.5918 70.9414 28.8379 71.1152 29.1113 71.3809C28.9941 71.5488 28.8203 71.791 28.5898 72.1074ZM28.7187 70.127C28.7578 70.0723 28.9277 69.8262 29.2285 69.3887C29.4668 69.4824 29.7129 69.6562 29.9668 69.9102C29.8809 70.0312 29.7969 70.1484 29.7148 70.2617C29.6367 70.375 29.5469 70.5 29.4453 70.6367C29.2383 70.4453 28.9961 70.2754 28.7187 70.127ZM34.9883 70.8535C35.7109 71.4004 36.2988 71.9023 36.752 72.3594C37.2051 72.8164 37.5996 73.2969 37.9355 73.8008L38.0527 73.9766C38.4199 74.5234 38.7402 74.9629 39.0137 75.2949C39.291 75.627 39.5488 75.8672 39.7871 76.0156C40.0293 76.1602 40.2793 76.2324 40.5371 76.2324H40.543V77H40.5371C40.2051 77 39.8574 76.8555 39.4941 76.5664C39.1348 76.2773 38.7832 75.8633 38.4395 75.3242C38.4395 75.543 38.4102 75.752 38.3516 75.9512C38.293 76.1465 38.1855 76.3242 38.0293 76.4844C37.4824 76.7227 36.9004 76.8691 36.2832 76.9238C35.666 76.9746 35.0488 77 34.4316 77H34.3906C34.2734 77 34.2148 76.877 34.2148 76.6309V76.6016C34.2148 76.3555 34.2734 76.2324 34.3906 76.2324H34.4434C34.6738 76.2324 34.9395 76.2285 35.2402 76.2207C35.5449 76.2129 35.8535 76.1973 36.166 76.1738C36.4824 76.1465 36.7773 76.1113 37.0508 76.0684C37.3281 76.0215 37.5586 75.9629 37.7422 75.8926C37.9258 75.8184 38.0352 75.7266 38.0703 75.6172C37.9727 74.9648 37.6992 74.3711 37.25 73.8359C36.8047 73.2969 36.1895 72.7285 35.4043 72.1309L34.9238 72.3359L34.5254 71.3398L34.5547 71.2402C34.6406 70.9434 34.7324 70.7129 34.8301 70.5488C34.9316 70.3848 35.0742 70.2539 35.2578 70.1562C35.4414 70.0547 35.7012 69.9551 36.0371 69.8574C36.377 69.7559 36.7695 69.6523 37.2148 69.5469C37.6641 69.4414 38.1309 69.3496 38.6152 69.2715C39.0996 69.1895 39.5625 69.1367 40.0039 69.1133L39.7754 69.7871C39.5254 69.7871 39.1992 69.8184 38.7969 69.8809C38.3984 69.9434 37.9687 70.0254 37.5078 70.127C37.0508 70.2285 36.6016 70.3418 36.1602 70.4668C35.7187 70.5918 35.3281 70.7207 34.9883 70.8535ZM40.373 80.0645C40.166 79.873 39.9238 79.7031 39.6465 79.5547C39.8262 79.3047 39.9961 79.0586 40.1562 78.8164C40.375 78.8984 40.6211 79.0723 40.8945 79.3379C40.7461 79.5527 40.5723 79.7949 40.373 80.0645ZM41.4043 79.5547C41.5645 79.3281 41.7344 79.082 41.9141 78.8164C42.1523 78.9102 42.3984 79.084 42.6523 79.3379C42.5664 79.459 42.4805 79.5801 42.3945 79.7012C42.3086 79.8223 42.2207 79.9434 42.1309 80.0645C41.9238 79.873 41.6816 79.7031 41.4043 79.5547ZM40.543 77C40.4258 77 40.3672 76.877 40.3672 76.6309V76.6016C40.3672 76.3555 40.4258 76.2324 40.543 76.2324H40.7129C41.1191 76.2324 41.5059 76.2109 41.873 76.168C42.2441 76.125 42.5215 76.0527 42.7051 75.9512C42.6816 75.5449 42.6074 75.0918 42.4824 74.5918C42.3574 74.0879 42.1562 73.5293 41.8789 72.916L42.5762 72.2949C42.6738 72.5645 42.7637 72.8867 42.8457 73.2617C42.9316 73.6328 43 73.998 43.0508 74.3574C43.1016 74.7168 43.127 75.0117 43.127 75.2422C43.127 75.5859 43.084 75.8574 42.998 76.0566C42.9121 76.2559 42.752 76.4863 42.5176 76.748C42.2285 76.8457 41.9473 76.9121 41.6738 76.9473C41.4043 76.9824 41.0742 77 40.6836 77H40.543Z" fill="#1F2F37"/>
<path d="M13.4316 103.119L13.2617 102.07L14.0352 101.684L14.3223 106.518C14.3887 106.771 14.5605 106.955 14.8379 107.068C15.1152 107.178 15.457 107.232 15.8633 107.232H15.8691V108H15.8633C15.2852 108 14.8574 107.906 14.5801 107.719C14.3066 107.527 14.1094 107.23 13.9883 106.828C13.3906 107.098 12.8047 107.232 12.2305 107.232C11.6641 107.232 11.2246 107.111 10.9121 106.869C10.6035 106.623 10.4492 106.293 10.4492 105.879C10.4492 105.566 10.5469 105.242 10.7422 104.906C10.9414 104.57 11.2598 104.248 11.6973 103.939C12.1348 103.627 12.7129 103.354 13.4316 103.119ZM13.5195 103.705C13.0312 103.854 12.5781 104.021 12.1602 104.209C11.7461 104.393 11.4141 104.611 11.1641 104.865C10.9141 105.115 10.7891 105.416 10.7891 105.768C10.7891 105.979 10.8613 106.145 11.0059 106.266C11.1504 106.383 11.334 106.467 11.5566 106.518C11.7832 106.568 12.0137 106.594 12.248 106.594C12.5684 106.594 12.877 106.57 13.1738 106.523C13.4746 106.473 13.7266 106.422 13.9297 106.371C13.875 105.969 13.8164 105.57 13.7539 105.176C13.6914 104.777 13.6133 104.287 13.5195 103.705ZM16.4551 109.641C16.5723 109.687 16.6973 109.756 16.8301 109.846C16.9668 109.939 17.1152 110.064 17.2754 110.221C17.1816 110.354 17.0859 110.486 16.9883 110.619C16.8945 110.756 16.7969 110.893 16.6953 111.029C16.5742 110.916 16.4434 110.811 16.3027 110.713C16.166 110.619 16.0273 110.535 15.8867 110.461C15.9844 110.324 16.0781 110.189 16.168 110.057C16.2617 109.924 16.3574 109.785 16.4551 109.641ZM15.875 108C15.7578 108 15.6992 107.877 15.6992 107.631V107.602C15.6992 107.355 15.7578 107.232 15.875 107.232C16.2461 107.232 16.5508 107.199 16.7891 107.133C17.0312 107.062 17.2266 106.936 17.375 106.752C17.5273 106.564 17.6523 106.299 17.75 105.955C17.8516 105.611 17.9453 105.164 18.0312 104.613L18.541 104.672C18.5215 104.902 18.5059 105.117 18.4941 105.316C18.4863 105.512 18.4824 105.687 18.4824 105.844C18.4824 106.273 18.6152 106.613 18.8809 106.863C19.1465 107.109 19.541 107.232 20.0645 107.232H20.0703V108H20.0645C19.5176 108 19.0859 107.861 18.7695 107.584C18.457 107.303 18.2402 106.879 18.1191 106.312C17.9434 106.867 17.6758 107.287 17.3164 107.572C16.9609 107.857 16.4805 108 15.875 108ZM21.0898 101.631C21.207 101.678 21.332 101.748 21.4648 101.842C21.6016 101.932 21.75 102.055 21.9102 102.211C21.8164 102.344 21.7207 102.479 21.623 102.615C21.5293 102.748 21.4316 102.883 21.3301 103.02C21.209 102.906 21.0781 102.803 20.9375 102.709C20.8008 102.611 20.6621 102.525 20.5215 102.451C20.6191 102.314 20.7129 102.18 20.8027 102.047C20.8965 101.914 20.9922 101.775 21.0898 101.631ZM20.0703 108C19.9531 108 19.8945 107.877 19.8945 107.631V107.602C19.8945 107.355 19.9531 107.232 20.0703 107.232C20.625 107.232 21.0332 107.133 21.2949 106.934C21.5566 106.73 21.6875 106.402 21.6875 105.949C21.6875 105.793 21.6738 105.594 21.6465 105.352C21.623 105.105 21.5937 104.906 21.5586 104.754L22.0566 104.637C22.166 105.32 22.2852 105.852 22.4141 106.23C22.543 106.605 22.707 106.867 22.9062 107.016C23.1094 107.16 23.373 107.232 23.6973 107.232H23.7031V108H23.6973C23.2207 108 22.8574 107.879 22.6074 107.637C22.3574 107.395 22.1738 106.984 22.0566 106.406C21.9551 106.973 21.75 107.381 21.4414 107.631C21.1328 107.877 20.6758 108 20.0703 108ZM30.3242 108.064C29.3359 108.064 28.8203 107.48 28.7773 106.312C28.6562 106.855 28.4375 107.283 28.1211 107.596C27.8086 107.908 27.4414 108.064 27.0195 108.064C26.1719 108.064 25.7187 107.443 25.6602 106.201C25.4375 106.822 25.168 107.277 24.8516 107.566C24.5391 107.855 24.1562 108 23.7031 108C23.5859 108 23.5273 107.877 23.5273 107.631V107.602C23.5273 107.355 23.5859 107.232 23.7031 107.232C24.2461 107.232 24.6602 107.049 24.9453 106.682C25.2344 106.314 25.4629 105.678 25.6309 104.771L26.1348 104.83C26.1191 105.037 26.1035 105.273 26.0879 105.539C26.0723 105.805 26.0645 106.006 26.0645 106.143C26.0645 106.561 26.1484 106.863 26.3164 107.051C26.4844 107.234 26.7578 107.326 27.1367 107.326C27.4219 107.326 27.6543 107.266 27.834 107.145C28.0137 107.023 28.168 106.807 28.2969 106.494C28.4258 106.182 28.5547 105.738 28.6836 105.164H29.252C29.2402 105.25 29.2266 105.371 29.2109 105.527C29.1992 105.68 29.1875 105.838 29.1758 106.002C29.168 106.162 29.1641 106.297 29.1641 106.406C29.1641 106.777 29.2402 107.027 29.3926 107.156C29.5449 107.281 29.8457 107.344 30.2949 107.344C30.6309 107.344 30.8867 107.311 31.0625 107.244C31.2383 107.178 31.3926 107.061 31.5254 106.893C31.4707 106.506 31.3926 106.139 31.291 105.791C31.1895 105.439 31.0664 105.105 30.9219 104.789L31.5488 104.074C31.8066 104.781 31.9355 105.559 31.9355 106.406C31.9355 106.523 31.9277 106.623 31.9121 106.705C31.9004 106.787 31.8652 106.891 31.8066 107.016C31.752 107.141 31.6602 107.328 31.5312 107.578C31.1562 107.902 30.7539 108.064 30.3242 108.064ZM28.9062 102.598C28.9414 102.551 29.1113 102.305 29.416 101.859C29.6191 101.934 29.8652 102.107 30.1543 102.381C30.0723 102.498 29.9863 102.617 29.8965 102.738C29.8105 102.859 29.7227 102.982 29.6328 103.107C29.4062 102.896 29.1641 102.727 28.9062 102.598ZM27.875 103.107C27.668 102.916 27.4258 102.746 27.1484 102.598C27.3242 102.344 27.4941 102.098 27.6582 101.859C27.877 101.941 28.123 102.115 28.3965 102.381C28.2793 102.549 28.1055 102.791 27.875 103.107ZM28.0039 101.127C28.043 101.072 28.2129 100.826 28.5137 100.389C28.752 100.482 28.998 100.656 29.252 100.91C29.166 101.031 29.082 101.148 29 101.262C28.9219 101.375 28.832 101.5 28.7305 101.637C28.5234 101.445 28.2812 101.275 28.0039 101.127ZM34.0625 111.252C33.8594 111.252 33.6445 111.232 33.418 111.193C33.1953 111.154 32.9883 111.115 32.7969 111.076L32.9668 110.537C34.1934 110.549 35.1387 110.412 35.8027 110.127C36.4668 109.846 36.9141 109.377 37.1445 108.721C37.1406 108.572 37.1309 108.437 37.1152 108.316C37.0996 108.199 37.0801 108.068 37.0566 107.924C36.7402 107.971 36.4121 108.006 36.0723 108.029C35.7363 108.053 35.4062 108.064 35.082 108.064C34.4805 108.064 34.0508 107.971 33.793 107.783C33.5352 107.596 33.4062 107.246 33.4062 106.734C33.4062 106.141 33.4902 105.613 33.6582 105.152C33.8301 104.691 34.0508 104.33 34.3203 104.068C34.5937 103.803 34.8848 103.67 35.1934 103.67C35.584 103.67 35.9473 103.852 36.2832 104.215C36.623 104.574 36.8984 105.076 37.1094 105.721C37.3203 106.361 37.4258 107.102 37.4258 107.941C37.4258 108.617 37.2793 109.203 36.9863 109.699C36.6973 110.195 36.2988 110.578 35.791 110.848C35.2832 111.117 34.707 111.252 34.0625 111.252ZM36.8984 107.221C36.7773 106.322 36.5332 105.627 36.166 105.135C35.8027 104.643 35.4004 104.396 34.959 104.396C34.7402 104.396 34.5391 104.484 34.3555 104.66C34.1758 104.836 34.0312 105.072 33.9219 105.369C33.8125 105.666 33.7578 105.996 33.7578 106.359C33.7578 106.719 33.8594 106.965 34.0625 107.098C34.2695 107.23 34.6406 107.297 35.1758 107.297C35.4375 107.297 35.7207 107.293 36.0254 107.285C36.3301 107.273 36.6211 107.252 36.8984 107.221ZM43.1211 106.02C43.1211 106.727 42.9141 107.244 42.5 107.572C42.0859 107.896 41.4512 108.059 40.5957 108.059C39.8691 108.059 39.2344 107.959 38.6914 107.76L38.7676 107.004C39.3965 107.199 40.0195 107.297 40.6367 107.297C40.9922 107.297 41.3242 107.268 41.6328 107.209C41.9414 107.15 42.1992 107.072 42.4062 106.975C42.6172 106.873 42.748 106.758 42.7988 106.629C42.6738 105.871 42.4473 105.203 42.1191 104.625C41.791 104.047 41.3223 103.49 40.7129 102.955L41.1758 102.223C41.8672 102.965 42.3633 103.633 42.6641 104.227C42.9687 104.816 43.1211 105.414 43.1211 106.02Z" fill="#1F2F37"/>
<path d="M9.11914 134.119L8.94922 133.07L9.72266 132.684L10.0098 137.518C10.0762 137.771 10.248 137.955 10.5254 138.068C10.8027 138.178 11.1445 138.232 11.5508 138.232H11.5566V139H11.5508C10.9727 139 10.5449 138.906 10.2676 138.719C9.99414 138.527 9.79687 138.23 9.67578 137.828C9.07812 138.098 8.49219 138.232 7.91797 138.232C7.35156 138.232 6.91211 138.111 6.59961 137.869C6.29102 137.623 6.13672 137.293 6.13672 136.879C6.13672 136.566 6.23437 136.242 6.42969 135.906C6.62891 135.57 6.94727 135.248 7.38477 134.939C7.82227 134.627 8.40039 134.354 9.11914 134.119ZM9.20703 134.705C8.71875 134.854 8.26562 135.021 7.84766 135.209C7.43359 135.393 7.10156 135.611 6.85156 135.865C6.60156 136.115 6.47656 136.416 6.47656 136.768C6.47656 136.979 6.54883 137.145 6.69336 137.266C6.83789 137.383 7.02148 137.467 7.24414 137.518C7.4707 137.568 7.70117 137.594 7.93555 137.594C8.25586 137.594 8.56445 137.57 8.86133 137.523C9.16211 137.473 9.41406 137.422 9.61719 137.371C9.5625 136.969 9.50391 136.57 9.44141 136.176C9.37891 135.777 9.30078 135.287 9.20703 134.705ZM12.1426 140.641C12.2598 140.687 12.3848 140.756 12.5176 140.846C12.6543 140.939 12.8027 141.064 12.9629 141.221C12.8691 141.354 12.7734 141.486 12.6758 141.619C12.582 141.756 12.4844 141.893 12.3828 142.029C12.2617 141.916 12.1309 141.811 11.9902 141.713C11.8535 141.619 11.7148 141.535 11.5742 141.461C11.6719 141.324 11.7656 141.189 11.8555 141.057C11.9492 140.924 12.0449 140.785 12.1426 140.641ZM11.5625 139C11.4453 139 11.3867 138.877 11.3867 138.631V138.602C11.3867 138.355 11.4453 138.232 11.5625 138.232C11.9336 138.232 12.2383 138.199 12.4766 138.133C12.7187 138.062 12.9141 137.936 13.0625 137.752C13.2148 137.564 13.3398 137.299 13.4375 136.955C13.5391 136.611 13.6328 136.164 13.7187 135.613L14.2285 135.672C14.209 135.902 14.1934 136.117 14.1816 136.316C14.1738 136.512 14.1699 136.687 14.1699 136.844C14.1699 137.273 14.3027 137.613 14.5684 137.863C14.834 138.109 15.2285 138.232 15.752 138.232H15.7578V139H15.752C15.2051 139 14.7734 138.861 14.457 138.584C14.1445 138.303 13.9277 137.879 13.8066 137.312C13.6309 137.867 13.3633 138.287 13.0039 138.572C12.6484 138.857 12.168 139 11.5625 139ZM16.7773 132.631C16.8945 132.678 17.0195 132.748 17.1523 132.842C17.2891 132.932 17.4375 133.055 17.5977 133.211C17.5039 133.344 17.4082 133.479 17.3105 133.615C17.2168 133.748 17.1191 133.883 17.0176 134.02C16.8965 133.906 16.7656 133.803 16.625 133.709C16.4883 133.611 16.3496 133.525 16.209 133.451C16.3066 133.314 16.4004 133.18 16.4902 133.047C16.584 132.914 16.6797 132.775 16.7773 132.631ZM15.7578 139C15.6406 139 15.582 138.877 15.582 138.631V138.602C15.582 138.355 15.6406 138.232 15.7578 138.232C16.3125 138.232 16.7207 138.133 16.9824 137.934C17.2441 137.73 17.375 137.402 17.375 136.949C17.375 136.793 17.3613 136.594 17.334 136.352C17.3105 136.105 17.2812 135.906 17.2461 135.754L17.7441 135.637C17.8535 136.32 17.9727 136.852 18.1016 137.23C18.2305 137.605 18.3945 137.867 18.5937 138.016C18.7969 138.16 19.0605 138.232 19.3848 138.232H19.3906V139H19.3848C18.9082 139 18.5449 138.879 18.2949 138.637C18.0449 138.395 17.8613 137.984 17.7441 137.406C17.6426 137.973 17.4375 138.381 17.1289 138.631C16.8203 138.877 16.3633 139 15.7578 139ZM26.0117 139.064C25.0234 139.064 24.5078 138.48 24.4648 137.312C24.3437 137.855 24.125 138.283 23.8086 138.596C23.4961 138.908 23.1289 139.064 22.707 139.064C21.8594 139.064 21.4062 138.443 21.3477 137.201C21.125 137.822 20.8555 138.277 20.5391 138.566C20.2266 138.855 19.8437 139 19.3906 139C19.2734 139 19.2148 138.877 19.2148 138.631V138.602C19.2148 138.355 19.2734 138.232 19.3906 138.232C19.9336 138.232 20.3477 138.049 20.6328 137.682C20.9219 137.314 21.1504 136.678 21.3184 135.771L21.8223 135.83C21.8066 136.037 21.791 136.273 21.7754 136.539C21.7598 136.805 21.752 137.006 21.752 137.143C21.752 137.561 21.8359 137.863 22.0039 138.051C22.1719 138.234 22.4453 138.326 22.8242 138.326C23.1094 138.326 23.3418 138.266 23.5215 138.145C23.7012 138.023 23.8555 137.807 23.9844 137.494C24.1133 137.182 24.2422 136.738 24.3711 136.164H24.9395C24.9277 136.25 24.9141 136.371 24.8984 136.527C24.8867 136.68 24.875 136.838 24.8633 137.002C24.8555 137.162 24.8516 137.297 24.8516 137.406C24.8516 137.777 24.9277 138.027 25.0801 138.156C25.2324 138.281 25.5332 138.344 25.9824 138.344C26.3184 138.344 26.5742 138.311 26.75 138.244C26.9258 138.178 27.0801 138.061 27.2129 137.893C27.1582 137.506 27.0801 137.139 26.9785 136.791C26.877 136.439 26.7539 136.105 26.6094 135.789L27.2363 135.074C27.4941 135.781 27.623 136.559 27.623 137.406C27.623 137.523 27.6152 137.623 27.5996 137.705C27.5879 137.787 27.5527 137.891 27.4941 138.016C27.4395 138.141 27.3477 138.328 27.2187 138.578C26.8437 138.902 26.4414 139.064 26.0117 139.064ZM24.5937 133.598C24.6289 133.551 24.7988 133.305 25.1035 132.859C25.3066 132.934 25.5527 133.107 25.8418 133.381C25.7598 133.498 25.6738 133.617 25.584 133.738C25.498 133.859 25.4102 133.982 25.3203 134.107C25.0937 133.896 24.8516 133.727 24.5937 133.598ZM23.5625 134.107C23.3555 133.916 23.1133 133.746 22.8359 133.598C23.0117 133.344 23.1816 133.098 23.3457 132.859C23.5645 132.941 23.8105 133.115 24.084 133.381C23.9668 133.549 23.793 133.791 23.5625 134.107ZM23.6914 132.127C23.7305 132.072 23.9004 131.826 24.2012 131.389C24.4395 131.482 24.6855 131.656 24.9395 131.91C24.8535 132.031 24.7695 132.148 24.6875 132.262C24.6094 132.375 24.5195 132.5 24.418 132.637C24.2109 132.445 23.9687 132.275 23.6914 132.127ZM32.4629 134.119L32.293 133.07L33.0664 132.684L33.3535 137.518C33.4199 137.771 33.5918 137.955 33.8691 138.068C34.1465 138.178 34.4883 138.232 34.8945 138.232H34.9004V139H34.8945C34.3164 139 33.8887 138.906 33.6113 138.719C33.3379 138.527 33.1406 138.23 33.0195 137.828C32.4219 138.098 31.8359 138.232 31.2617 138.232C30.6953 138.232 30.2559 138.111 29.9434 137.869C29.6348 137.623 29.4805 137.293 29.4805 136.879C29.4805 136.566 29.5781 136.242 29.7734 135.906C29.9727 135.57 30.291 135.248 30.7285 134.939C31.166 134.627 31.7441 134.354 32.4629 134.119ZM32.5508 134.705C32.0625 134.854 31.6094 135.021 31.1914 135.209C30.7773 135.393 30.4453 135.611 30.1953 135.865C29.9453 136.115 29.8203 136.416 29.8203 136.768C29.8203 136.979 29.8926 137.145 30.0371 137.266C30.1816 137.383 30.3652 137.467 30.5879 137.518C30.8145 137.568 31.0449 137.594 31.2793 137.594C31.5996 137.594 31.9082 137.57 32.2051 137.523C32.5059 137.473 32.7578 137.422 32.9609 137.371C32.9062 136.969 32.8477 136.57 32.7852 136.176C32.7227 135.777 32.6445 135.287 32.5508 134.705ZM41.5273 139.064C40.5391 139.064 40.0234 138.48 39.9805 137.312C39.8594 137.855 39.6406 138.283 39.3242 138.596C39.0117 138.908 38.6445 139.064 38.2227 139.064C37.375 139.064 36.9219 138.443 36.8633 137.201C36.6406 137.822 36.3711 138.277 36.0547 138.566C35.7422 138.855 35.3594 139 34.9062 139C34.7891 139 34.7305 138.877 34.7305 138.631V138.602C34.7305 138.355 34.7891 138.232 34.9062 138.232C35.4492 138.232 35.8633 138.049 36.1484 137.682C36.4375 137.314 36.666 136.678 36.834 135.771L37.3379 135.83C37.3223 136.037 37.3066 136.273 37.291 136.539C37.2754 136.805 37.2676 137.006 37.2676 137.143C37.2676 137.561 37.3516 137.863 37.5195 138.051C37.6875 138.234 37.9609 138.326 38.3398 138.326C38.625 138.326 38.8574 138.266 39.0371 138.145C39.2168 138.023 39.3711 137.807 39.5 137.494C39.6289 137.182 39.7578 136.738 39.8867 136.164H40.4551C40.4434 136.25 40.4297 136.371 40.4141 136.527C40.4023 136.68 40.3906 136.838 40.3789 137.002C40.3711 137.162 40.3672 137.297 40.3672 137.406C40.3672 137.777 40.4434 138.027 40.5957 138.156C40.748 138.281 41.0488 138.344 41.498 138.344C41.834 138.344 42.0898 138.311 42.2656 138.244C42.4414 138.178 42.5957 138.061 42.7285 137.893C42.6738 137.506 42.5957 137.139 42.4941 136.791C42.3926 136.439 42.2695 136.105 42.125 135.789L42.752 135.074C43.0098 135.781 43.1387 136.559 43.1387 137.406C43.1387 137.523 43.1309 137.623 43.1152 137.705C43.1035 137.787 43.0684 137.891 43.0098 138.016C42.9551 138.141 42.8633 138.328 42.7344 138.578C42.3594 138.902 41.957 139.064 41.5273 139.064Z" fill="#1F2F37"/>
<path d="M4.31445 165.119L4.14453 164.07L4.91797 163.684L5.20508 168.518C5.27148 168.771 5.44336 168.955 5.7207 169.068C5.99805 169.178 6.33984 169.232 6.74609 169.232H6.75195V170H6.74609C6.16797 170 5.74023 169.906 5.46289 169.719C5.18945 169.527 4.99219 169.23 4.87109 168.828C4.27344 169.098 3.6875 169.232 3.11328 169.232C2.54687 169.232 2.10742 169.111 1.79492 168.869C1.48633 168.623 1.33203 168.293 1.33203 167.879C1.33203 167.566 1.42969 167.242 1.625 166.906C1.82422 166.57 2.14258 166.248 2.58008 165.939C3.01758 165.627 3.5957 165.354 4.31445 165.119ZM4.40234 165.705C3.91406 165.854 3.46094 166.021 3.04297 166.209C2.62891 166.393 2.29687 166.611 2.04687 166.865C1.79687 167.115 1.67187 167.416 1.67187 167.768C1.67187 167.979 1.74414 168.145 1.88867 168.266C2.0332 168.383 2.2168 168.467 2.43945 168.518C2.66602 168.568 2.89648 168.594 3.13086 168.594C3.45117 168.594 3.75977 168.57 4.05664 168.523C4.35742 168.473 4.60937 168.422 4.8125 168.371C4.75781 167.969 4.69922 167.57 4.63672 167.176C4.57422 166.777 4.49609 166.287 4.40234 165.705ZM7.33789 171.641C7.45508 171.687 7.58008 171.756 7.71289 171.846C7.84961 171.939 7.99805 172.064 8.1582 172.221C8.06445 172.354 7.96875 172.486 7.87109 172.619C7.77734 172.756 7.67969 172.893 7.57812 173.029C7.45703 172.916 7.32617 172.811 7.18555 172.713C7.04883 172.619 6.91016 172.535 6.76953 172.461C6.86719 172.324 6.96094 172.189 7.05078 172.057C7.14453 171.924 7.24023 171.785 7.33789 171.641ZM6.75781 170C6.64062 170 6.58203 169.877 6.58203 169.631V169.602C6.58203 169.355 6.64062 169.232 6.75781 169.232C7.12891 169.232 7.43359 169.199 7.67187 169.133C7.91406 169.062 8.10937 168.936 8.25781 168.752C8.41016 168.564 8.53516 168.299 8.63281 167.955C8.73437 167.611 8.82812 167.164 8.91406 166.613L9.42383 166.672C9.4043 166.902 9.38867 167.117 9.37695 167.316C9.36914 167.512 9.36523 167.687 9.36523 167.844C9.36523 168.273 9.49805 168.613 9.76367 168.863C10.0293 169.109 10.4238 169.232 10.9473 169.232H10.9531V170H10.9473C10.4004 170 9.96875 169.861 9.65234 169.584C9.33984 169.303 9.12305 168.879 9.00195 168.312C8.82617 168.867 8.55859 169.287 8.19922 169.572C7.84375 169.857 7.36328 170 6.75781 170ZM11.9727 163.631C12.0898 163.678 12.2148 163.748 12.3477 163.842C12.4844 163.932 12.6328 164.055 12.793 164.211C12.6992 164.344 12.6035 164.479 12.5059 164.615C12.4121 164.748 12.3145 164.883 12.2129 165.02C12.0918 164.906 11.9609 164.803 11.8203 164.709C11.6836 164.611 11.5449 164.525 11.4043 164.451C11.502 164.314 11.5957 164.18 11.6855 164.047C11.7793 163.914 11.875 163.775 11.9727 163.631ZM10.9531 170C10.8359 170 10.7773 169.877 10.7773 169.631V169.602C10.7773 169.355 10.8359 169.232 10.9531 169.232C11.5078 169.232 11.916 169.133 12.1777 168.934C12.4395 168.73 12.5703 168.402 12.5703 167.949C12.5703 167.793 12.5566 167.594 12.5293 167.352C12.5059 167.105 12.4766 166.906 12.4414 166.754L12.9395 166.637C13.0488 167.32 13.168 167.852 13.2969 168.23C13.4258 168.605 13.5898 168.867 13.7891 169.016C13.9922 169.16 14.2559 169.232 14.5801 169.232H14.5859V170H14.5801C14.1035 170 13.7402 169.879 13.4902 169.637C13.2402 169.395 13.0566 168.984 12.9395 168.406C12.8379 168.973 12.6328 169.381 12.3242 169.631C12.0156 169.877 11.5586 170 10.9531 170ZM21.207 170.064C20.2187 170.064 19.7031 169.48 19.6602 168.312C19.5391 168.855 19.3203 169.283 19.0039 169.596C18.6914 169.908 18.3242 170.064 17.9023 170.064C17.0547 170.064 16.6016 169.443 16.543 168.201C16.3203 168.822 16.0508 169.277 15.7344 169.566C15.4219 169.855 15.0391 170 14.5859 170C14.4687 170 14.4102 169.877 14.4102 169.631V169.602C14.4102 169.355 14.4687 169.232 14.5859 169.232C15.1289 169.232 15.543 169.049 15.8281 168.682C16.1172 168.314 16.3457 167.678 16.5137 166.771L17.0176 166.83C17.002 167.037 16.9863 167.273 16.9707 167.539C16.9551 167.805 16.9473 168.006 16.9473 168.143C16.9473 168.561 17.0312 168.863 17.1992 169.051C17.3672 169.234 17.6406 169.326 18.0195 169.326C18.3047 169.326 18.5371 169.266 18.7168 169.145C18.8965 169.023 19.0508 168.807 19.1797 168.494C19.3086 168.182 19.4375 167.738 19.5664 167.164H20.1348C20.123 167.25 20.1094 167.371 20.0937 167.527C20.082 167.68 20.0703 167.838 20.0586 168.002C20.0508 168.162 20.0469 168.297 20.0469 168.406C20.0469 168.777 20.123 169.027 20.2754 169.156C20.4277 169.281 20.7285 169.344 21.1777 169.344C21.5137 169.344 21.7695 169.311 21.9453 169.244C22.1211 169.178 22.2754 169.061 22.4082 168.893C22.3535 168.506 22.2754 168.139 22.1738 167.791C22.0723 167.439 21.9492 167.105 21.8047 166.789L22.4316 166.074C22.6895 166.781 22.8184 167.559 22.8184 168.406C22.8184 168.523 22.8105 168.623 22.7949 168.705C22.7832 168.787 22.748 168.891 22.6895 169.016C22.6348 169.141 22.543 169.328 22.4141 169.578C22.0391 169.902 21.6367 170.064 21.207 170.064ZM19.7891 164.598C19.8242 164.551 19.9941 164.305 20.2988 163.859C20.502 163.934 20.748 164.107 21.0371 164.381C20.9551 164.498 20.8691 164.617 20.7793 164.738C20.6934 164.859 20.6055 164.982 20.5156 165.107C20.2891 164.896 20.0469 164.727 19.7891 164.598ZM18.7578 165.107C18.5508 164.916 18.3086 164.746 18.0312 164.598C18.207 164.344 18.377 164.098 18.541 163.859C18.7598 163.941 19.0059 164.115 19.2793 164.381C19.1621 164.549 18.9883 164.791 18.7578 165.107ZM18.8867 163.127C18.9258 163.072 19.0957 162.826 19.3965 162.389C19.6348 162.482 19.8809 162.656 20.1348 162.91C20.0488 163.031 19.9648 163.148 19.8828 163.262C19.8047 163.375 19.7148 163.5 19.6133 163.637C19.4062 163.445 19.1641 163.275 18.8867 163.127ZM26.1289 170.457C26.1289 171.027 26.0117 171.518 25.7773 171.928C25.5469 172.342 25.2441 172.658 24.8691 172.877C24.4941 173.1 24.0879 173.211 23.6504 173.211C23.4785 173.211 23.291 173.195 23.0879 173.164C22.8848 173.137 22.6914 173.107 22.5078 173.076L22.6777 172.537C23.2324 172.518 23.7324 172.453 24.1777 172.344C24.627 172.234 25.002 172.053 25.3027 171.799C25.6035 171.549 25.8125 171.205 25.9297 170.768C25.8789 170.303 25.7441 169.807 25.5254 169.279C25.3105 168.752 24.9766 168.146 24.5234 167.463L25.0391 166.818C25.2852 167.24 25.4883 167.641 25.6484 168.02C25.8086 168.395 25.9277 168.777 26.0059 169.168C26.0879 169.559 26.1289 169.988 26.1289 170.457ZM28.1562 161.211V168.553C28.2734 168.756 28.459 168.92 28.7129 169.045C28.9668 169.17 29.3457 169.232 29.8496 169.232H29.8555V170H29.8496C29.4355 170 29.0645 169.943 28.7363 169.83C28.4082 169.717 28.1504 169.527 27.9629 169.262C27.7754 168.996 27.6816 168.635 27.6816 168.178V165.535C27.6816 164.777 27.6582 164.084 27.6113 163.455C27.5684 162.822 27.5039 162.25 27.418 161.738L28.1562 161.211ZM32.709 165.037C33.3105 165.357 33.7305 165.691 33.9687 166.039C34.207 166.383 34.3262 166.781 34.3262 167.234C34.3262 168.172 34.0547 168.867 33.5117 169.32C32.9687 169.773 32.1602 170 31.0859 170C31.1523 170.254 31.3437 170.576 31.6602 170.967C31.9766 171.361 32.4062 171.762 32.9492 172.168C33.4297 171.422 33.8301 170.836 34.1504 170.41C34.4707 169.984 34.7578 169.682 35.0117 169.502C35.2695 169.322 35.5391 169.232 35.8203 169.232H35.8262V170H35.6387C35.4941 170 35.3535 170.033 35.2168 170.1C35.084 170.166 34.9355 170.287 34.7715 170.463C34.6074 170.643 34.416 170.893 34.1973 171.213C33.9824 171.537 33.7207 171.955 33.4121 172.467C33.4785 172.518 33.5605 172.572 33.6582 172.631C33.7559 172.693 33.8555 172.752 33.957 172.807L33.5469 173.492C32.793 173.039 32.1895 172.529 31.7363 171.963C31.2871 171.396 30.9668 170.742 30.7754 170H29.8555C29.7383 170 29.6797 169.877 29.6797 169.631V169.602C29.6797 169.355 29.7383 169.232 29.8555 169.232H30.6582C30.623 168.205 30.7871 167.332 31.1504 166.613C31.5137 165.891 32.0332 165.365 32.709 165.037ZM32.5215 165.846C32.2402 165.959 31.9844 166.191 31.7539 166.543C31.5234 166.891 31.3418 167.303 31.209 167.779C31.0762 168.256 31.0117 168.74 31.0156 169.232H31.3086C32.1133 169.232 32.7402 169.086 33.1895 168.793C33.6426 168.496 33.8691 168.105 33.8691 167.621C33.8691 167.387 33.8047 167.15 33.6758 166.912C33.5508 166.674 33.3867 166.459 33.1836 166.268C32.9805 166.076 32.7598 165.936 32.5215 165.846ZM38.0645 165.195C38.2637 165.195 38.4863 165.234 38.7324 165.312C38.9785 165.387 39.3301 165.525 39.7871 165.729C40.2988 165.955 40.7422 166.133 41.1172 166.262C41.4961 166.391 41.8437 166.482 42.1602 166.537C42.4805 166.588 42.8086 166.613 43.1445 166.613L42.7227 167.855C42.3437 167.969 41.9434 168.104 41.5215 168.26C41.0996 168.416 40.6641 168.619 40.2148 168.869C39.4766 169.295 38.7754 169.59 38.1113 169.754C37.4512 169.918 36.8437 170 36.2891 170H35.832C35.7148 170 35.6562 169.877 35.6562 169.631V169.602C35.6562 169.355 35.7148 169.232 35.832 169.232H35.9668C36.5371 169.232 37.1309 169.168 37.748 169.039C38.3691 168.91 39.0508 168.697 39.793 168.4C40.5352 168.104 41.373 167.707 42.3066 167.211C41.9746 167.148 41.666 167.08 41.3809 167.006C41.0957 166.932 40.7988 166.84 40.4902 166.73C40.1816 166.621 39.8223 166.482 39.4121 166.314C39.0098 166.146 38.7012 166.035 38.4863 165.98C38.2715 165.926 38.1016 165.898 37.9766 165.898C37.8047 165.898 37.6641 165.939 37.5547 166.021C37.4453 166.104 37.3516 166.25 37.2734 166.461C37.1992 166.672 37.123 166.973 37.0449 167.363L36.5762 167.305C36.7129 166.527 36.8887 165.982 37.1035 165.67C37.3184 165.354 37.6387 165.195 38.0645 165.195ZM39.1016 174.008C38.9258 173.832 38.6836 173.662 38.375 173.498C38.5508 173.244 38.7207 172.998 38.8848 172.76C39.1113 172.85 39.3574 173.023 39.623 173.281C39.3887 173.613 39.2148 173.855 39.1016 174.008ZM38.1816 172.619C37.9746 172.428 37.7324 172.258 37.4551 172.109C37.6348 171.859 37.8047 171.613 37.9648 171.371C38.1836 171.453 38.4297 171.627 38.7031 171.893C38.5547 172.107 38.3809 172.35 38.1816 172.619ZM39.2129 172.109C39.4668 171.746 39.6367 171.5 39.7227 171.371C39.9609 171.465 40.207 171.639 40.4609 171.893C40.3164 172.107 40.1426 172.35 39.9395 172.619C39.7324 172.428 39.4902 172.258 39.2129 172.109Z" fill="#1F2F37"/>
<path d="M8.2168 196.119L8.04687 195.07L8.82031 194.684L9.10742 199.518C9.17383 199.771 9.3457 199.955 9.62305 200.068C9.90039 200.178 10.2422 200.232 10.6484 200.232H10.6543V201H10.6484C10.0703 201 9.64258 200.906 9.36523 200.719C9.0918 200.527 8.89453 200.23 8.77344 199.828C8.17578 200.098 7.58984 200.232 7.01562 200.232C6.44922 200.232 6.00977 200.111 5.69727 199.869C5.38867 199.623 5.23437 199.293 5.23437 198.879C5.23437 198.566 5.33203 198.242 5.52734 197.906C5.72656 197.57 6.04492 197.248 6.48242 196.939C6.91992 196.627 7.49805 196.354 8.2168 196.119ZM8.30469 196.705C7.81641 196.854 7.36328 197.021 6.94531 197.209C6.53125 197.393 6.19922 197.611 5.94922 197.865C5.69922 198.115 5.57422 198.416 5.57422 198.768C5.57422 198.979 5.64648 199.145 5.79102 199.266C5.93555 199.383 6.11914 199.467 6.3418 199.518C6.56836 199.568 6.79883 199.594 7.0332 199.594C7.35352 199.594 7.66211 199.57 7.95898 199.523C8.25977 199.473 8.51172 199.422 8.71484 199.371C8.66016 198.969 8.60156 198.57 8.53906 198.176C8.47656 197.777 8.39844 197.287 8.30469 196.705ZM11.2402 202.641C11.3574 202.687 11.4824 202.756 11.6152 202.846C11.752 202.939 11.9004 203.064 12.0605 203.221C11.9668 203.354 11.8711 203.486 11.7734 203.619C11.6797 203.756 11.582 203.893 11.4805 204.029C11.3594 203.916 11.2285 203.811 11.0879 203.713C10.9512 203.619 10.8125 203.535 10.6719 203.461C10.7695 203.324 10.8633 203.189 10.9531 203.057C11.0469 202.924 11.1426 202.785 11.2402 202.641ZM10.6602 201C10.543 201 10.4844 200.877 10.4844 200.631V200.602C10.4844 200.355 10.543 200.232 10.6602 200.232C11.0312 200.232 11.3359 200.199 11.5742 200.133C11.8164 200.062 12.0117 199.936 12.1602 199.752C12.3125 199.564 12.4375 199.299 12.5352 198.955C12.6367 198.611 12.7305 198.164 12.8164 197.613L13.3262 197.672C13.3066 197.902 13.291 198.117 13.2793 198.316C13.2715 198.512 13.2676 198.687 13.2676 198.844C13.2676 199.273 13.4004 199.613 13.666 199.863C13.9316 200.109 14.3262 200.232 14.8496 200.232H14.8555V201H14.8496C14.3027 201 13.8711 200.861 13.5547 200.584C13.2422 200.303 13.0254 199.879 12.9043 199.312C12.7285 199.867 12.4609 200.287 12.1016 200.572C11.7461 200.857 11.2656 201 10.6602 201ZM15.875 194.631C15.9922 194.678 16.1172 194.748 16.25 194.842C16.3867 194.932 16.5352 195.055 16.6953 195.211C16.6016 195.344 16.5059 195.479 16.4082 195.615C16.3145 195.748 16.2168 195.883 16.1152 196.02C15.9941 195.906 15.8633 195.803 15.7227 195.709C15.5859 195.611 15.4473 195.525 15.3066 195.451C15.4043 195.314 15.498 195.18 15.5879 195.047C15.6816 194.914 15.7773 194.775 15.875 194.631ZM14.8555 201C14.7383 201 14.6797 200.877 14.6797 200.631V200.602C14.6797 200.355 14.7383 200.232 14.8555 200.232C15.4102 200.232 15.8184 200.133 16.0801 199.934C16.3418 199.73 16.4727 199.402 16.4727 198.949C16.4727 198.793 16.459 198.594 16.4316 198.352C16.4082 198.105 16.3789 197.906 16.3437 197.754L16.8418 197.637C16.9512 198.32 17.0703 198.852 17.1992 199.23C17.3281 199.605 17.4922 199.867 17.6914 200.016C17.8945 200.16 18.1582 200.232 18.4824 200.232H18.4883V201H18.4824C18.0059 201 17.6426 200.879 17.3926 200.637C17.1426 200.395 16.959 199.984 16.8418 199.406C16.7402 199.973 16.5352 200.381 16.2266 200.631C15.918 200.877 15.4609 201 14.8555 201ZM25.0273 201.064C24.0937 201.064 23.6055 200.48 23.5625 199.312C23.4414 199.855 23.2227 200.283 22.9062 200.596C22.5937 200.908 22.2266 201.064 21.8047 201.064C20.957 201.064 20.5039 200.443 20.4453 199.201C20.2227 199.822 19.9531 200.277 19.6367 200.566C19.3242 200.855 18.9414 201 18.4883 201C18.3711 201 18.3125 200.877 18.3125 200.631V200.602C18.3125 200.355 18.3711 200.232 18.4883 200.232C19.0312 200.232 19.4453 200.049 19.7305 199.682C20.0195 199.314 20.248 198.678 20.416 197.771L20.9199 197.83C20.9043 198.037 20.8887 198.273 20.873 198.539C20.8574 198.805 20.8496 199.006 20.8496 199.143C20.8496 199.557 20.9336 199.857 21.1016 200.045C21.2695 200.232 21.543 200.326 21.9219 200.326C22.207 200.326 22.4395 200.266 22.6191 200.145C22.7988 200.023 22.9531 199.807 23.082 199.494C23.2109 199.182 23.3398 198.738 23.4687 198.164H24.0371C24.0254 198.25 24.0117 198.371 23.9961 198.527C23.9844 198.68 23.9727 198.838 23.9609 199.002C23.9531 199.162 23.9492 199.297 23.9492 199.406C23.9492 199.777 24.0273 200.027 24.1836 200.156C24.3398 200.281 24.6426 200.344 25.0918 200.344C25.4746 200.344 25.7305 200.281 25.8594 200.156C25.9883 200.027 26.0527 199.848 26.0527 199.617C26.0527 199.477 26.0293 199.227 25.9824 198.867C25.9395 198.508 25.8613 198.115 25.748 197.689L26.3516 197.455C26.5234 198.381 26.7422 199.076 27.0078 199.541C27.2773 200.002 27.6895 200.232 28.2441 200.232H28.2852V201H28.2676C27.8066 201 27.4258 200.84 27.125 200.52C26.8281 200.199 26.5898 199.748 26.4102 199.166C26.4102 199.814 26.2734 200.293 26 200.602C25.7305 200.91 25.4062 201.064 25.0273 201.064ZM23.5156 195.598C23.5508 195.551 23.7207 195.305 24.0254 194.859C24.2285 194.934 24.4746 195.107 24.7637 195.381C24.6816 195.498 24.5957 195.617 24.5059 195.738C24.4199 195.859 24.332 195.982 24.2422 196.107C24.0156 195.896 23.7734 195.727 23.5156 195.598ZM22.4844 196.107C22.2773 195.916 22.0352 195.746 21.7578 195.598C21.9336 195.344 22.1035 195.098 22.2676 194.859C22.4863 194.941 22.7324 195.115 23.0059 195.381C22.8887 195.549 22.7148 195.791 22.4844 196.107ZM22.6133 194.127C22.6523 194.072 22.8223 193.826 23.123 193.389C23.3613 193.482 23.6074 193.656 23.8613 193.91C23.7754 194.031 23.6914 194.148 23.6094 194.262C23.5312 194.375 23.4414 194.5 23.3398 194.637C23.1328 194.445 22.8906 194.275 22.6133 194.127ZM30.5176 196.195C30.7168 196.195 30.9395 196.234 31.1855 196.312C31.4316 196.387 31.7832 196.525 32.2402 196.729C32.752 196.955 33.1953 197.133 33.5703 197.262C33.9492 197.391 34.2969 197.482 34.6133 197.537C34.9336 197.588 35.2617 197.613 35.5977 197.613L35.1758 198.855C34.918 198.918 34.6602 198.992 34.4023 199.078L34.6016 199.986C34.7422 200.096 34.9004 200.164 35.0762 200.191C35.2559 200.219 35.4902 200.232 35.7793 200.232H36.3477V201H35.5684C35.1895 201 34.875 200.906 34.625 200.719C34.3789 200.531 34.2187 200.297 34.1445 200.016L33.9453 199.248C33.7539 199.322 33.5469 199.414 33.3242 199.523C33.1055 199.629 32.8867 199.744 32.668 199.869C31.9297 200.295 31.2285 200.59 30.5645 200.754C29.9043 200.918 29.2969 201 28.7422 201H28.2852C28.168 201 28.1094 200.877 28.1094 200.631V200.602C28.1094 200.355 28.168 200.232 28.2852 200.232H28.4199C28.9902 200.232 29.584 200.168 30.2012 200.039C30.8223 199.91 31.5039 199.697 32.2461 199.4C32.9883 199.104 33.8262 198.707 34.7598 198.211C34.4277 198.148 34.1191 198.08 33.834 198.006C33.5488 197.932 33.252 197.84 32.9434 197.73C32.6348 197.621 32.2754 197.482 31.8652 197.314C31.4629 197.146 31.1543 197.035 30.9395 196.98C30.7246 196.926 30.5547 196.898 30.4297 196.898C30.2578 196.898 30.1172 196.939 30.0078 197.021C29.8984 197.104 29.8047 197.25 29.7266 197.461C29.6523 197.672 29.5762 197.973 29.498 198.363L29.0293 198.305C29.166 197.527 29.3418 196.982 29.5566 196.67C29.7715 196.354 30.0918 196.195 30.5176 196.195ZM31.6543 202.687C31.7715 202.734 31.8965 202.803 32.0293 202.893C32.166 202.986 32.3145 203.111 32.4746 203.268C32.3809 203.4 32.2852 203.533 32.1875 203.666C32.0937 203.803 31.9961 203.939 31.8945 204.076C31.7734 203.963 31.6426 203.857 31.502 203.76C31.3652 203.666 31.2266 203.582 31.0859 203.508C31.1836 203.371 31.2773 203.236 31.3672 203.104C31.4609 202.971 31.5566 202.832 31.6543 202.687ZM37.7305 194.402C37.8477 194.449 37.9727 194.52 38.1055 194.613C38.2422 194.703 38.3906 194.826 38.5508 194.982C38.457 195.115 38.3613 195.25 38.2637 195.387C38.1699 195.52 38.0723 195.654 37.9707 195.791C37.8496 195.678 37.7187 195.574 37.5781 195.48C37.4414 195.383 37.3027 195.297 37.1621 195.223C37.2598 195.086 37.3535 194.951 37.4434 194.818C37.5371 194.686 37.6328 194.547 37.7305 194.402ZM36.3477 201C36.2305 201 36.1719 200.877 36.1719 200.631V200.602C36.1719 200.355 36.2305 200.232 36.3477 200.232C36.7187 200.232 37.0234 200.199 37.2617 200.133C37.5039 200.062 37.6992 199.936 37.8477 199.752C38 199.564 38.125 199.299 38.2227 198.955C38.3242 198.611 38.418 198.164 38.5039 197.613L39.0137 197.672C38.9941 197.902 38.9785 198.117 38.9668 198.316C38.959 198.512 38.9551 198.687 38.9551 198.844C38.9551 199.273 39.0879 199.613 39.3535 199.863C39.6191 200.109 40.0137 200.232 40.5371 200.232H40.543V201H40.5371C39.9902 201 39.5586 200.861 39.2422 200.584C38.9297 200.303 38.7129 199.879 38.5918 199.312C38.416 199.867 38.1484 200.287 37.7891 200.572C37.4336 200.857 36.9531 201 36.3477 201ZM41.3047 205.57C41.1289 205.395 40.8867 205.225 40.5781 205.061C40.7539 204.807 40.9238 204.561 41.0879 204.322C41.3145 204.412 41.5605 204.586 41.8262 204.844C41.5918 205.176 41.418 205.418 41.3047 205.57ZM40.3848 204.182C40.1777 203.99 39.9355 203.82 39.6582 203.672C39.8379 203.422 40.0078 203.176 40.168 202.934C40.3867 203.016 40.6328 203.189 40.9062 203.455C40.7578 203.67 40.584 203.912 40.3848 204.182ZM41.416 203.672C41.6699 203.309 41.8398 203.062 41.9258 202.934C42.1641 203.027 42.4102 203.201 42.6641 203.455C42.5195 203.67 42.3457 203.912 42.1426 204.182C41.9355 203.99 41.6934 203.82 41.416 203.672ZM40.543 201C40.4258 201 40.3672 200.877 40.3672 200.631V200.602C40.3672 200.355 40.4258 200.232 40.543 200.232H40.7129C41.1191 200.232 41.5059 200.211 41.873 200.168C42.2441 200.125 42.5215 200.053 42.7051 199.951C42.6816 199.545 42.6074 199.092 42.4824 198.592C42.3574 198.088 42.1562 197.529 41.8789 196.916L42.5762 196.295C42.6738 196.564 42.7637 196.887 42.8457 197.262C42.9316 197.633 43 197.998 43.0508 198.357C43.1016 198.717 43.127 199.012 43.127 199.242C43.127 199.586 43.084 199.857 42.998 200.057C42.9121 200.256 42.752 200.486 42.5176 200.748C42.2285 200.846 41.9473 200.912 41.6738 200.947C41.4043 200.982 41.0742 201 40.6836 201H40.543Z" fill="#1F2F37"/>
<path d="M19.6426 227.119L19.4727 226.07L20.2461 225.684L20.5332 230.518C20.5996 230.771 20.7715 230.955 21.0488 231.068C21.3262 231.178 21.668 231.232 22.0742 231.232H22.0801V232H22.0742C21.4961 232 21.0684 231.906 20.791 231.719C20.5176 231.527 20.3203 231.23 20.1992 230.828C19.6016 231.098 19.0156 231.232 18.4414 231.232C17.875 231.232 17.4355 231.111 17.123 230.869C16.8145 230.623 16.6602 230.293 16.6602 229.879C16.6602 229.566 16.7578 229.242 16.9531 228.906C17.1523 228.57 17.4707 228.248 17.9082 227.939C18.3457 227.627 18.9238 227.354 19.6426 227.119ZM19.7305 227.705C19.2422 227.854 18.7891 228.021 18.3711 228.209C17.957 228.393 17.625 228.611 17.375 228.865C17.125 229.115 17 229.416 17 229.768C17 229.979 17.0723 230.145 17.2168 230.266C17.3613 230.383 17.5449 230.467 17.7676 230.518C17.9941 230.568 18.2246 230.594 18.459 230.594C18.7793 230.594 19.0879 230.57 19.3848 230.523C19.6855 230.473 19.9375 230.422 20.1406 230.371C20.0859 229.969 20.0273 229.57 19.9648 229.176C19.9023 228.777 19.8242 228.287 19.7305 227.705ZM25.2266 227.125C25.8906 227.125 26.418 227.291 26.8086 227.623C27.1992 227.951 27.3945 228.395 27.3945 228.953C27.3945 229.352 27.2598 229.721 26.9902 230.061C26.7246 230.396 26.3887 230.707 25.9824 230.992C26.1348 231.07 26.3848 231.131 26.7324 231.174C27.0801 231.213 27.5742 231.232 28.2148 231.232H28.2207V232H28.2148C27.5078 232 26.9414 231.937 26.5156 231.812C26.0937 231.684 25.7441 231.521 25.4668 231.326C25.2168 231.463 24.9414 231.582 24.6406 231.684C24.3437 231.785 23.9902 231.863 23.5801 231.918C23.1738 231.973 22.6758 232 22.0859 232C21.9687 232 21.9102 231.877 21.9102 231.631V231.602C21.9102 231.355 21.9687 231.232 22.0859 231.232C22.9727 231.232 23.6426 231.215 24.0957 231.18C24.5527 231.141 24.8828 231.09 25.0859 231.027C24.8906 230.793 24.6484 230.547 24.3594 230.289C24.0742 230.027 23.7754 229.777 23.4629 229.539C23.1504 229.301 22.8594 229.102 22.5898 228.941C22.6406 228.59 22.7871 228.277 23.0293 228.004C23.2754 227.73 23.5879 227.516 23.9668 227.359C24.3496 227.203 24.7695 227.125 25.2266 227.125ZM25.25 227.811C24.7852 227.811 24.377 227.865 24.0254 227.975C23.6738 228.08 23.3457 228.252 23.041 228.49C23.2793 228.635 23.543 228.828 23.832 229.07C24.1211 229.312 24.416 229.576 24.7168 229.861C25.0176 230.143 25.3027 230.422 25.5723 230.699C26.0137 230.391 26.3594 230.092 26.6094 229.803C26.8594 229.51 26.9844 229.242 26.9844 229C26.9844 228.785 26.9043 228.588 26.7441 228.408C26.5879 228.229 26.377 228.084 26.1113 227.975C25.8496 227.865 25.5625 227.811 25.25 227.811ZM32.1348 227.764C32.9121 227.764 33.4414 228.176 33.7227 229C33.9258 229.59 34.1211 230.047 34.3086 230.371C34.4961 230.695 34.707 230.92 34.9414 231.045C35.1797 231.17 35.4746 231.232 35.8262 231.232H35.832V232H35.8262C35.5918 232 35.3711 231.969 35.1641 231.906C34.9609 231.844 34.7656 231.723 34.5781 231.543C34.3906 231.359 34.2012 231.09 34.0098 230.734C34.0098 230.91 33.9922 231.109 33.957 231.332C33.6953 231.578 33.4023 231.762 33.0781 231.883C32.7578 232.004 32.4277 232.064 32.0879 232.064C31.7324 232.064 31.3809 232.002 31.0332 231.877C30.6855 231.748 30.3613 231.559 30.0605 231.309L30.1836 230.67C30.0977 230.924 29.9902 231.152 29.8613 231.355C29.7363 231.555 29.5488 231.713 29.2988 231.83C29.0488 231.943 28.6914 232 28.2266 232C28.1094 232 28.0508 231.877 28.0508 231.631V231.602C28.0508 231.355 28.1094 231.232 28.2266 231.232C28.6172 231.232 28.9414 231.141 29.1992 230.957C29.457 230.773 29.6738 230.535 29.8496 230.242C30.0254 229.949 30.1855 229.641 30.3301 229.316C30.4355 229.082 30.5566 228.846 30.6934 228.607C30.8301 228.369 31.0117 228.17 31.2383 228.01C31.4687 227.846 31.7676 227.764 32.1348 227.764ZM32.0293 228.461C31.7832 228.461 31.5645 228.531 31.373 228.672C31.1855 228.812 31.0195 228.994 30.875 229.217C30.7305 229.439 30.6055 229.68 30.5 229.937C30.3945 230.191 30.3027 230.434 30.2246 230.664C30.4043 230.867 30.6836 231.025 31.0625 231.139C31.4453 231.248 31.832 231.303 32.2227 231.303C32.4687 231.303 32.709 231.279 32.9434 231.232C33.1777 231.186 33.3789 231.1 33.5469 230.975C33.5352 230.721 33.502 230.449 33.4473 230.16C33.3965 229.871 33.3145 229.598 33.2012 229.34C33.0879 229.082 32.9355 228.871 32.7441 228.707C32.5527 228.543 32.3145 228.461 32.0293 228.461ZM38.0645 227.195C38.2637 227.195 38.4863 227.234 38.7324 227.312C38.9785 227.387 39.3301 227.525 39.7871 227.729C40.2988 227.955 40.7422 228.133 41.1172 228.262C41.4961 228.391 41.8437 228.482 42.1602 228.537C42.4805 228.588 42.8086 228.613 43.1445 228.613L42.7227 229.855C42.3437 229.969 41.9434 230.104 41.5215 230.26C41.0996 230.416 40.6641 230.619 40.2148 230.869C39.4766 231.295 38.7754 231.59 38.1113 231.754C37.4512 231.918 36.8437 232 36.2891 232H35.832C35.7148 232 35.6562 231.877 35.6562 231.631V231.602C35.6562 231.355 35.7148 231.232 35.832 231.232H35.9668C36.5371 231.232 37.1309 231.168 37.748 231.039C38.3691 230.91 39.0508 230.697 39.793 230.4C40.5352 230.104 41.373 229.707 42.3066 229.211C41.9746 229.148 41.666 229.08 41.3809 229.006C41.0957 228.932 40.7988 228.84 40.4902 228.73C40.1816 228.621 39.8223 228.482 39.4121 228.314C39.0098 228.146 38.7012 228.035 38.4863 227.98C38.2715 227.926 38.1016 227.898 37.9766 227.898C37.8047 227.898 37.6641 227.939 37.5547 228.021C37.4453 228.104 37.3516 228.25 37.2734 228.461C37.1992 228.672 37.123 228.973 37.0449 229.363L36.5762 229.305C36.7129 228.527 36.8887 227.982 37.1035 227.67C37.3184 227.354 37.6387 227.195 38.0645 227.195ZM39.2012 233.687C39.3184 233.734 39.4434 233.803 39.5762 233.893C39.7129 233.986 39.8613 234.111 40.0215 234.268C39.9277 234.4 39.832 234.533 39.7344 234.666C39.6406 234.803 39.543 234.939 39.4414 235.076C39.3203 234.963 39.1895 234.857 39.0488 234.76C38.9121 234.666 38.7734 234.582 38.6328 234.508C38.7305 234.371 38.8242 234.236 38.9141 234.104C39.0078 233.971 39.1035 233.832 39.2012 233.687Z" fill="#1F2F37"/>
<rect x="60.5" y="30.5" width="24" height="24" rx="5.5" fill="#0BAEDD" stroke="#81A2B1"/>
<rect opacity="0.5" x="90.5" y="30.5" width="24" height="24" rx="5.5" fill="#0BAEDD" stroke="#81A2B1"/>
<rect x="120.5" y="30.5" width="24" height="24" rx="5.5" stroke="#81A2B1"/>
<rect opacity="0.75" x="150.5" y="30.5" width="24" height="24" rx="5.5" fill="#0BAEDD" stroke="#81A2B1"/>
<rect x="180.5" y="30.5" width="24" height="24" rx="5.5" stroke="#81A2B1"/>
<rect opacity="0.5" x="210.5" y="30.5" width="24" height="24" rx="5.5" fill="#0BAEDD" stroke="#81A2B1"/>
<rect x="240.5" y="30.5" width="24" height="24" rx="5.5" fill="#0BAEDD" stroke="#81A2B1"/>
<rect opacity="0.75" x="270.5" y="30.5" width="24" height="24" rx="5.5" fill="#0BAEDD" stroke="#81A2B1"/>
<rect opacity="0.25" x="300.5" y="30.5" width="24" height="24" rx="5.5" fill="#0BAEDD" stroke="#81A2B1"/>
<rect x="330.5" y="30.5" width="24" height="24" rx="5.5" stroke="#81A2B1"/>
<rect x="360.5" y="30.5" width="24" height="24" rx="5.5" fill="#0BAEDD" stroke="#81A2B1"/>
<rect opacity="0.5" x="390.5" y="30.5" width="24" height="24" rx="5.5" fill="#0BAEDD" stroke="#81A2B1"/>
<rect x="420.5" y="30.5" width="24" height="24" rx="5.5" fill="#0BAEDD" stroke="#81A2B1"/>
<rect opacity="0.25" x="450.5" y="30.5" width="24" height="24" rx="5.5" fill="#0BAEDD" stroke="#81A2B1"/>
<rect x="480.5" y="30.5" width="24" height="24" rx="5.5" fill="#0BAEDD" stroke="#81A2B1"/>
<rect opacity="0.5" x="510.5" y="30.5" width="24" height="24" rx="5.5" fill="#0BAEDD" stroke="#81A2B1"/>
<rect opacity="0.25" x="60.5" y="61.5" width="24" height="24" rx="5.5" fill="#0BAEDD" stroke="#81A2B1"/>
<rect opacity="0.75" x="90.5" y="61.5" width="24" height="24" rx="5.5" fill="#0BAEDD" stroke="#81A2B1"/>
<rect x="120.5" y="61.5" width="24" height="24" rx="5.5" stroke="#81A2B1"/>
<rect x="150.5" y="61.5" width="24" height="24" rx="5.5" fill="#0BAEDD" stroke="#81A2B1"/>
<rect x="180.5" y="61.5" width="24" height="24" rx="5.5" stroke="#81A2B1"/>
<rect opacity="0.25" x="210.5" y="61.5" width="24" height="24" rx="5.5" fill="#0BAEDD" stroke="#81A2B1"/>
<rect x="240.5" y="61.5" width="24" height="24" rx="5.5" stroke="#81A2B1"/>
<rect x="270.5" y="61.5" width="24" height="24" rx="5.5" stroke="#81A2B1"/>
<rect x="300.5" y="61.5" width="24" height="24" rx="5.5" stroke="#81A2B1"/>
<rect opacity="0.25" x="330.5" y="61.5" width="24" height="24" rx="5.5" fill="#0BAEDD" stroke="#81A2B1"/>
<rect x="360.5" y="61.5" width="24" height="24" rx="5.5" stroke="#81A2B1"/>
<rect opacity="0.25" x="390.5" y="61.5" width="24" height="24" rx="5.5" fill="#0BAEDD" stroke="#81A2B1"/>
<rect opacity="0.75" x="420.5" y="61.5" width="24" height="24" rx="5.5" fill="#0BAEDD" stroke="#81A2B1"/>
<rect opacity="0.75" x="450.5" y="61.5" width="24" height="24" rx="5.5" fill="#0BAEDD" stroke="#81A2B1"/>
<rect x="480.5" y="61.5" width="24" height="24" rx="5.5" stroke="#81A2B1"/>
<rect x="510.5" y="61.5" width="24" height="24" rx="5.5" fill="#0BAEDD" stroke="#81A2B1"/>
<rect opacity="0.25" x="60.5" y="92.5" width="24" height="24" rx="5.5" fill="#0BAEDD" stroke="#81A2B1"/>
<rect x="90.5" y="92.5" width="24" height="24" rx="5.5" stroke="#81A2B1"/>
<rect opacity="0.25" x="120.5" y="92.5" width="24" height="24" rx="5.5" fill="#0BAEDD" stroke="#81A2B1"/>
<rect opacity="0.25" x="150.5" y="92.5" width="24" height="24" rx="5.5" fill="#0BAEDD" stroke="#81A2B1"/>
<rect x="180.5" y="92.5" width="24" height="24" rx="5.5" stroke="#81A2B1"/>
<rect opacity="0.5" x="210.5" y="92.5" width="24" height="24" rx="5.5" fill="#0BAEDD" stroke="#81A2B1"/>
<rect x="240.5" y="92.5" width="24" height="24" rx="5.5" stroke="#81A2B1"/>
<rect opacity="0.75" x="270.5" y="92.5" width="24" height="24" rx="5.5" fill="#0BAEDD" stroke="#81A2B1"/>
<rect opacity="0.25" x="300.5" y="92.5" width="24" height="24" rx="5.5" fill="#0BAEDD" stroke="#81A2B1"/>
<rect opacity="0.5" x="330.5" y="92.5" width="24" height="24" rx="5.5" fill="#0BAEDD" stroke="#81A2B1"/>
<rect x="360.5" y="92.5" width="24" height="24" rx="5.5" stroke="#81A2B1"/>
<rect x="390.5" y="92.5" width="24" height="24" rx="5.5" stroke="#81A2B1"/>
<rect x="420.5" y="92.5" width="24" height="24" rx="5.5" stroke="#81A2B1"/>
<rect opacity="0.25" x="450.5" y="92.5" width="24" height="24" rx="5.5" fill="#0BAEDD" stroke="#81A2B1"/>
<rect x="480.5" y="92.5" width="24" height="24" rx="5.5" stroke="#81A2B1"/>
<rect opacity="0.25" x="510.5" y="92.5" width="24" height="24" rx="5.5" fill="#0BAEDD" stroke="#81A2B1"/>
<rect opacity="0.25" x="60.5" y="123.5" width="24" height="24" rx="5.5" fill="#0BAEDD" stroke="#81A2B1"/>
<rect x="90.5" y="123.5" width="24" height="24" rx="5.5" stroke="#81A2B1"/>
<rect opacity="0.25" x="120.5" y="123.5" width="24" height="24" rx="5.5" fill="#0BAEDD" stroke="#81A2B1"/>
<rect opacity="0.5" x="150.5" y="123.5" width="24" height="24" rx="5.5" fill="#0BAEDD" stroke="#81A2B1"/>
<rect opacity="0.75" x="180.5" y="123.5" width="24" height="24" rx="5.5" fill="#0BAEDD" stroke="#81A2B1"/>
<rect opacity="0.25" x="210.5" y="123.5" width="24" height="24" rx="5.5" fill="#0BAEDD" stroke="#81A2B1"/>
<rect x="240.5" y="123.5" width="24" height="24" rx="5.5" stroke="#81A2B1"/>
<rect opacity="0.25" x="270.5" y="123.5" width="24" height="24" rx="5.5" fill="#0BAEDD" stroke="#81A2B1"/>
<rect x="300.5" y="123.5" width="24" height="24" rx="5.5" stroke="#81A2B1"/>
<rect opacity="0.75" x="330.5" y="123.5" width="24" height="24" rx="5.5" fill="#0BAEDD" stroke="#81A2B1"/>
<rect x="360.5" y="123.5" width="24" height="24" rx="5.5" stroke="#81A2B1"/>
<rect opacity="0.75" x="390.5" y="123.5" width="24" height="24" rx="5.5" fill="#0BAEDD" stroke="#81A2B1"/>
<rect opacity="0.25" x="420.5" y="123.5" width="24" height="24" rx="5.5" fill="#0BAEDD" stroke="#81A2B1"/>
<rect x="450.5" y="123.5" width="24" height="24" rx="5.5" fill="#0BAEDD" stroke="#81A2B1"/>
<rect opacity="0.75" x="480.5" y="123.5" width="24" height="24" rx="5.5" fill="#0BAEDD" stroke="#81A2B1"/>
<rect opacity="0.75" x="510.5" y="123.5" width="24" height="24" rx="5.5" fill="#0BAEDD" stroke="#81A2B1"/>
<rect x="60.5" y="154.5" width="24" height="24" rx="5.5" fill="#0BAEDD" stroke="#81A2B1"/>
<rect opacity="0.25" x="90.5" y="154.5" width="24" height="24" rx="5.5" fill="#0BAEDD" stroke="#81A2B1"/>
<rect opacity="0.5" x="120.5" y="154.5" width="24" height="24" rx="5.5" fill="#0BAEDD" stroke="#81A2B1"/>
<rect x="150.5" y="154.5" width="24" height="24" rx="5.5" stroke="#81A2B1"/>
<rect opacity="0.25" x="180.5" y="154.5" width="24" height="24" rx="5.5" fill="#0BAEDD" stroke="#81A2B1"/>
<rect x="210.5" y="154.5" width="24" height="24" rx="5.5" stroke="#81A2B1"/>
<rect opacity="0.25" x="240.5" y="154.5" width="24" height="24" rx="5.5" fill="#0BAEDD" stroke="#81A2B1"/>
<rect opacity="0.75" x="270.5" y="154.5" width="24" height="24" rx="5.5" fill="#0BAEDD" stroke="#81A2B1"/>
<rect opacity="0.75" x="300.5" y="154.5" width="24" height="24" rx="5.5" fill="#0BAEDD" stroke="#81A2B1"/>
<rect opacity="0.5" x="330.5" y="154.5" width="24" height="24" rx="5.5" fill="#0BAEDD" stroke="#81A2B1"/>
<rect x="360.5" y="154.5" width="24" height="24" rx="5.5" fill="#0BAEDD" stroke="#81A2B1"/>
<rect opacity="0.25" x="390.5" y="154.5" width="24" height="24" rx="5.5" fill="#0BAEDD" stroke="#81A2B1"/>
<rect x="420.5" y="154.5" width="24" height="24" rx="5.5" stroke="#81A2B1"/>
<rect x="450.5" y="154.5" width="24" height="24" rx="5.5" stroke="#81A2B1"/>
<rect opacity="0.25" x="480.5" y="154.5" width="24" height="24" rx="5.5" fill="#0BAEDD" stroke="#81A2B1"/>
<rect opacity="0.75" x="510.5" y="154.5" width="24" height="24" rx="5.5" fill="#0BAEDD" stroke="#81A2B1"/>
<rect x="60.5" y="185.5" width="24" height="24" rx="5.5" stroke="#81A2B1"/>
<rect opacity="0.5" x="90.5" y="185.5" width="24" height="24" rx="5.5" fill="#0BAEDD" stroke="#81A2B1"/>
<rect opacity="0.75" x="120.5" y="185.5" width="24" height="24" rx="5.5" fill="#0BAEDD" stroke="#81A2B1"/>
<rect x="150.5" y="185.5" width="24" height="24" rx="5.5" stroke="#81A2B1"/>
<rect opacity="0.25" x="180.5" y="185.5" width="24" height="24" rx="5.5" fill="#0BAEDD" stroke="#81A2B1"/>
<rect x="210.5" y="185.5" width="24" height="24" rx="5.5" fill="#0BAEDD" stroke="#81A2B1"/>
<rect opacity="0.25" x="240.5" y="185.5" width="24" height="24" rx="5.5" fill="#0BAEDD" stroke="#81A2B1"/>
<rect x="270.5" y="185.5" width="24" height="24" rx="5.5" stroke="#81A2B1"/>
<rect x="300.5" y="185.5" width="24" height="24" rx="5.5" stroke="#81A2B1"/>
<rect opacity="0.75" x="330.5" y="185.5" width="24" height="24" rx="5.5" fill="#0BAEDD" stroke="#81A2B1"/>
<rect opacity="0.25" x="360.5" y="185.5" width="24" height="24" rx="5.5" fill="#0BAEDD" stroke="#81A2B1"/>
<rect x="390.5" y="185.5" width="24" height="24" rx="5.5" stroke="#81A2B1"/>
<rect x="420.5" y="185.5" width="24" height="24" rx="5.5" fill="#0BAEDD" stroke="#81A2B1"/>
<rect opacity="0.5" x="450.5" y="185.5" width="24" height="24" rx="5.5" fill="#0BAEDD" stroke="#81A2B1"/>
<rect x="480.5" y="185.5" width="24" height="24" rx="5.5" stroke="#81A2B1"/>
<rect opacity="0.25" x="510.5" y="185.5" width="24" height="24" rx="5.5" fill="#0BAEDD" stroke="#81A2B1"/>
<rect x="60.5" y="216.5" width="24" height="24" rx="5.5" stroke="#81A2B1"/>
<rect x="90.5" y="216.5" width="24" height="24" rx="5.5" stroke="#81A2B1"/>
<rect x="120.5" y="216.5" width="24" height="24" rx="5.5" stroke="#81A2B1"/>
<rect x="150.5" y="216.5" width="24" height="24" rx="5.5" stroke="#81A2B1"/>
<rect x="180.5" y="216.5" width="24" height="24" rx="5.5" stroke="#81A2B1"/>
<rect x="210.5" y="216.5" width="24" height="24" rx="5.5" stroke="#81A2B1"/>
<rect x="240.5" y="216.5" width="24" height="24" rx="5.5" stroke="#81A2B1"/>
<rect x="270.5" y="216.5" width="24" height="24" rx="5.5" stroke="#81A2B1"/>
<rect x="300.5" y="216.5" width="24" height="24" rx="5.5" stroke="#81A2B1"/>
<rect x="330.5" y="216.5" width="24" height="24" rx="5.5" stroke="#81A2B1"/>
<rect x="360.5" y="216.5" width="24" height="24" rx="5.5" stroke="#81A2B1"/>
<rect x="390.5" y="216.5" width="24" height="24" rx="5.5" stroke="#81A2B1"/>
<rect x="420.5" y="216.5" width="24" height="24" rx="5.5" stroke="#81A2B1"/>
<rect x="450.5" y="216.5" width="24" height="24" rx="5.5" stroke="#81A2B1"/>
<rect x="480.5" y="216.5" width="24" height="24" rx="5.5" stroke="#81A2B1"/>
<rect x="510.5" y="216.5" width="24" height="24" rx="5.5" stroke="#81A2B1"/>
<rect opacity="0.25" x="384.5" y="250.5" width="20" height="20" rx="5.5" fill="#0BAEDD" stroke="#81A2B1"/>
<rect x="354.5" y="250.5" width="20" height="20" rx="5.5" stroke="#81A2B1"/>
<rect opacity="0.5" x="414.5" y="250.5" width="20" height="20" rx="5.5" fill="#0BAEDD" stroke="#81A2B1"/>
<rect opacity="0.75" x="444.5" y="250.5" width="20" height="20" rx="5.5" fill="#0BAEDD" stroke="#81A2B1"/>
<rect x="474.5" y="250.5" width="20" height="20" rx="5.5" fill="#0BAEDD" stroke="#81A2B1"/>
<path d="M124.248 13.959C124.248 14.623 124.127 15.207 123.885 15.7109C123.643 16.2188 123.322 16.6133 122.924 16.8945C122.525 17.1797 122.09 17.3223 121.617 17.3223C121.355 17.3223 121.096 17.293 120.838 17.2344C120.58 17.1797 120.301 17.0801 120 16.9355L120.334 16.0742C121.049 16.0195 121.686 15.873 122.244 15.6348C122.807 15.3965 123.215 15 123.469 14.4453C123.367 13.9648 123.203 13.4727 122.977 12.9688C122.754 12.4648 122.441 11.9102 122.039 11.3047L123.029 10.0859C123.439 10.7734 123.744 11.4199 123.943 12.0254C124.146 12.6309 124.248 13.2754 124.248 13.959ZM127.5 8.97852C127.891 8.97852 128.254 9.13086 128.59 9.43555C128.926 9.74023 129.209 10.1602 129.439 10.6953C129.674 11.2305 129.83 11.8438 129.908 12.5352H130.588V14H129.955C129.92 14.668 129.762 15.252 129.48 15.752C129.199 16.2559 128.814 16.6465 128.326 16.9238C127.842 17.2051 127.273 17.3457 126.621 17.3457C126.34 17.3457 126.062 17.3145 125.789 17.252C125.52 17.1895 125.23 17.084 124.922 16.9355L125.256 16.0742C126.33 16.0742 127.182 15.9551 127.811 15.7168C128.443 15.4785 128.92 15.0938 129.24 14.5625C129.236 14.4375 129.23 14.3223 129.223 14.2168C129.215 14.1152 129.201 14.002 129.182 13.877C128.596 14.0176 127.965 14.0879 127.289 14.0879C126.664 14.0879 126.201 13.9648 125.9 13.7188C125.604 13.4688 125.455 13.0547 125.455 12.4766C125.455 12.0234 125.506 11.5879 125.607 11.1699C125.709 10.752 125.852 10.3789 126.035 10.0508C126.219 9.71875 126.436 9.45703 126.686 9.26562C126.936 9.07422 127.207 8.97852 127.5 8.97852ZM127.254 10.2559C127.066 10.2559 126.895 10.3359 126.738 10.4961C126.582 10.6523 126.457 10.8594 126.363 11.1172C126.273 11.3711 126.229 11.6426 126.229 11.9316C126.229 12.2441 126.324 12.4551 126.516 12.5645C126.707 12.6738 127.02 12.7285 127.453 12.7285C127.684 12.7285 127.93 12.7227 128.191 12.7109C128.457 12.6953 128.709 12.6719 128.947 12.6406C128.814 11.8984 128.592 11.3164 128.279 10.8945C127.971 10.4688 127.629 10.2559 127.254 10.2559ZM130.482 16.4902C130.713 16.1816 130.938 15.8613 131.156 15.5293C131.445 15.6426 131.766 15.8711 132.117 16.2148C132.004 16.3789 131.889 16.5371 131.771 16.6895C131.658 16.8457 131.545 17.0039 131.432 17.1641C131.174 16.9258 130.857 16.7012 130.482 16.4902ZM132.422 16.4902C132.738 16.041 132.961 15.7207 133.09 15.5293C133.395 15.6465 133.717 15.875 134.057 16.2148C133.943 16.375 133.828 16.5332 133.711 16.6895C133.598 16.8457 133.484 17.0039 133.371 17.1641C133.168 16.9727 132.852 16.748 132.422 16.4902ZM130.594 14C130.453 14 130.383 13.8633 130.383 13.5898V12.9453C130.383 12.6719 130.453 12.5352 130.594 12.5352H132.018C132.354 12.5352 132.67 12.5176 132.967 12.4824C133.268 12.4434 133.504 12.3809 133.676 12.2949C133.637 11.9238 133.545 11.5156 133.4 11.0703C133.256 10.6211 133.062 10.1484 132.82 9.65234L133.939 8.58594C134.068 8.85156 134.188 9.16602 134.297 9.5293C134.406 9.89258 134.494 10.2637 134.561 10.6426C134.631 11.0215 134.666 11.3672 134.666 11.6797C134.666 12.0547 134.609 12.3945 134.496 12.6992C134.387 13.0039 134.211 13.3203 133.969 13.6484C133.652 13.7773 133.328 13.8691 132.996 13.9238C132.668 13.9746 132.287 14 131.854 14H130.594ZM137.701 10.0859L138.352 11.252C138.594 11.6973 138.83 12.0234 139.061 12.2305C139.295 12.4336 139.613 12.5352 140.016 12.5352H140.021V14H140.016C139.785 14 139.58 13.9668 139.4 13.9004C139.221 13.8301 139.053 13.7344 138.896 13.6133C138.939 14.332 138.85 14.9707 138.627 15.5293C138.408 16.0879 138.096 16.5254 137.689 16.8418C137.283 17.1621 136.816 17.3223 136.289 17.3223C136.027 17.3223 135.768 17.293 135.51 17.2344C135.252 17.1797 134.973 17.0801 134.672 16.9355L135.012 16.0742C135.723 16.0195 136.357 15.873 136.916 15.6348C137.479 15.3965 137.887 15 138.141 14.4453C138.039 13.9609 137.875 13.4688 137.648 12.9688C137.426 12.4648 137.113 11.9102 136.711 11.3047L137.701 10.0859ZM143.08 8.28125C143.693 8.56641 144.143 8.91797 144.428 9.33594C144.713 9.75 144.855 10.2305 144.855 10.7773C144.855 11.6797 144.588 12.3848 144.053 12.8926C143.521 13.3965 142.773 13.7051 141.809 13.8184C141.891 14.0371 142.057 14.2988 142.307 14.6035C142.557 14.9082 142.889 15.2188 143.303 15.5352C143.771 14.8398 144.182 14.2715 144.533 13.8301C144.889 13.3887 145.215 13.0625 145.512 12.8516C145.809 12.6406 146.109 12.5352 146.414 12.5352H146.42V14H146.109C145.887 14 145.68 14.0586 145.488 14.1758C145.297 14.293 145.088 14.498 144.861 14.791C144.639 15.0879 144.365 15.502 144.041 16.0332C144.115 16.0801 144.205 16.1328 144.311 16.1914C144.416 16.25 144.521 16.3047 144.627 16.3555L143.918 17.5859C142.277 16.7422 141.248 15.5449 140.83 13.9941C140.697 13.9941 140.566 13.9961 140.438 14C140.312 14 140.176 14 140.027 14C139.887 14 139.816 13.8633 139.816 13.5898V12.9453C139.816 12.6719 139.887 12.5352 140.027 12.5352H140.707C140.738 11.5508 140.959 10.6816 141.369 9.92773C141.779 9.17383 142.35 8.625 143.08 8.28125ZM142.875 9.66992C142.625 9.77539 142.398 9.97656 142.195 10.2734C141.996 10.5703 141.838 10.918 141.721 11.3164C141.604 11.7109 141.541 12.1172 141.533 12.5352H142.014C142.65 12.5352 143.146 12.4219 143.502 12.1953C143.857 11.9688 144.035 11.6582 144.035 11.2637C144.035 11.0605 143.984 10.8535 143.883 10.6426C143.785 10.4316 143.648 10.2383 143.473 10.0625C143.301 9.88672 143.102 9.75586 142.875 9.66992ZM153.27 14.0879C152.785 14.0879 152.406 13.9512 152.133 13.6777C151.859 13.4043 151.699 13.0098 151.652 12.4941C151.531 12.998 151.309 13.3906 150.984 13.6719C150.664 13.9492 150.295 14.0879 149.877 14.0879C149.455 14.0879 149.109 13.9453 148.84 13.6602C148.57 13.3711 148.408 12.957 148.354 12.418C148.166 12.9609 147.902 13.3613 147.562 13.6191C147.227 13.873 146.848 14 146.426 14C146.285 14 146.215 13.8633 146.215 13.5898V12.9453C146.215 12.6719 146.285 12.5352 146.426 12.5352C146.777 12.5352 147.061 12.4609 147.275 12.3125C147.49 12.1641 147.666 11.9219 147.803 11.5859C147.939 11.2461 148.059 10.7891 148.16 10.2148L149.045 10.332C149.018 10.5508 148.994 10.7812 148.975 11.0234C148.959 11.2656 148.951 11.4551 148.951 11.5918C148.951 11.9707 149.021 12.2422 149.162 12.4062C149.307 12.5703 149.559 12.6523 149.918 12.6523C150.188 12.6523 150.404 12.5938 150.568 12.4766C150.732 12.3594 150.869 12.1523 150.979 11.8555C151.088 11.5586 151.193 11.1406 151.295 10.6016H152.215C152.195 10.7383 152.176 10.9238 152.156 11.1582C152.141 11.3926 152.133 11.584 152.133 11.7324C152.133 12.0879 152.209 12.3301 152.361 12.459C152.514 12.5879 152.803 12.6523 153.229 12.6523C153.525 12.6523 153.75 12.623 153.902 12.5645C154.055 12.502 154.199 12.3867 154.336 12.2188C154.266 11.8594 154.172 11.5117 154.055 11.1758C153.938 10.8398 153.799 10.5254 153.639 10.2324L154.605 9.24219C154.754 9.57422 154.877 9.94922 154.975 10.3672C155.072 10.7812 155.121 11.2461 155.121 11.7617C155.121 12.0273 155.082 12.2949 155.004 12.5645C154.926 12.8301 154.783 13.166 154.576 13.5723C154.361 13.752 154.154 13.8828 153.955 13.9648C153.76 14.0469 153.531 14.0879 153.27 14.0879ZM153.117 7.75977L152.438 8.70898C152.051 8.38867 151.732 8.16602 151.482 8.04102C151.854 7.51367 152.078 7.19141 152.156 7.07422C152.402 7.16797 152.604 7.28711 152.76 7.43164C152.916 7.57227 153.035 7.68164 153.117 7.75977ZM149.549 8.04102C149.689 7.83789 149.914 7.51562 150.223 7.07422C150.512 7.1875 150.832 7.41602 151.184 7.75977C151.07 7.91602 150.957 8.07422 150.844 8.23438C150.73 8.39062 150.615 8.54883 150.498 8.70898C150.209 8.45117 149.893 8.22852 149.549 8.04102ZM150.486 6.40625C150.775 5.99219 150.998 5.66992 151.154 5.43945C151.463 5.56445 151.783 5.79297 152.115 6.125C151.932 6.38672 151.705 6.70312 151.436 7.07422C151.146 6.81641 150.83 6.59375 150.486 6.40625Z" fill="#1F2F37"/>
<path d="M273.029 10.0859L273.68 11.252C273.922 11.6973 274.158 12.0234 274.389 12.2305C274.623 12.4336 274.941 12.5352 275.344 12.5352H275.35V14H275.344C275.113 14 274.908 13.9668 274.729 13.9004C274.549 13.8301 274.381 13.7344 274.225 13.6133C274.268 14.332 274.178 14.9707 273.955 15.5293C273.736 16.0879 273.424 16.5254 273.018 16.8418C272.611 17.1621 272.145 17.3223 271.617 17.3223C271.355 17.3223 271.096 17.293 270.838 17.2344C270.58 17.1797 270.301 17.0801 270 16.9355L270.34 16.0742C271.051 16.0195 271.686 15.873 272.244 15.6348C272.807 15.3965 273.215 15 273.469 14.4453C273.367 13.9609 273.203 13.4688 272.977 12.9688C272.754 12.4648 272.441 11.9102 272.039 11.3047L273.029 10.0859ZM278.408 8.28125C279.021 8.56641 279.471 8.91797 279.756 9.33594C280.041 9.75 280.184 10.2305 280.184 10.7773C280.184 11.6797 279.916 12.3848 279.381 12.8926C278.85 13.3965 278.102 13.7051 277.137 13.8184C277.219 14.0371 277.385 14.2988 277.635 14.6035C277.885 14.9082 278.217 15.2188 278.631 15.5352C279.1 14.8398 279.51 14.2715 279.861 13.8301C280.217 13.3887 280.543 13.0625 280.84 12.8516C281.137 12.6406 281.438 12.5352 281.742 12.5352H281.748V14H281.438C281.215 14 281.008 14.0586 280.816 14.1758C280.625 14.293 280.416 14.498 280.189 14.791C279.967 15.0879 279.693 15.502 279.369 16.0332C279.443 16.0801 279.533 16.1328 279.639 16.1914C279.744 16.25 279.85 16.3047 279.955 16.3555L279.246 17.5859C277.605 16.7422 276.576 15.5449 276.158 13.9941C276.025 13.9941 275.895 13.9961 275.766 14C275.641 14 275.504 14 275.355 14C275.215 14 275.145 13.8633 275.145 13.5898V12.9453C275.145 12.6719 275.215 12.5352 275.355 12.5352H276.035C276.066 11.5508 276.287 10.6816 276.697 9.92773C277.107 9.17383 277.678 8.625 278.408 8.28125ZM278.203 9.66992C277.953 9.77539 277.727 9.97656 277.523 10.2734C277.324 10.5703 277.166 10.918 277.049 11.3164C276.932 11.7109 276.869 12.1172 276.861 12.5352H277.342C277.979 12.5352 278.475 12.4219 278.83 12.1953C279.186 11.9688 279.363 11.6582 279.363 11.2637C279.363 11.0605 279.312 10.8535 279.211 10.6426C279.113 10.4316 278.977 10.2383 278.801 10.0625C278.629 9.88672 278.43 9.75586 278.203 9.66992ZM285.709 8.97852C286.076 8.97852 286.389 9.07422 286.646 9.26562C286.908 9.45703 287.121 9.71484 287.285 10.0391C287.449 10.3633 287.57 10.7305 287.648 11.1406C287.727 11.5508 287.766 11.9746 287.766 12.4121C287.766 12.5762 287.76 12.7344 287.748 12.8867C287.74 13.0391 287.725 13.1953 287.701 13.3555C287.428 13.6055 287.113 13.791 286.758 13.9121C286.406 14.0293 286.045 14.0879 285.674 14.0879C285.299 14.0879 284.93 14.0273 284.566 13.9062C284.207 13.7852 283.891 13.6016 283.617 13.3555L283.799 12.5645C283.686 12.8379 283.551 13.084 283.395 13.3027C283.242 13.5176 283.037 13.6875 282.779 13.8125C282.521 13.9375 282.18 14 281.754 14C281.613 14 281.543 13.8633 281.543 13.5898V12.9453C281.543 12.6719 281.613 12.5352 281.754 12.5352C282.094 12.5352 282.379 12.457 282.609 12.3008C282.84 12.1445 283.035 11.9414 283.195 11.6914C283.359 11.4375 283.504 11.1719 283.629 10.8945C283.809 10.5117 283.99 10.1777 284.174 9.89258C284.357 9.60352 284.57 9.37891 284.812 9.21875C285.059 9.05859 285.357 8.97852 285.709 8.97852ZM285.639 10.2441C285.373 10.2441 285.143 10.3379 284.947 10.5254C284.752 10.709 284.582 10.9375 284.438 11.2109C284.297 11.4844 284.174 11.7578 284.068 12.0312C284.244 12.207 284.496 12.3477 284.824 12.4531C285.156 12.5547 285.498 12.6055 285.85 12.6055C286.053 12.6055 286.248 12.5859 286.436 12.5469C286.627 12.5078 286.795 12.4395 286.939 12.3418C286.932 12.0371 286.883 11.7227 286.793 11.3984C286.707 11.0742 286.57 10.8008 286.383 10.5781C286.195 10.3555 285.947 10.2441 285.639 10.2441Z" fill="#1F2F37"/>
<path d="M426.961 14.334C426.863 13.7715 426.715 13.2285 426.516 12.7051C426.316 12.1777 426.055 11.6055 425.73 10.9883L426.756 9.7168C427.092 10.3848 427.355 11.0391 427.547 11.6797C427.738 12.3164 427.834 13.002 427.834 13.7363C427.834 14.4238 427.672 15.0098 427.348 15.4941C427.023 15.9785 426.574 16.3477 426 16.6016C425.426 16.8594 424.766 16.9883 424.02 16.9883C422.98 16.9883 422.162 16.7402 421.564 16.2441C420.971 15.752 420.674 15.0176 420.674 14.041C420.674 13.4199 420.734 12.8652 420.855 12.377C420.98 11.8848 421.15 11.4102 421.365 10.9531L422.232 11.3867C422.092 11.7461 421.957 12.1328 421.828 12.5469C421.699 12.9609 421.635 13.3691 421.635 13.7715C421.635 14.1074 421.713 14.3828 421.869 14.5977C422.025 14.8164 422.23 14.9863 422.484 15.1074C422.742 15.2285 423.023 15.3125 423.328 15.3594C423.637 15.4102 423.939 15.4355 424.236 15.4355C424.818 15.4355 425.361 15.3398 425.865 15.1484C426.369 14.9609 426.734 14.6895 426.961 14.334ZM423.756 8.60352C423.936 8.67383 424.113 8.77344 424.289 8.90234C424.469 9.03125 424.648 9.18555 424.828 9.36523C424.707 9.54102 424.582 9.7168 424.453 9.89258C424.328 10.0645 424.199 10.2402 424.066 10.4199C423.754 10.1387 423.402 9.89062 423.012 9.67578C423.141 9.49219 423.266 9.31445 423.387 9.14258C423.512 8.9668 423.635 8.78711 423.756 8.60352ZM430.254 4.74219V12.0254C430.367 12.1816 430.529 12.3066 430.74 12.4004C430.951 12.4902 431.248 12.5352 431.631 12.5352H431.637V14H431.631C430.732 14 430.094 13.8047 429.715 13.4141C429.34 13.0234 429.152 12.4961 429.152 11.832V9.38281C429.152 8.64844 429.129 7.95898 429.082 7.31445C429.035 6.66992 428.961 6.08594 428.859 5.5625L430.254 4.74219ZM432.158 15.4297C432.338 15.5 432.516 15.5996 432.691 15.7285C432.871 15.8574 433.051 16.0117 433.23 16.1914C433.109 16.3672 432.984 16.541 432.855 16.7129C432.73 16.8887 432.602 17.0664 432.469 17.2461C432.156 16.9648 431.805 16.7168 431.414 16.502C431.543 16.3184 431.668 16.1387 431.789 15.9629C431.914 15.791 432.037 15.6133 432.158 15.4297ZM431.637 14C431.496 14 431.426 13.8633 431.426 13.5898V12.9453C431.426 12.6719 431.496 12.5352 431.637 12.5352H431.977C432.312 12.5352 432.629 12.5176 432.926 12.4824C433.227 12.4434 433.463 12.3809 433.635 12.2949C433.549 11.5293 433.262 10.6484 432.773 9.65234L433.893 8.58594C434.021 8.85156 434.141 9.16602 434.25 9.5293C434.363 9.89258 434.453 10.2637 434.52 10.6426C434.59 11.0215 434.625 11.3672 434.625 11.6797C434.625 12.0547 434.568 12.3945 434.455 12.6992C434.342 13.0039 434.164 13.3203 433.922 13.6484C433.605 13.7773 433.281 13.8691 432.949 13.9238C432.621 13.9746 432.238 14 431.801 14H431.637ZM436.178 2.12305C436.318 2.12305 436.473 2.14844 436.641 2.19922C436.812 2.24609 436.986 2.29883 437.162 2.35742C437.334 2.41211 437.504 2.46289 437.672 2.50977C437.84 2.55664 437.99 2.58008 438.123 2.58008C438.354 2.58008 438.551 2.51758 438.715 2.39258C438.879 2.26758 439.035 2.0625 439.184 1.77734L439.828 2.04102C439.637 2.54492 439.393 2.96094 439.096 3.28906C438.803 3.61719 438.395 3.78125 437.871 3.78125C437.699 3.78125 437.525 3.75781 437.35 3.71094C437.178 3.66016 437.01 3.60547 436.846 3.54688C436.689 3.49219 436.537 3.44531 436.389 3.40625C436.24 3.36328 436.098 3.3418 435.961 3.3418C435.77 3.3418 435.604 3.4043 435.463 3.5293C435.322 3.6543 435.189 3.85937 435.064 4.14453L434.408 3.875C434.529 3.55469 434.666 3.26172 434.818 2.99609C434.967 2.73047 435.15 2.51953 435.369 2.36328C435.588 2.20313 435.857 2.12305 436.178 2.12305ZM437.578 5.03516C437.656 5.44141 437.729 5.89453 437.795 6.39453C437.865 6.89453 437.926 7.40625 437.977 7.92969C438.027 8.45312 438.066 8.95898 438.094 9.44727C438.121 9.93164 438.135 10.3652 438.135 10.748C438.135 11.5918 438.055 12.2949 437.895 12.8574C437.738 13.416 437.475 13.8301 437.104 14.0996L436.488 13.7246C436.641 13.3926 436.752 13.043 436.822 12.6758C436.896 12.3047 436.934 11.8281 436.934 11.2461C436.934 10.5039 436.883 9.67969 436.781 8.77344C436.68 7.86719 436.531 6.9375 436.336 5.98438L437.578 5.03516Z" fill="#1F2F37"/>
<path d="M323.697 260.086L324.348 261.252C324.59 261.697 324.826 262.023 325.057 262.23C325.291 262.434 325.609 262.535 326.012 262.535H326.018V264H326.012C325.781 264 325.576 263.967 325.396 263.9C325.217 263.83 325.049 263.734 324.893 263.613C324.936 264.332 324.846 264.971 324.623 265.529C324.404 266.088 324.092 266.525 323.686 266.842C323.279 267.162 322.812 267.322 322.285 267.322C322.023 267.322 321.764 267.293 321.506 267.234C321.248 267.18 320.969 267.08 320.668 266.936L321.008 266.074C321.719 266.02 322.354 265.873 322.912 265.635C323.475 265.396 323.883 265 324.137 264.445C324.035 263.961 323.871 263.469 323.645 262.969C323.422 262.465 323.109 261.91 322.707 261.305L323.697 260.086ZM325.941 257.977C326.172 257.668 326.396 257.348 326.615 257.016C326.904 257.129 327.225 257.357 327.576 257.701C327.463 257.865 327.348 258.025 327.23 258.182C327.117 258.334 327.004 258.49 326.891 258.65C326.633 258.412 326.316 258.188 325.941 257.977ZM327.881 257.977C328.197 257.527 328.42 257.207 328.549 257.016C328.854 257.133 329.176 257.361 329.516 257.701C329.402 257.861 329.287 258.02 329.17 258.176C329.057 258.332 328.943 258.49 328.83 258.65C328.627 258.459 328.311 258.234 327.881 257.977ZM326.023 264C325.883 264 325.812 263.863 325.812 263.59V262.945C325.812 262.672 325.883 262.535 326.023 262.535C326.402 262.535 326.709 262.5 326.943 262.43C327.182 262.359 327.373 262.236 327.518 262.061C327.662 261.881 327.779 261.629 327.869 261.305C327.959 260.98 328.047 260.566 328.133 260.062L329.035 260.174C329.008 260.389 328.986 260.59 328.971 260.777C328.955 260.965 328.947 261.135 328.947 261.287C328.947 261.666 329.061 261.969 329.287 262.195C329.518 262.422 329.883 262.535 330.383 262.535H330.389V264H330.383C329.797 264 329.342 263.875 329.018 263.625C328.697 263.375 328.465 262.98 328.32 262.441C328.133 262.973 327.848 263.365 327.465 263.619C327.082 263.873 326.602 264 326.023 264ZM334.35 258.979C334.838 258.979 335.227 259.139 335.516 259.459C335.809 259.775 336.033 260.154 336.189 260.596C336.373 261.119 336.551 261.521 336.723 261.803C336.898 262.08 337.096 262.271 337.314 262.377C337.537 262.482 337.812 262.535 338.141 262.535H338.146V264H338.141C337.91 264 337.697 263.969 337.502 263.906C337.311 263.844 337.125 263.723 336.945 263.543C336.77 263.363 336.59 263.102 336.406 262.758C336.402 262.855 336.395 262.953 336.383 263.051C336.375 263.148 336.361 263.25 336.342 263.355C336.068 263.605 335.754 263.791 335.398 263.912C335.047 264.029 334.686 264.088 334.314 264.088C333.939 264.088 333.57 264.027 333.207 263.906C332.848 263.785 332.531 263.602 332.258 263.355L332.439 262.564C332.326 262.838 332.191 263.084 332.035 263.303C331.883 263.518 331.678 263.688 331.42 263.812C331.162 263.938 330.82 264 330.395 264C330.254 264 330.184 263.863 330.184 263.59V262.945C330.184 262.672 330.254 262.535 330.395 262.535C330.734 262.535 331.02 262.457 331.25 262.301C331.48 262.145 331.676 261.941 331.836 261.691C332 261.438 332.145 261.172 332.27 260.895C332.449 260.512 332.631 260.178 332.814 259.893C332.998 259.604 333.211 259.379 333.453 259.219C333.699 259.059 333.998 258.979 334.35 258.979ZM334.279 260.244C334.014 260.244 333.783 260.338 333.588 260.525C333.393 260.709 333.223 260.938 333.078 261.211C332.938 261.484 332.814 261.758 332.709 262.031C332.885 262.207 333.137 262.348 333.465 262.453C333.797 262.555 334.139 262.605 334.49 262.605C334.693 262.605 334.889 262.586 335.076 262.547C335.268 262.508 335.436 262.439 335.58 262.342C335.572 262.037 335.523 261.723 335.434 261.398C335.348 261.074 335.211 260.801 335.023 260.578C334.836 260.355 334.588 260.244 334.279 260.244ZM344.006 255.463L343.766 256.764C343.504 256.771 343.195 256.803 342.84 256.857C342.484 256.908 342.109 256.975 341.715 257.057C341.324 257.139 340.936 257.23 340.549 257.332C340.162 257.434 339.807 257.541 339.482 257.654C340.479 258.408 341.236 259.154 341.756 259.893C342.279 260.627 342.541 261.291 342.541 261.885C342.541 262.197 342.486 262.492 342.377 262.77C342.271 263.047 342.109 263.289 341.891 263.496C341.355 263.715 340.805 263.854 340.238 263.912C339.672 263.971 339.08 264 338.463 264H338.152C338.012 264 337.941 263.863 337.941 263.59V262.945C337.941 262.672 338.012 262.535 338.152 262.535H338.469C338.727 262.535 339.014 262.529 339.33 262.518C339.65 262.506 339.965 262.484 340.273 262.453C340.586 262.418 340.857 262.367 341.088 262.301C341.322 262.234 341.48 262.146 341.562 262.037C341.453 261.518 341.217 261.035 340.854 260.59C340.49 260.141 340.006 259.68 339.4 259.207L338.809 259.471L338.264 258.252L338.393 257.742C338.482 257.434 338.582 257.189 338.691 257.01C338.805 256.826 338.961 256.676 339.16 256.559C339.363 256.441 339.643 256.328 339.998 256.219C340.322 256.117 340.711 256.016 341.164 255.914C341.621 255.809 342.098 255.715 342.594 255.633C343.094 255.551 343.564 255.494 344.006 255.463Z" fill="#1F2F37"/>
<path d="M510.15 260.086L510.801 261.252C511.043 261.697 511.279 262.023 511.51 262.23C511.744 262.434 512.062 262.535 512.465 262.535H512.471V264H512.465C512.234 264 512.029 263.967 511.85 263.9C511.67 263.83 511.502 263.734 511.346 263.613C511.389 264.332 511.299 264.971 511.076 265.529C510.857 266.088 510.545 266.525 510.139 266.842C509.732 267.162 509.266 267.322 508.738 267.322C508.477 267.322 508.217 267.293 507.959 267.234C507.701 267.18 507.422 267.08 507.121 266.936L507.461 266.074C508.172 266.02 508.807 265.873 509.365 265.635C509.928 265.396 510.336 265 510.59 264.445C510.488 263.961 510.324 263.469 510.098 262.969C509.875 262.465 509.562 261.91 509.16 261.305L510.15 260.086ZM512.395 257.977C512.625 257.668 512.85 257.348 513.068 257.016C513.357 257.129 513.678 257.357 514.029 257.701C513.916 257.865 513.801 258.025 513.684 258.182C513.57 258.334 513.457 258.49 513.344 258.65C513.086 258.412 512.77 258.188 512.395 257.977ZM514.334 257.977C514.65 257.527 514.873 257.207 515.002 257.016C515.307 257.133 515.629 257.361 515.969 257.701C515.855 257.861 515.74 258.02 515.623 258.176C515.51 258.332 515.396 258.49 515.283 258.65C515.08 258.459 514.764 258.234 514.334 257.977ZM512.477 264C512.336 264 512.266 263.863 512.266 263.59V262.945C512.266 262.672 512.336 262.535 512.477 262.535C512.855 262.535 513.162 262.5 513.396 262.43C513.635 262.359 513.826 262.236 513.971 262.061C514.115 261.881 514.232 261.629 514.322 261.305C514.412 260.98 514.5 260.566 514.586 260.062L515.488 260.174C515.461 260.389 515.439 260.59 515.424 260.777C515.408 260.965 515.4 261.135 515.4 261.287C515.4 261.666 515.514 261.969 515.74 262.195C515.971 262.422 516.336 262.535 516.836 262.535H516.842V264H516.836C516.25 264 515.795 263.875 515.471 263.625C515.15 263.375 514.918 262.98 514.773 262.441C514.586 262.973 514.301 263.365 513.918 263.619C513.535 263.873 513.055 264 512.477 264ZM523.598 264.088C523.156 264.088 522.803 263.953 522.537 263.684C522.275 263.41 522.121 263.014 522.074 262.494C521.953 262.998 521.73 263.391 521.406 263.672C521.082 263.949 520.713 264.088 520.299 264.088C519.873 264.088 519.525 263.945 519.256 263.66C518.99 263.371 518.83 262.957 518.775 262.418C518.588 262.961 518.324 263.361 517.984 263.619C517.648 263.873 517.27 264 516.848 264C516.707 264 516.637 263.863 516.637 263.59V262.945C516.637 262.672 516.707 262.535 516.848 262.535C517.199 262.535 517.482 262.461 517.697 262.312C517.912 262.164 518.088 261.922 518.225 261.586C518.361 261.246 518.48 260.789 518.582 260.215L519.467 260.332C519.439 260.551 519.416 260.781 519.396 261.023C519.381 261.266 519.373 261.455 519.373 261.592C519.373 261.971 519.443 262.242 519.584 262.406C519.729 262.57 519.98 262.652 520.34 262.652C520.613 262.652 520.83 262.596 520.99 262.482C521.154 262.365 521.289 262.158 521.395 261.861C521.504 261.564 521.611 261.145 521.717 260.602H522.637C522.617 260.734 522.598 260.92 522.578 261.158C522.562 261.393 522.555 261.584 522.555 261.732C522.555 262.088 522.623 262.33 522.76 262.459C522.9 262.588 523.184 262.652 523.609 262.652C523.992 262.652 524.242 262.592 524.359 262.471C524.48 262.346 524.541 262.164 524.541 261.926C524.541 261.73 524.52 261.467 524.477 261.135C524.434 260.799 524.373 260.471 524.295 260.15L525.273 259.887C525.379 260.504 525.494 261.008 525.619 261.398C525.748 261.789 525.91 262.076 526.105 262.26C526.305 262.443 526.562 262.535 526.879 262.535H526.967V264H526.844C526.395 264 526.029 263.861 525.748 263.584C525.467 263.307 525.242 262.916 525.074 262.412C525.035 262.979 524.879 263.4 524.605 263.678C524.332 263.951 523.996 264.088 523.598 264.088ZM523.68 257.76L523 258.709C522.613 258.389 522.295 258.166 522.045 258.041C522.416 257.514 522.641 257.191 522.719 257.074C522.965 257.168 523.166 257.287 523.322 257.432C523.479 257.572 523.598 257.682 523.68 257.76ZM520.111 258.041C520.252 257.838 520.477 257.516 520.785 257.074C521.074 257.188 521.395 257.416 521.746 257.76C521.633 257.916 521.52 258.074 521.406 258.234C521.293 258.391 521.178 258.549 521.061 258.709C520.771 258.451 520.455 258.229 520.111 258.041ZM521.049 256.406C521.338 255.992 521.561 255.67 521.717 255.439C522.025 255.564 522.346 255.793 522.678 256.125C522.494 256.387 522.268 256.703 521.998 257.074C521.709 256.816 521.393 256.594 521.049 256.406ZM525.777 266.49C526.008 266.182 526.232 265.861 526.451 265.529C526.74 265.643 527.061 265.871 527.412 266.215C527.299 266.379 527.184 266.537 527.066 266.689C526.953 266.846 526.84 267.004 526.727 267.164C526.469 266.926 526.152 266.701 525.777 266.49ZM527.717 266.49C528.033 266.041 528.256 265.721 528.385 265.529C528.689 265.646 529.012 265.875 529.352 266.215C529.238 266.375 529.123 266.533 529.006 266.689C528.893 266.846 528.779 267.004 528.666 267.164C528.463 266.973 528.146 266.748 527.717 266.49ZM526.973 264C526.832 264 526.762 263.863 526.762 263.59V262.945C526.762 262.672 526.832 262.535 526.973 262.535C527.352 262.535 527.658 262.5 527.893 262.43C528.131 262.359 528.322 262.236 528.467 262.061C528.611 261.881 528.729 261.629 528.818 261.305C528.908 260.98 528.996 260.566 529.082 260.062L529.984 260.174C529.957 260.389 529.936 260.59 529.92 260.777C529.904 260.965 529.896 261.135 529.896 261.287C529.896 261.666 530.01 261.969 530.236 262.195C530.467 262.422 530.832 262.535 531.332 262.535H531.338V264H531.332C530.746 264 530.291 263.875 529.967 263.625C529.646 263.375 529.414 262.98 529.27 262.441C529.082 262.973 528.797 263.365 528.414 263.619C528.031 263.873 527.551 264 526.973 264ZM531.865 265.43C532.045 265.5 532.223 265.6 532.398 265.729C532.578 265.857 532.758 266.012 532.938 266.191C532.816 266.367 532.691 266.541 532.562 266.713C532.438 266.889 532.309 267.066 532.176 267.246C531.863 266.965 531.512 266.717 531.121 266.502C531.25 266.318 531.375 266.139 531.496 265.963C531.621 265.791 531.744 265.613 531.865 265.43ZM531.344 264C531.203 264 531.133 263.863 531.133 263.59V262.945C531.133 262.672 531.203 262.535 531.344 262.535H531.684C532.02 262.535 532.336 262.518 532.633 262.482C532.934 262.443 533.17 262.381 533.342 262.295C533.256 261.529 532.969 260.648 532.48 259.652L533.6 258.586C533.729 258.852 533.848 259.166 533.957 259.529C534.07 259.893 534.16 260.264 534.227 260.643C534.297 261.021 534.332 261.367 534.332 261.68C534.332 262.055 534.275 262.395 534.162 262.699C534.049 263.004 533.871 263.32 533.629 263.648C533.312 263.777 532.988 263.869 532.656 263.924C532.328 263.975 531.945 264 531.508 264H531.344Z" fill="#1F2F37"/>
</svg>
